<svg width="825" height="825" viewBox="0 0 825 825" fill="none" xmlns="http://www.w3.org/2000/svg">
<circle cx="412.5" cy="412.5" r="412.5" fill="white"/>
<path d="M417.782 430.589C381.492 458.442 343.934 489.246 275.148 487.981C223.652 487.031 181.889 446.225 181.889 394.718C181.889 343.211 223.641 301.459 275.148 301.459C296.49 301.459 316.156 308.635 331.871 320.695C278.523 264.746 153.071 288.7 138.845 385.435C121.967 500.216 224.146 551.181 311.442 529.966C418.204 504.018 464.626 387.127 550.29 366.447C493.74 371.932 476.356 385.637 417.782 430.589Z" fill="#1D2345"/>
<path d="M406.287 395.081C442.577 367.229 480.135 336.424 548.921 337.689C600.417 338.636 642.18 379.441 642.18 430.948C642.18 482.455 600.428 524.208 548.921 524.208C527.579 524.208 507.913 517.031 492.198 504.972C545.546 560.92 671.002 536.966 685.227 440.231C702.102 325.45 599.923 274.49 512.627 295.704C405.865 321.652 359.446 438.544 273.782 459.224C330.329 453.738 347.713 440.033 406.287 395.081Z" fill="#C60038"/>
</svg>
