<?xml version="1.0" encoding="utf-8"?>
<svg id="title" viewBox="0 0 800 800" xmlns="http://www.w3.org/2000/svg">
  <defs>
    <style>
      .cls-1, .cls-2 {
        stroke: #3a3a3a;
      }

      .cls-1, .cls-2, .cls-3 {
        stroke-linecap: round;
        stroke-linejoin: round;
        stroke-width: 3px;
      }

      .cls-1, .cls-4 {
        fill: #fff;
      }

      .cls-5 {
        fill: #b584ed;
      }

      .cls-5, .cls-6, .cls-4, .cls-7, .cls-8, .cls-9, .cls-10, .cls-11 {
        stroke-width: 0px;
      }

      .cls-6 {
        fill: #373a3a;
      }

      .cls-2, .cls-3 {
        fill: none;
      }

      .cls-12 {
        opacity: 0;
        stroke: #1d1d1b;
        stroke-miterlimit: 10;
      }

      .cls-12, .cls-8 {
        fill: #3a3a3a;
      }

      .cls-3 {
        stroke: #373a3a;
      }

      .cls-7 {
        fill: #dae0e5;
      }

      .cls-9 {
        fill: #d7dce0;
      }

      .cls-10 {
        fill: #c2c7cc;
      }

      .cls-11 {
        fill: #969a9e;
      }
    </style>
  </defs>
  <rect class="cls-12" width="800" height="800"/>
  <g>
    <g>
      <path class="cls-1" d="M30.65,497.41v52.62h.05c.73,12.56,9.62,24.59,23.34,33.83,74.55,50.18,157.17,91.18,234.9,136.27,35.89,20.82,67.69,43.77,110.63,43.77s74.76-22.96,110.63-43.77c78.3-45.42,156.6-90.85,234.9-136.27,5.64-3.21,11.36-7.34,15.5-12.39,6.22-7.57,8.77-14.74,8.74-21.44h.02v-52.62H30.65Z" style="fill: rgb(26, 56, 106);"/>
      <path class="cls-1" d="M745.39,527.11c-78.37,45.38-156.74,90.77-235.1,136.15-35.91,20.8-67.79,43.73-110.73,43.73-42.97,0-74.8-22.93-110.73-43.73-77.79-45.05-160.48-86-235.1-136.15-24.4-16.4-33.55-41.63-8.67-62.95,17.71-15.17,42.14-25.16,62.13-36.65,49.11-28.22,98.21-56.43,147.32-84.65,40.63-23.35,84.32-58.65,132.93-62.76,37.23-3.14,65.28,9.96,96.58,27.94,84.89,48.78,171.08,95.8,254.86,146.44,22.24,13.44,43.14,34.57,22.02,60.24-4.15,5.04-9.87,9.17-15.51,12.38h0Z" style="fill: rgb(235, 235, 235);"/>
    </g>
    <polyline class="cls-2" points="563.22 522.81 531.38 541.19 386.55 457.58"/>
    <line class="cls-2" x1="385.96" y1="457.26" x2="374.71" y2="450.54"/>
    <g>
      <polyline class="cls-2" points="133.82 470.6 306.36 570.21 278.23 586.45"/>
      <polyline class="cls-2" points="116.84 480.41 261.67 564.02 229.82 582.41" style="fill-rule: nonzero;"/>
      <path class="cls-2" d="M278.29,586.41c3.26,1.88,3.26,4.94,0,6.82-3.26,1.88-8.55,1.88-11.81,0-3.26-1.88-3.26-4.94,0-6.82s8.55-1.88,11.81,0Z"/>
      <path class="cls-2" d="M229.19,582.77c3.26,1.88,3.26,4.94,0,6.82-3.26,1.88-8.55,1.88-11.81,0-3.26-1.88-3.26-4.94,0-6.82s8.55-1.88,11.81,0Z" style="fill-rule: nonzero;"/>
    </g>
    <path class="cls-2" d="M563.85,522.44c3.26,1.88,8.55,1.88,11.81,0,3.26-1.88,3.26-4.94,0-6.82-3.26-1.88-8.55-1.88-11.81,0s-3.26,4.94,0,6.82Z"/>
    <g>
      <polyline class="cls-2" points="355 461.67 474.99 530.94 442.08 549.94"/>
      <path class="cls-2" d="M442.08,549.94c3.26,1.88,3.26,4.94,0,6.82-3.26,1.88-8.55,1.88-11.81,0-3.26-1.88-3.26-4.94,0-6.82,3.26-1.88,8.55-1.88,11.81,0Z"/>
    </g>
    <g>
      <polyline class="cls-2" points="394.67 367.7 567.21 467.31 595.33 451.07"/>
      <polyline class="cls-2" points="428.64 348.09 548.62 417.36 581.53 398.37"/>
      <path class="cls-2" d="M595.27,451.11c3.26,1.88,8.55,1.88,11.81,0,3.26-1.88,3.26-4.94,0-6.82-3.26-1.88-8.55-1.88-11.81,0s-3.26,4.94,0,6.82Z"/>
      <path class="cls-2" d="M581.53,398.37c3.26,1.88,8.55,1.88,11.81,0,3.26-1.88,3.26-4.94,0-6.82-3.26-1.88-8.55-1.88-11.81,0-3.26,1.88-3.26,4.94,0,6.82Z"/>
    </g>
    <g>
      <g id="server">
        <g>
          <path class="cls-4" d="M468.01,229.08v.15c-.06,2.4-1.68,4.79-4.86,6.63l-52.82,30.49c-6.49,3.73-16.99,3.73-23.48,0l-52.83-30.49c-3.24-1.88-4.86-4.33-4.86-6.78s1.62-4.9,4.86-6.78l52.83-30.5c6.48-3.73,16.98-3.73,23.48,0l52.82,30.5c3.25,1.88,4.86,4.33,4.86,6.78ZM421.12,229.13v-.05c0-.8-.52-1.59-1.58-2.21l-17.14-9.9c-.82-.47-1.85-.76-2.91-.86-1.66-.16-3.43.12-4.71.86l-17.15,9.9c-1.06.62-1.58,1.4-1.58,2.21s.52,1.59,1.58,2.19l17.15,9.9c1.28.75,3.05,1.04,4.71.87,1.07-.1,2.09-.39,2.91-.87l17.14-9.9c1.04-.59,1.56-1.36,1.58-2.14Z"/>
          <path class="cls-7" d="M468.01,312.29v21.53c0,2.46-1.62,4.91-4.86,6.78l-52.82,30.49c-6.49,3.75-16.99,3.75-23.48,0l-52.83-30.49c-3.24-1.87-4.86-4.32-4.86-6.78v-21.68c0,2.45,1.62,4.9,4.86,6.77l52.83,30.5c6.48,3.73,16.98,3.73,23.48,0l52.82-30.5c3.18-1.83,4.8-4.22,4.86-6.61Z" style="fill: rgb(255, 255, 255);"/>
          <path class="cls-5" d="M468.01,312.14v.15c-.06,2.4-1.68,4.79-4.86,6.61l-52.82,30.5c-6.49,3.73-16.99,3.73-23.48,0l-52.83-30.5c-3.24-1.87-4.86-4.32-4.86-6.77s1.62-4.9,4.86-6.78l5.45-3.15,47.38,27.35c6.48,3.75,16.98,3.75,23.48,0l47.37-27.35,5.45,3.15c3.25,1.88,4.86,4.32,4.86,6.78Z" style="fill: rgb(26, 56, 106);"/>
          <path class="cls-7" d="M468.01,270.76v21.54c0,2.45-1.62,4.91-4.86,6.78l-52.82,30.49c-6.49,3.75-16.99,3.75-23.48,0l-52.83-30.49c-3.24-1.87-4.86-4.33-4.86-6.78v-21.69c0,2.46,1.62,4.9,4.86,6.78l52.83,30.49c6.48,3.74,16.98,3.74,23.48,0l52.82-30.49c3.18-1.83,4.8-4.23,4.86-6.63Z" style="fill: rgb(255, 255, 255);"/>
          <path class="cls-5" d="M468.01,270.6v.15c-.06,2.4-1.68,4.8-4.86,6.63l-52.82,30.49c-6.49,3.74-16.99,3.74-23.48,0l-52.83-30.49c-3.24-1.88-4.86-4.32-4.86-6.78s1.62-4.9,4.86-6.77l5.45-3.15,47.38,27.35c6.48,3.74,16.98,3.74,23.48,0l47.37-27.35,5.45,3.15c3.25,1.87,4.86,4.32,4.86,6.77Z" style="fill: rgb(26, 56, 106);"/>
          <path class="cls-7" d="M468.01,229.23v21.54c0,2.45-1.62,4.9-4.86,6.77l-52.82,30.5c-6.49,3.74-16.99,3.74-23.48,0l-52.83-30.5c-3.24-1.87-4.86-4.32-4.86-6.77v-21.69c0,2.45,1.62,4.9,4.86,6.78l52.83,30.49c6.48,3.73,16.98,3.73,23.48,0l52.82-30.49c3.18-1.84,4.8-4.23,4.86-6.63Z"/>
          <path class="cls-10" d="M421.12,229.08v.05c-.02.78-.54,1.55-1.58,2.14l-17.14,9.9c-.82.48-1.85.77-2.91.87v-25.93c1.07.1,2.09.39,2.91.86l17.14,9.9c1.06.62,1.58,1.4,1.58,2.21Z"/>
          <path class="cls-6" d="M399.49,216.11v25.93c-1.66.16-3.43-.12-4.71-.87l-17.15-9.9c-1.06-.61-1.58-1.4-1.58-2.19s.52-1.59,1.58-2.21l17.15-9.9c1.28-.74,3.05-1.03,4.71-.86Z"/>
        </g>
        <g>
          <path class="cls-3" d="M468.01,312.29c-.06,2.4-1.68,4.79-4.86,6.61l-52.82,30.5c-6.49,3.73-16.99,3.73-23.48,0l-52.83-30.5c-3.24-1.87-4.86-4.32-4.86-6.77s1.62-4.9,4.86-6.78l5.45-3.15"/>
          <path class="cls-3" d="M457.7,302.21l5.45,3.15c3.25,1.88,4.86,4.32,4.86,6.78v21.68c0,2.46-1.62,4.91-4.86,6.78l-52.82,30.49c-6.49,3.75-16.99,3.75-23.48,0l-52.83-30.49c-3.24-1.87-4.86-4.32-4.86-6.78v-21.68"/>
          <path class="cls-3" d="M468.01,270.76c-.06,2.4-1.68,4.8-4.86,6.63l-52.82,30.49c-6.49,3.74-16.99,3.74-23.48,0l-52.83-30.49c-3.24-1.88-4.86-4.32-4.86-6.78s1.62-4.9,4.86-6.77l5.45-3.15"/>
          <path class="cls-3" d="M457.7,260.69l5.45,3.15c3.25,1.87,4.86,4.32,4.86,6.77v21.69c0,2.45-1.62,4.91-4.86,6.78l-52.82,30.49c-6.49,3.75-16.99,3.75-23.48,0l-52.83-30.49c-3.24-1.87-4.86-4.33-4.86-6.78v-21.69"/>
          <path class="cls-3" d="M468.01,229.23c-.06,2.4-1.68,4.79-4.86,6.63l-52.82,30.49c-6.49,3.73-16.99,3.73-23.48,0l-52.83-30.49c-3.24-1.88-4.86-4.33-4.86-6.78s1.62-4.9,4.86-6.78l52.83-30.5c6.48-3.73,16.98-3.73,23.48,0l52.82,30.5c3.25,1.88,4.86,4.33,4.86,6.78"/>
          <path class="cls-3" d="M468.01,229.08v21.69c0,2.45-1.62,4.9-4.86,6.77l-52.82,30.5c-6.49,3.74-16.99,3.74-23.48,0l-52.83-30.5c-3.24-1.87-4.86-4.32-4.86-6.77v-21.69"/>
          <path class="cls-3" d="M421.12,229.13c-.02.78-.54,1.55-1.58,2.14l-17.14,9.9c-.82.48-1.85.77-2.91.87-1.66.16-3.43-.12-4.71-.87l-17.15-9.9c-1.06-.61-1.58-1.4-1.58-2.19s.52-1.59,1.58-2.21l17.15-9.9c1.28-.74,3.05-1.02,4.71-.86,1.07.1,2.09.39,2.91.86l17.14,9.9c1.06.62,1.58,1.4,1.58,2.21v.05Z"/>
          <line class="cls-3" x1="399.49" y1="216.11" x2="399.49" y2="242.04"/>
        </g>
      </g>
      <g id="server-2" data-name="server">
        <g>
          <path class="cls-4" d="M469.41,153.81v.15c-.11,2.4-1.77,4.76-4.98,6.54l-53.34,29.56c-6.56,3.62-17.06,3.44-23.47-.41l-52.29-31.41c-3.21-1.93-4.78-4.41-4.74-6.86.04-2.45,1.71-4.87,4.98-6.69l53.35-29.57c6.55-3.62,17.05-3.44,23.47.41l52.28,31.42c3.22,1.93,4.78,4.41,4.74,6.86ZM422.53,153.05v-.05c.01-.8-.49-1.6-1.54-2.23l-16.96-10.19c-.81-.49-1.83-.79-2.9-.91-1.66-.19-3.43.06-4.72.78l-17.32,9.6c-1.07.6-1.6,1.38-1.62,2.18s.5,1.6,1.54,2.22l16.97,10.19c1.27.77,3.03,1.09,4.69.95,1.07-.08,2.1-.35,2.93-.82l17.31-9.6c1.05-.58,1.58-1.34,1.62-2.12Z"/>
          <path class="cls-7" d="M467.96,237.01l-.38,21.52c-.04,2.46-1.71,4.88-4.98,6.69l-53.34,29.56c-6.56,3.64-17.06,3.46-23.47-.41l-52.29-31.41c-3.21-1.92-4.79-4.4-4.74-6.86l.38-21.68c-.04,2.45,1.53,4.93,4.74,6.85l52.29,31.42c6.42,3.85,16.92,4.03,23.47.41l53.34-29.57c3.21-1.77,4.87-4.13,4.98-6.53Z" style="fill: rgb(255, 255, 255);"/>
          <path class="cls-5" d="M467.96,236.86v.15c-.11,2.4-1.77,4.76-4.98,6.53l-53.34,29.57c-6.56,3.62-17.06,3.44-23.47-.41l-52.29-31.42c-3.21-1.92-4.79-4.4-4.74-6.85s1.71-4.87,4.98-6.69l5.5-3.05,46.9,28.17c6.42,3.87,16.92,4.05,23.47.41l47.84-26.52,5.39,3.24c3.22,1.93,4.79,4.4,4.74,6.86Z" style="fill: rgb(26, 56, 106);"/>
          <path class="cls-7" d="M468.68,195.48l-.38,21.53c-.04,2.45-1.71,4.88-4.98,6.69l-53.34,29.56c-6.56,3.64-17.06,3.46-23.47-.41l-52.29-31.41c-3.21-1.92-4.78-4.41-4.74-6.86l.38-21.69c-.04,2.46,1.53,4.93,4.74,6.86l52.29,31.41c6.42,3.86,16.92,4.04,23.47.41l53.34-29.56c3.21-1.77,4.87-4.14,4.98-6.54Z" style="fill: rgb(255, 255, 255);"/>
          <path class="cls-5" d="M468.68,195.33v.15c-.11,2.4-1.77,4.77-4.98,6.54l-53.34,29.56c-6.56,3.63-17.06,3.45-23.47-.41l-52.29-31.41c-3.21-1.93-4.79-4.4-4.74-6.86s1.71-4.87,4.98-6.68l5.5-3.05,46.9,28.17c6.42,3.86,16.92,4.04,23.47.41l47.84-26.52,5.39,3.24c3.22,1.92,4.79,4.4,4.74,6.85Z" style="fill: rgb(26, 56, 106);"/>
          <path class="cls-7" d="M469.41,153.97l-.38,21.53c-.04,2.45-1.71,4.87-4.98,6.68l-53.34,29.57c-6.56,3.63-17.06,3.45-23.47-.41l-52.29-31.42c-3.21-1.92-4.79-4.4-4.74-6.85l.38-21.69c-.04,2.45,1.53,4.93,4.74,6.86l52.29,31.41c6.42,3.85,16.92,4.03,23.47.41l53.34-29.56c3.21-1.78,4.87-4.14,4.98-6.54Z"/>
          <path class="cls-10" d="M422.53,152.99v.05c-.04.78-.57,1.54-1.62,2.12l-17.31,9.6c-.83.47-1.86.74-2.93.82l.45-25.92c1.06.12,2.08.43,2.9.91l16.96,10.19c1.05.63,1.55,1.43,1.54,2.23Z"/>
          <path class="cls-6" d="M401.13,139.66l-.45,25.92c-1.66.14-3.42-.18-4.69-.95l-16.97-10.19c-1.05-.62-1.55-1.43-1.54-2.22s.55-1.58,1.62-2.18l17.32-9.6c1.29-.72,3.06-.97,4.72-.78Z"/>
        </g>
        <g>
          <path class="cls-3" d="M467.96,237.01c-.1,2.4-1.77,4.76-4.98,6.53l-53.34,29.57c-6.56,3.62-17.06,3.44-23.47-.41l-52.29-31.42c-3.21-1.92-4.79-4.4-4.74-6.85s1.71-4.87,4.98-6.69l5.5-3.05"/>
          <path class="cls-3" d="M457.83,226.75l5.39,3.24c3.22,1.93,4.79,4.4,4.74,6.86l-.38,21.68c-.04,2.46-1.71,4.88-4.98,6.69l-53.34,29.56c-6.56,3.64-17.06,3.46-23.47-.41l-52.29-31.41c-3.21-1.92-4.79-4.4-4.74-6.86l.38-21.68"/>
          <path class="cls-3" d="M468.68,195.48c-.1,2.4-1.77,4.77-4.98,6.54l-53.34,29.56c-6.56,3.63-17.06,3.45-23.47-.41l-52.29-31.41c-3.21-1.93-4.79-4.4-4.74-6.86s1.71-4.87,4.98-6.68l5.5-3.05"/>
          <path class="cls-3" d="M458.55,185.24l5.39,3.24c3.22,1.92,4.79,4.4,4.74,6.85l-.38,21.69c-.04,2.45-1.71,4.88-4.98,6.69l-53.34,29.56c-6.56,3.64-17.06,3.46-23.47-.41l-52.29-31.41c-3.21-1.92-4.78-4.41-4.74-6.86l.38-21.69"/>
          <path class="cls-3" d="M469.41,153.97c-.1,2.4-1.77,4.76-4.98,6.54l-53.34,29.56c-6.56,3.62-17.06,3.44-23.47-.41l-52.29-31.41c-3.21-1.93-4.78-4.41-4.74-6.86.04-2.45,1.71-4.87,4.98-6.69l53.35-29.57c6.55-3.62,17.05-3.44,23.47.41l52.28,31.42c3.22,1.93,4.78,4.41,4.74,6.86"/>
          <path class="cls-3" d="M469.41,153.81l-.38,21.69c-.04,2.45-1.71,4.87-4.98,6.68l-53.34,29.57c-6.56,3.63-17.06,3.45-23.47-.41l-52.29-31.42c-3.21-1.92-4.79-4.4-4.74-6.85l.38-21.69"/>
          <path class="cls-3" d="M422.53,153.05c-.03.78-.57,1.54-1.62,2.12l-17.31,9.6c-.83.47-1.86.74-2.93.82-1.66.13-3.42-.18-4.69-.95l-16.97-10.19c-1.05-.62-1.55-1.43-1.54-2.22s.55-1.58,1.62-2.18l17.32-9.6c1.29-.72,3.06-.97,4.72-.78,1.06.12,2.08.43,2.9.91l16.96,10.19c1.05.63,1.55,1.43,1.54,2.23v.05Z"/>
          <line class="cls-3" x1="401.13" y1="139.66" x2="400.67" y2="165.58"/>
        </g>
      </g>
      <g id="server-3" data-name="server">
        <g>
          <path class="cls-4" d="M472.36,78.6v.15c-.15,2.4-1.85,4.73-5.09,6.45l-53.85,28.63c-6.62,3.5-17.11,3.14-23.46-.82l-51.73-32.32c-3.17-1.99-4.71-4.49-4.62-6.94.09-2.45,1.79-4.84,5.09-6.61l53.86-28.64c6.61-3.5,17.1-3.14,23.46.82l51.72,32.33c3.18,1.99,4.71,4.49,4.62,6.94ZM425.5,77.01v-.05c.03-.8-.47-1.61-1.5-2.26l-16.78-10.49c-.8-.5-1.82-.82-2.88-.96-1.65-.22-3.43,0-4.73.7l-17.48,9.29c-1.08.58-1.63,1.35-1.66,2.15-.03.79.47,1.61,1.5,2.25l16.79,10.49c1.26.79,3.01,1.14,4.67,1.04,1.07-.07,2.1-.32,2.94-.77l17.47-9.29c1.06-.56,1.61-1.31,1.65-2.09Z"/>
          <path class="cls-7" d="M469.46,161.76l-.75,21.51c-.09,2.46-1.79,4.85-5.09,6.61l-53.85,28.63c-6.62,3.52-17.11,3.16-23.46-.82l-51.73-32.32c-3.17-1.98-4.71-4.48-4.62-6.94l.76-21.67c-.09,2.45,1.45,4.96,4.62,6.93l51.73,32.33c6.35,3.96,16.84,4.32,23.46.82l53.85-28.64c3.24-1.71,4.94-4.05,5.09-6.44Z" style="fill: rgb(255, 255, 255);"/>
          <path class="cls-5" d="M469.46,161.61v.15c-.15,2.4-1.85,4.73-5.09,6.44l-53.85,28.64c-6.62,3.5-17.11,3.14-23.46-.82l-51.73-32.33c-3.17-1.98-4.71-4.48-4.62-6.93.09-2.46,1.79-4.84,5.09-6.61l5.55-2.96,46.4,28.99c6.35,3.98,16.84,4.34,23.46.82l48.3-25.68,5.33,3.34c3.18,1.99,4.71,4.48,4.62,6.94Z" style="fill: rgb(26, 56, 106);"/>
          <path class="cls-7" d="M470.91,120.25l-.75,21.52c-.09,2.45-1.79,4.85-5.09,6.61l-53.85,28.63c-6.62,3.52-17.11,3.16-23.46-.82l-51.73-32.32c-3.17-1.98-4.71-4.49-4.62-6.94l.76-21.68c-.09,2.46,1.45,4.96,4.62,6.94l51.73,32.32c6.35,3.97,16.84,4.33,23.46.82l53.85-28.63c3.24-1.71,4.94-4.06,5.09-6.45Z" style="fill: rgb(255, 255, 255);"/>
          <path class="cls-5" d="M470.91,120.1v.15c-.15,2.4-1.85,4.74-5.09,6.45l-53.85,28.63c-6.62,3.51-17.11,3.15-23.46-.82l-51.73-32.32c-3.17-1.99-4.71-4.48-4.62-6.94.09-2.45,1.79-4.84,5.09-6.59l5.55-2.96,46.4,28.99c6.35,3.97,16.84,4.33,23.46.82l48.3-25.68,5.33,3.34c3.18,1.98,4.71,4.48,4.62,6.93Z" style="fill: rgb(26, 56, 106);"/>
          <path class="cls-7" d="M472.36,78.75l-.75,21.52c-.09,2.45-1.79,4.84-5.09,6.6l-53.85,28.64c-6.62,3.51-17.11,3.15-23.46-.82l-51.73-32.33c-3.17-1.98-4.71-4.48-4.62-6.93l.76-21.68c-.09,2.45,1.45,4.96,4.62,6.94l51.73,32.32c6.35,3.96,16.84,4.32,23.46.82l53.85-28.63c3.24-1.72,4.94-4.06,5.09-6.45Z" style="fill: rgb(255, 255, 255);"/>
          <path class="cls-10" d="M425.5,76.96v.05c-.05.78-.6,1.53-1.66,2.09l-17.47,9.29c-.84.45-1.87.7-2.94.77l.9-25.91c1.06.14,2.08.46,2.88.96l16.78,10.49c1.03.65,1.53,1.46,1.5,2.26Z"/>
          <path class="cls-6" d="M404.34,63.25l-.9,25.91c-1.67.11-3.42-.24-4.67-1.04l-16.79-10.49c-1.03-.64-1.53-1.46-1.5-2.25.03-.8.58-1.57,1.66-2.15l17.48-9.29c1.31-.69,3.08-.92,4.73-.7Z"/>
        </g>
        <g>
          <path class="cls-3" d="M469.46,161.76c-.15,2.4-1.85,4.73-5.09,6.44l-53.85,28.64c-6.62,3.5-17.11,3.14-23.46-.82l-51.73-32.33c-3.17-1.98-4.71-4.48-4.62-6.93.09-2.46,1.79-4.84,5.09-6.61l5.55-2.96"/>
          <path class="cls-3" d="M459.51,151.33l5.33,3.34c3.18,1.99,4.71,4.48,4.62,6.94l-.76,21.67c-.09,2.46-1.79,4.85-5.09,6.61l-53.85,28.63c-6.62,3.52-17.11,3.16-23.46-.82l-51.73-32.32c-3.17-1.98-4.71-4.48-4.62-6.94l.76-21.67"/>
          <path class="cls-3" d="M470.91,120.25c-.15,2.4-1.85,4.74-5.09,6.45l-53.85,28.63c-6.62,3.51-17.11,3.15-23.46-.82l-51.73-32.32c-3.17-1.99-4.71-4.48-4.62-6.94.09-2.45,1.79-4.84,5.09-6.59l5.55-2.96"/>
          <path class="cls-3" d="M460.96,109.83l5.33,3.34c3.18,1.98,4.71,4.48,4.62,6.93l-.76,21.68c-.09,2.45-1.79,4.85-5.09,6.61l-53.85,28.63c-6.62,3.52-17.11,3.16-23.46-.82l-51.73-32.32c-3.17-1.98-4.71-4.49-4.62-6.94l.76-21.68"/>
          <path class="cls-3" d="M472.36,78.75c-.15,2.4-1.85,4.73-5.09,6.45l-53.85,28.63c-6.62,3.5-17.11,3.14-23.46-.82l-51.73-32.32c-3.17-1.99-4.71-4.49-4.62-6.94.09-2.45,1.79-4.84,5.09-6.61l53.86-28.64c6.61-3.5,17.1-3.14,23.46.82l51.72,32.33c3.18,1.99,4.71,4.49,4.62,6.94"/>
          <path class="cls-3" d="M472.36,78.6l-.76,21.68c-.09,2.45-1.79,4.84-5.09,6.6l-53.85,28.64c-6.62,3.51-17.11,3.15-23.46-.82l-51.73-32.33c-3.17-1.98-4.71-4.48-4.62-6.93l.76-21.68"/>
          <path class="cls-3" d="M425.5,77.01c-.05.78-.6,1.53-1.65,2.09l-17.47,9.29c-.84.45-1.87.7-2.94.77-1.67.1-3.42-.24-4.67-1.04l-16.79-10.49c-1.03-.64-1.53-1.46-1.5-2.25.03-.8.58-1.57,1.66-2.15l17.48-9.29c1.31-.69,3.08-.92,4.73-.7,1.06.14,2.08.46,2.88.96l16.78,10.49c1.03.65,1.53,1.46,1.5,2.26v.05Z"/>
          <line class="cls-3" x1="404.34" y1="63.25" x2="403.43" y2="89.16"/>
        </g>
      </g>
    </g>
    <g>
      <g>
        <path class="cls-9" d="M235.61,430.74c2.98,2.69,6.49,5.23,10.56,7.58,9.07,5.24,19.83,8.9,31.26,11,26.75,4.91,57.2,1.25,78.42-11,15.14-8.74,22.71-20.21,22.71-31.67v-31.16c31.31,22.52,28.87,55.52-7.31,76.41-38.79,22.4-101.69,22.4-140.48,0-36.19-20.89-38.62-53.89-7.31-76.41v31.16c0,8.38,4.05,16.77,12.16,24.09Z"/>
        <path class="cls-4" d="M378.56,394.66v11.99c0,11.46-7.57,22.92-22.71,31.67-21.22,12.24-51.66,15.91-78.42,11v-12.13c-11.43-2.11-22.2-5.77-31.26-11.01-4.06-2.35-7.58-4.89-10.56-7.58v12.14c-8.11-7.31-12.16-15.7-12.16-24.09v-58.55c0,11.46,7.57,22.92,22.71,31.66,30.29,17.49,79.39,17.49,109.68,0,15.14-8.74,22.71-20.2,22.71-31.66v46.56Z"/>
        <path class="cls-9" d="M 378.56 326.77 L 378.56 348.11 C 378.56 359.57 370.99 371.03 355.85 379.77 C 325.56 397.26 276.46 397.26 246.17 379.77 C 231.03 371.03 223.46 359.57 223.46 348.11 L 223.46 326.77 C 223.46 338.23 231.03 349.69 246.17 358.43 C 263.356 368.348 286.597 372.638 309.022 371.302 C 326.121 370.283 342.746 365.992 355.85 358.43 C 370.99 349.69 378.56 338.23 378.56 326.77 Z" style="fill: rgb(26, 56, 106);"/>
        <path class="cls-11" d="M378.56,305.43v21.34c0,11.46-7.57,22.92-22.71,31.66-30.29,17.48-79.39,17.48-109.68,0-15.14-8.74-22.71-20.2-22.71-31.66v-21.34c0,11.47,7.57,22.92,22.71,31.67,30.29,17.48,79.39,17.48,109.68,0,15.14-8.74,22.71-20.2,22.71-31.67Z" style="fill: rgb(26, 56, 106);"/>
        <path class="cls-4" d="M378.56,282.16v23.27c0,11.47-7.57,22.92-22.71,31.67-30.29,17.48-79.39,17.48-109.68,0-15.14-8.74-22.71-20.2-22.71-31.67v-23.27c0,11.46,7.57,22.92,22.71,31.67,30.29,17.48,79.39,17.48,109.68,0,15.14-8.75,22.71-20.21,22.71-31.67Z"/>
        <path class="cls-4" d="M355.84,250.5c15.14,8.74,22.71,20.2,22.71,31.66s-7.57,22.92-22.71,31.67c-30.29,17.48-79.39,17.48-109.68,0-15.14-8.75-22.71-20.21-22.71-31.67s7.57-22.92,22.71-31.66c30.29-17.49,79.39-17.49,109.68,0ZM326.49,296.88c14.08-8.12,14.08-21.3,0-29.43-14.07-8.12-36.91-8.12-50.98,0-14.08,8.13-14.08,21.31,0,29.43,14.07,8.13,36.91,8.13,50.98,0Z"/>
        <path class="cls-8" d="M326.49,267.44c14.08,8.13,14.08,21.31,0,29.43-14.07,8.13-36.91,8.13-50.98,0-14.08-8.12-14.08-21.3,0-29.43,14.07-8.12,36.91-8.12,50.98,0Z"/>
        <path class="cls-8" d="M277.43,437.18v12.13c-11.43-2.1-22.2-5.76-31.26-11-4.06-2.35-7.58-4.89-10.56-7.58v-12.14c2.98,2.69,6.49,5.23,10.56,7.58,9.07,5.23,19.83,8.9,31.26,11.01Z"/>
      </g>
      <g>
        <path class="cls-2" d="M378.56,282.16c0,11.46-7.57,22.92-22.71,31.67-30.29,17.48-79.39,17.48-109.68,0-15.14-8.75-22.71-20.21-22.71-31.67s7.57-22.92,22.71-31.66c30.29-17.49,79.39-17.49,109.68,0,15.14,8.74,22.71,20.2,22.71,31.66Z"/>
        <path class="cls-2" d="M326.49,296.88c-14.07,8.13-36.91,8.13-50.98,0-14.08-8.12-14.08-21.3,0-29.43,14.07-8.12,36.91-8.12,50.98,0,14.08,8.13,14.08,21.31,0,29.43Z"/>
        <path class="cls-2" d="M378.56,394.66v11.99c0,11.46-7.57,22.92-22.71,31.67-21.22,12.24-51.66,15.91-78.42,11-11.43-2.1-22.2-5.76-31.26-11-4.06-2.35-7.58-4.89-10.56-7.58-8.1-7.32-12.16-15.7-12.16-24.09v-124.5"/>
        <line class="cls-2" x1="378.56" y1="282.16" x2="378.56" y2="394.51"/>
        <path class="cls-2" d="M378.56,375.5c31.31,22.52,28.87,55.52-7.31,76.41-38.79,22.4-101.69,22.4-140.48,0-36.19-20.89-38.62-53.89-7.31-76.41"/>
        <line class="cls-2" x1="378.56" y1="394.51" x2="378.56" y2="394.66"/>
        <path class="cls-2" d="M277.43,449.33v-12.14c-11.43-2.11-22.2-5.77-31.26-11.01-4.06-2.35-7.58-4.89-10.56-7.58v12.15"/>
        <path class="cls-2" d="M378.56,348.11c0,11.46-7.57,22.92-22.71,31.66-30.29,17.49-79.39,17.49-109.68,0-15.14-8.74-22.71-20.2-22.71-31.66"/>
        <path class="cls-2" d="M378.56,326.77c0,11.46-7.57,22.92-22.71,31.66-30.29,17.48-79.39,17.48-109.68,0-15.14-8.74-22.71-20.2-22.71-31.66" style="fill-rule: nonzero;"/>
        <path class="cls-2" d="M378.56,305.43c0,11.47-7.57,22.92-22.71,31.67-30.29,17.48-79.39,17.48-109.68,0-15.14-8.74-22.71-20.2-22.71-31.67"/>
      </g>
    </g>
    <g>
      <g>
        <path class="cls-4" d="M512.94,423.16c-.67.4-1.11,1.29-.99,1.99l16.9,90.5c.12.65.68.91,1.31.65.05-.02.11-.05.16-.09l131.92-76.16c.69-.39,1.12-1.29,1-1.98l-16.9-90.5c-.14-.71-.79-.96-1.47-.58l-131.93,76.16Z" style="fill: rgb(26, 56, 106);"/>
        <path class="cls-8" d="M529.37,517.16v7.09c0,.3.21.61.64.86l85.73,49.5c.78.46,1.97.5,2.65.12l131.93-76.16c.3-.18.45-.42.45-.66v-7.09c0,.25-.15.49-.45.66l-131.93,76.16c-.67.4-1.86.34-2.65-.11l-85.73-49.5c-.43-.25-.64-.57-.64-.87Z"/>
        <path class="cls-9" d="M688.77,497.29s-.07.03-.13.06c-.01.01-.03.02-.05.03s-.04.02-.05.03h-.01c-.09.05-.17.11-.26.15-.06.04-.13.07-.19.12-.13.07-.26.15-.37.21t-.02.01l-.04.03c-.05.03-.11.06-.16.09l-.21.13c-.1.05-.18.11-.27.15h-.01s-.01.01-.01.01l-.07.04c-.09.05-.16.1-.22.13l-.2.13s-.07.04-.11.05l-.06.04-.13.07s-.06.04-.1.05c-.03.02-.05.03-.07.04l-.04.03s-.02.01-.04.01c-.01.01,0,0,0,0l-.05.03s-.01.01-.02.01c-12.72,7.34-61.85,35.71-61.98,35.78-.73.28-2.01,1.78-3.75.8-3.96-2.6-7.98-3.78-6.22-4.79l61.98-35.78s.02-.02.04-.03c.03-.01.06-.03.11-.06l.17-.09.14-.09.06-.03h.01c.09-.05.16-.11.25-.15l.03-.02s.05-.03.07-.04c.07-.04.17-.09.27-.15.09-.05.3-.17.42-.25.01,0,.02-.01.04-.02l.05-.03s.09-.05.13-.07c.01,0,.01-.01.01-.01.06-.03.13-.06.18-.1.03-.02.07-.05.12-.07.45-.26.59-.34.48-.28.05-.03.12-.06.17-.1h0c1.84-1.08,5.13-2.97,5.21-3.01,1.77-1.02,3.78,1.31,8.28,3.6,1.94,1.1-1.59,2.01-3.49,3.37.05-.03.1-.05.13-.06ZM529.82,516.49c-.3.18-.45.42-.45.66,0,.3.21.62.64.87l85.73,49.5c.78.45,1.97.5,2.65.11l131.93-76.16c.3-.17.45-.41.45-.66,0-.3-.21-.62-.64-.86l-85.73-49.5c-.79-.46-1.97-.5-2.65-.12l-131.44,75.88c-.05.03-.11.06-.16.09l-.33.19ZM562.86,520.17c-.65-.39-.73-.95-.16-1.29l6.39-3.69c.57-.32,1.56-.29,2.22.1l6.07,3.5c.65.37.72.95.15,1.27l-6.39,3.69c-.57.33-1.55.29-2.22-.09l-6.06-3.5ZM578.94,510.88c-.65-.39-.72-.95-.15-1.29l6.39-3.69c.57-.33,1.55-.29,2.22.1l6.06,3.5c.66.37.73.95.16,1.27l-6.39,3.69c-.57.33-1.56.29-2.22-.09l-6.07-3.5ZM581.02,530.66c-.65-.39-.72-.95-.15-1.29l6.39-3.69c.57-.32,1.55-.29,2.22.1l6.06,3.5c.65.37.73.95.16,1.27l-6.39,3.69c-.57.33-1.56.29-2.22-.09l-6.07-3.5ZM595.04,501.59c-.65-.39-.73-.95-.16-1.29l6.4-3.69c.57-.33,1.55-.29,2.21.1l6.07,3.5c.65.37.73.94.16,1.27l-6.39,3.69c-.57.33-1.56.29-2.22-.09l-6.07-3.5ZM597.11,521.37c-.65-.39-.73-.95-.16-1.29l6.4-3.69c.57-.33,1.55-.29,2.21.1l6.07,3.5c.65.37.73.95.16,1.27l-6.4,3.69c-.56.33-1.55.29-2.21-.09l-6.07-3.5ZM611.13,492.3c-.65-.39-.73-.95-.16-1.29l6.4-3.69c.56-.33,1.55-.29,2.21.1l6.07,3.5c.65.37.73.94.16,1.27l-6.4,3.69c-.57.33-1.55.29-2.21-.09l-6.07-3.5ZM613.21,512.08c-.65-.39-.73-.95-.16-1.29l6.39-3.69c.57-.33,1.56-.29,2.22.1l6.07,3.5c.65.37.73.94.16,1.27l-6.4,3.69c-.57.33-1.55.29-2.21-.09l-6.07-3.5ZM627.22,483.01c-.65-.39-.73-.95-.16-1.29l6.39-3.69c.57-.33,1.56-.29,2.22.09l6.07,3.51c.65.37.72.94.15,1.27l-6.39,3.69c-.57.33-1.55.29-2.22-.09l-6.06-3.5ZM629.3,502.79c-.65-.39-.73-.95-.16-1.29l6.39-3.69c.57-.33,1.56-.29,2.22.1l6.07,3.5c.65.37.72.94.15,1.27l-6.39,3.69c-.57.33-1.55.29-2.22-.09l-6.06-3.5ZM643.31,473.72c-.66-.39-.73-.95-.16-1.29l6.39-3.69c.57-.33,1.56-.29,2.22.09l6.06,3.51c.66.37.73.94.16,1.27l-6.39,3.69c-.57.33-1.56.29-2.22-.09l-6.06-3.5ZM645.38,493.5c-.65-.39-.72-.95-.15-1.29l6.39-3.69c.57-.33,1.55-.29,2.22.1l6.06,3.5c.65.37.73.94.16,1.27l-6.39,3.69c-.57.33-1.56.29-2.22-.09l-6.07-3.5ZM659.39,464.43c-.65-.37-.73-.94-.16-1.27l6.4-3.69c.57-.33,1.55-.29,2.21.09l6.07,3.51c.65.37.73.94.16,1.27l-6.39,3.69c-.57.33-1.56.29-2.22-.09l-6.07-3.51ZM661.47,484.21c-.65-.39-.73-.95-.16-1.29l6.4-3.69c.57-.33,1.55-.29,2.21.09l6.07,3.51c.65.37.73.94.16,1.27l-6.39,3.69c-.57.33-1.56.29-2.22-.09l-6.07-3.5ZM677.56,474.91c-.65-.37-.73-.94-.16-1.27l6.4-3.69c.56-.33,1.55-.29,2.21.09l6.07,3.51c.65.37.73.94.16,1.27l-6.4,3.69c-.57.33-1.55.29-2.21-.09l-6.07-3.51Z"/>
        <path class="cls-4" d="M562.7,518.88c-.57.33-.49.9.16,1.29l6.06,3.5c.66.37,1.65.42,2.22.09l6.39-3.69c.57-.32.5-.9-.15-1.27l-6.07-3.5c-.65-.39-1.65-.42-2.22-.1l-6.39,3.69Z"/>
        <path class="cls-4" d="M578.79,509.59c-.57.33-.5.9.15,1.29l6.07,3.5c.65.37,1.65.42,2.22.09l6.39-3.69c.57-.32.5-.9-.16-1.27l-6.06-3.5c-.66-.39-1.65-.43-2.22-.1l-6.39,3.69Z"/>
        <path class="cls-4" d="M580.87,529.37c-.57.33-.5.9.15,1.29l6.07,3.5c.65.37,1.65.42,2.22.09l6.39-3.69c.57-.32.49-.9-.16-1.27l-6.06-3.5c-.66-.39-1.65-.42-2.22-.1l-6.39,3.69Z"/>
        <path class="cls-4" d="M594.87,500.31c-.57.33-.49.9.16,1.29l6.07,3.5c.65.37,1.65.42,2.22.09l6.39-3.69c.57-.33.49-.9-.16-1.27l-6.07-3.5c-.65-.39-1.64-.43-2.21-.1l-6.4,3.69Z"/>
        <path class="cls-4" d="M596.95,520.08c-.57.33-.49.9.16,1.29l6.07,3.5c.65.37,1.65.42,2.21.09l6.4-3.69c.57-.32.49-.9-.16-1.27l-6.07-3.5c-.65-.39-1.64-.43-2.21-.1l-6.4,3.69Z"/>
        <path class="cls-4" d="M610.97,491.02c-.57.33-.49.9.16,1.29l6.07,3.5c.65.37,1.64.42,2.21.09l6.4-3.69c.57-.33.49-.9-.16-1.27l-6.07-3.5c-.65-.39-1.65-.43-2.21-.1l-6.4,3.69Z"/>
        <path class="cls-4" d="M613.04,510.79c-.57.33-.49.9.16,1.29l6.07,3.5c.65.37,1.64.42,2.21.09l6.4-3.69c.57-.33.49-.9-.16-1.27l-6.07-3.5c-.65-.39-1.65-.43-2.22-.1l-6.39,3.69Z"/>
        <path class="cls-8" d="M613.89,530.77c-1.76,1.01,2.26,2.19,6.22,4.79,1.74.97,3.02-.52,3.75-.8.13-.07,49.26-28.44,61.98-35.78.01,0,.01-.01.02-.01l.05-.03s-.01.01,0,0c.03-.02.06-.03.08-.04s.04-.02.07-.04c.08-.05.15-.1.22-.13l.06-.04c.11-.06.21-.12.31-.18.06-.03.14-.07.22-.13l.07-.04h.02c.17-.11.33-.2.48-.29.05-.02.11-.05.16-.09l.04-.03s.01,0,.02-.01c.15-.09.28-.16.4-.24l.17-.1c.1-.05.18-.11.26-.14h.01s.03-.03.05-.04.04-.02.05-.03c1.91-1.36,5.43-2.27,3.49-3.37-4.5-2.29-6.51-4.62-8.28-3.6-.09.04-3.37,1.93-5.21,3.01h0s.05-.03-.12.07c-.02,0-.03.01-.05.02.11-.06-.03.02-.48.28-.04.02-.09.05-.12.07-.05.03-.12.06-.18.1,0,0,0,.01-.01.01-.04.02-.09.04-.13.07l-.05.03s-.03.02-.04.02c-.12.07-.33.2-.42.25-.1.06-.32.18-.34.19l-.03.02c-.09.04-.16.1-.25.14h-.01s-.06.04-.06.04l-.14.09s-.05.02-.09.04c-.04.03-.09.05-.12.07-.04.02-.07.04-.12.06l-61.98,35.78Z"/>
        <path class="cls-4" d="M627.06,481.73c-.57.33-.49.9.16,1.29l6.06,3.5c.66.37,1.65.42,2.22.09l6.39-3.69c.57-.33.5-.9-.15-1.27l-6.07-3.51c-.65-.37-1.65-.42-2.22-.09l-6.39,3.69Z"/>
        <path class="cls-4" d="M629.14,501.51c-.57.33-.49.9.16,1.29l6.06,3.5c.66.37,1.65.42,2.22.09l6.39-3.69c.57-.33.5-.9-.15-1.27l-6.07-3.5c-.65-.39-1.65-.43-2.22-.1l-6.39,3.69Z"/>
        <path class="cls-4" d="M643.15,472.44c-.57.33-.5.9.16,1.29l6.06,3.5c.65.37,1.65.42,2.22.09l6.39-3.69c.57-.33.5-.9-.16-1.27l-6.06-3.51c-.65-.37-1.65-.42-2.22-.09l-6.39,3.69Z"/>
        <path class="cls-4" d="M645.23,492.22c-.57.33-.5.9.15,1.29l6.07,3.5c.65.37,1.65.42,2.22.09l6.39-3.69c.57-.33.49-.9-.16-1.27l-6.06-3.5c-.66-.39-1.65-.43-2.22-.1l-6.39,3.69Z"/>
        <path class="cls-4" d="M659.23,463.15c-.57.33-.49.9.16,1.27l6.07,3.51c.65.37,1.65.42,2.22.09l6.39-3.69c.57-.33.49-.9-.16-1.27l-6.07-3.51c-.65-.37-1.64-.42-2.21-.09l-6.4,3.69Z"/>
        <path class="cls-4" d="M661.31,482.93c-.57.33-.49.9.16,1.29l6.07,3.5c.65.37,1.65.42,2.22.09l6.39-3.69c.57-.33.49-.9-.16-1.27l-6.07-3.51c-.65-.37-1.64-.42-2.21-.09l-6.4,3.69Z"/>
        <path class="cls-4" d="M675.91,494.96s-.03.02-.04.03c.04-.02.07-.04.12-.06l-.07.03Z"/>
        <path class="cls-4" d="M675.91,494.96l.07-.03.03-.03s-.07.05-.11.06Z"/>
        <path class="cls-4" d="M676.02,494.89l-.03.03s.07-.04.12-.07l-.09.04Z"/>
        <path class="cls-4" d="M676.11,494.85s.06-.03.09-.04l-.09.04Z"/>
        <path class="cls-4" d="M677.4,473.64c-.57.33-.49.9.16,1.27l6.07,3.51c.65.37,1.64.42,2.21.09l6.4-3.69c.57-.33.49-.9-.16-1.27l-6.07-3.51c-.65-.37-1.65-.42-2.21-.09l-6.4,3.69Z"/>
        <path class="cls-4" d="M678.64,493.39c-.05.03-.12.06-.17.1.02-.01.03-.02.05-.02.17-.11.12-.07.12-.07Z"/>
        <path class="cls-4" d="M685.99,498.89s-.05.02-.08.04c.01,0,.02-.01.04-.01l.04-.03Z"/>
        <path class="cls-4" d="M686.29,498.72c-.07.03-.15.07-.22.13.03-.01.05-.03.1-.05l.13-.07Z"/>
        <path class="cls-4" d="M686.36,498.68s.06-.03.11-.05l.2-.13c-.1.06-.2.12-.31.18Z"/>
        <path class="cls-4" d="M686.99,498.31c.09-.04.17-.1.27-.15l.21-.13c-.15.09-.31.18-.48.28Z"/>
        <path class="cls-4" d="M687.7,497.91c.12-.06.25-.14.37-.21l.02-.02c-.12.07-.25.15-.4.24Z"/>
        <path class="cls-4" d="M688.09,497.67l-.02.02c.06-.04.13-.07.19-.12l-.17.1Z"/>
        <path class="cls-4" d="M688.27,497.57c.09-.04.17-.1.26-.14-.07.03-.16.09-.26.14Z"/>
        <path class="cls-4" d="M688.64,497.36c.05-.03.1-.05.13-.06-.03.01-.07.03-.13.06Z"/>
      </g>
      <g>
        <path class="cls-2" d="M530.15,516.3l-.33.19c-.3.18-.45.42-.45.66,0,.3.21.62.64.87l85.73,49.5c.78.45,1.97.5,2.65.11l131.93-76.16c.3-.17.45-.41.45-.66"/>
        <path class="cls-2" d="M750.77,490.81c0-.3-.21-.62-.64-.86l-85.73-49.5c-.79-.46-1.97-.5-2.65-.12"/>
        <path class="cls-2" d="M530.15,516.3c.05-.02.11-.05.16-.09l131.92-76.16c.69-.39,1.12-1.29,1-1.98l-16.9-90.5c-.14-.71-.79-.96-1.47-.58l-131.93,76.16c-.67.4-1.11,1.29-.99,1.99l16.9,90.5c.12.65.68.91,1.31.65Z"/>
        <path class="cls-2" d="M676.11,494.85s-.09.05-.12.07c-.04.02-.07.04-.12.06"/>
        <path class="cls-2" d="M678.46,493.49s.03-.02.05-.02c.17-.11.12-.07.12-.07"/>
        <line class="cls-2" x1="676.11" y1="494.85" x2="676.19" y2="494.81"/>
        <polyline class="cls-2" points="675.91 494.96 675.99 494.93 676.02 494.89"/>
        <path class="cls-2" d="M676.02,494.89s-.07.05-.11.06c-.02.01-.03.02-.04.03"/>
        <line class="cls-2" x1="676.02" y1="494.89" x2="676.11" y2="494.85"/>
        <path class="cls-2" d="M678.64,493.39c-.05.03-.12.06-.17.1.11-.06-.03.02-.48.28-.04.02-.09.05-.12.07-.05.03-.12.06-.18.1,0,0,0,.01-.01.01-.04.02-.09.04-.13.07l-.05.03s-.03.02-.04.02c-.12.07-.33.2-.42.25-.1.06-.32.18-.34.19l-.03.02c-.09.04-.16.1-.25.14h-.01s-.06.04-.06.04l-.14.09s-.05.02-.09.04"/>
        <path class="cls-2" d="M678.64,493.39h0c1.84-1.08,5.13-2.97,5.21-3.01,1.77-1.02,3.78,1.31,8.28,3.6,1.94,1.1-1.59,2.01-3.49,3.37"/>
        <path class="cls-2" d="M688.82,497.25s-.01.01-.04.03h-.01s-.07.04-.13.07"/>
        <path class="cls-2" d="M688.64,497.36c.05-.03.1-.05.13-.06"/>
        <path class="cls-2" d="M688.27,497.57c.1-.05.18-.11.26-.14"/>
        <path class="cls-2" d="M687.7,497.91c.15-.09.28-.16.4-.24"/>
        <path class="cls-2" d="M686.99,498.31c.17-.1.33-.19.48-.28"/>
        <path class="cls-2" d="M686.36,498.68c.11-.06.21-.12.31-.18"/>
        <path class="cls-2" d="M686.07,498.85c.07-.05.15-.1.22-.13"/>
        <path class="cls-2" d="M685.92,498.93s.06-.03.08-.04l-.08.04Z"/>
        <polyline class="cls-2" points="688.27 497.57 688.09 497.67 688.07 497.69"/>
        <path class="cls-2" d="M688.64,497.36s-.03.02-.05.03-.04.02-.05.03h-.01"/>
        <path class="cls-2" d="M688.52,497.43c-.09.04-.17.1-.26.14"/>
        <path class="cls-2" d="M688.07,497.69c.06-.04.13-.07.19-.12"/>
        <path class="cls-2" d="M688.07,497.69c-.13.07-.26.15-.37.21"/>
        <path class="cls-2" d="M687.7,497.91s-.01.01-.02.01l-.04.03c-.05.03-.11.06-.16.09"/>
        <path class="cls-2" d="M687.47,498.03l-.21.13c-.1.05-.18.11-.27.15"/>
        <path class="cls-2" d="M686.99,498.31h-.01s-.01.01-.01.01l-.07.04c-.09.05-.16.1-.22.13"/>
        <path class="cls-2" d="M686.67,498.49l-.2.13s-.07.04-.11.05"/>
        <line class="cls-2" x1="686.36" y1="498.68" x2="686.29" y2="498.72"/>
        <path class="cls-2" d="M686.29,498.72l-.13.07s-.06.04-.1.05"/>
        <path class="cls-2" d="M686.07,498.85s-.05.03-.07.04l.07-.04Z"/>
        <path class="cls-2" d="M685.99,498.89l-.04.03s-.02.01-.04.01l.08-.04Z"/>
        <path class="cls-2" d="M685.92,498.93s0,0,0,0l-.05.03s-.01.01-.02.01c-12.72,7.34-61.85,35.71-61.98,35.78-.73.28-2.01,1.78-3.75.8-3.96-2.6-7.98-3.78-6.22-4.79l61.98-35.78"/>
        <path class="cls-2" d="M685.84,478.51l6.4-3.69c.57-.33.49-.9-.16-1.27l-6.07-3.51c-.65-.37-1.65-.42-2.21-.09l-6.4,3.69c-.57.33-.49.9.16,1.27l6.07,3.51c.65.37,1.64.42,2.21.09Z"/>
        <path class="cls-2" d="M669.76,487.8l6.39-3.69c.57-.33.49-.9-.16-1.27l-6.07-3.51c-.65-.37-1.64-.42-2.21-.09l-6.4,3.69c-.57.33-.49.9.16,1.29l6.07,3.5c.65.37,1.65.42,2.22.09Z"/>
        <path class="cls-2" d="M653.67,497.09l6.39-3.69c.57-.33.49-.9-.16-1.27l-6.06-3.5c-.66-.39-1.65-.43-2.22-.1l-6.39,3.69c-.57.33-.5.9.15,1.29l6.07,3.5c.65.37,1.65.42,2.22.09Z"/>
        <path class="cls-2" d="M637.58,506.38l6.39-3.69c.57-.33.5-.9-.15-1.27l-6.07-3.5c-.65-.39-1.65-.43-2.22-.1l-6.39,3.69c-.57.33-.49.9.16,1.29l6.06,3.5c.66.37,1.65.42,2.22.09Z"/>
        <path class="cls-2" d="M621.49,515.67l6.4-3.69c.57-.33.49-.9-.16-1.27l-6.07-3.5c-.65-.39-1.65-.43-2.22-.1l-6.39,3.69c-.57.33-.49.9.16,1.29l6.07,3.5c.65.37,1.64.42,2.21.09Z"/>
        <path class="cls-2" d="M605.4,524.96l6.4-3.69c.57-.32.49-.9-.16-1.27l-6.07-3.5c-.65-.39-1.64-.43-2.21-.1l-6.4,3.69c-.57.33-.49.9.16,1.29l6.07,3.5c.65.37,1.65.42,2.21.09Z"/>
        <path class="cls-2" d="M589.31,534.25l6.39-3.69c.57-.32.49-.9-.16-1.27l-6.06-3.5c-.66-.39-1.65-.42-2.22-.1l-6.39,3.69c-.57.33-.5.9.15,1.29l6.07,3.5c.65.37,1.65.42,2.22.09Z"/>
        <path class="cls-2" d="M667.68,468.02l6.39-3.69c.57-.33.49-.9-.16-1.27l-6.07-3.51c-.65-.37-1.64-.42-2.21-.09l-6.4,3.69c-.57.33-.49.9.16,1.27l6.07,3.51c.65.37,1.65.42,2.22.09Z"/>
        <path class="cls-2" d="M651.59,477.31l6.39-3.69c.57-.33.5-.9-.16-1.27l-6.06-3.51c-.65-.37-1.65-.42-2.22-.09l-6.39,3.69c-.57.33-.5.9.16,1.29l6.06,3.5c.65.37,1.65.42,2.22.09Z"/>
        <path class="cls-2" d="M635.5,486.6l6.39-3.69c.57-.33.5-.9-.15-1.27l-6.07-3.51c-.65-.37-1.65-.42-2.22-.09l-6.39,3.69c-.57.33-.49.9.16,1.29l6.06,3.5c.66.37,1.65.42,2.22.09Z"/>
        <path class="cls-2" d="M619.41,495.89l6.4-3.69c.57-.33.49-.9-.16-1.27l-6.07-3.5c-.65-.39-1.65-.43-2.21-.1l-6.4,3.69c-.57.33-.49.9.16,1.29l6.07,3.5c.65.37,1.64.42,2.21.09Z"/>
        <path class="cls-2" d="M603.33,505.18l6.39-3.69c.57-.33.49-.9-.16-1.27l-6.07-3.5c-.65-.39-1.64-.43-2.21-.1l-6.4,3.69c-.57.33-.49.9.16,1.29l6.07,3.5c.65.37,1.65.42,2.22.09Z"/>
        <path class="cls-2" d="M587.24,514.47l6.39-3.69c.57-.32.5-.9-.16-1.27l-6.06-3.5c-.66-.39-1.65-.43-2.22-.1l-6.39,3.69c-.57.33-.5.9.15,1.29l6.07,3.5c.65.37,1.65.42,2.22.09Z"/>
        <path class="cls-2" d="M571.14,523.76l6.39-3.69c.57-.32.5-.9-.15-1.27l-6.07-3.5c-.65-.39-1.65-.42-2.22-.1l-6.39,3.69c-.57.33-.49.9.16,1.29l6.06,3.5c.66.37,1.65.42,2.22.09Z"/>
        <path class="cls-2" d="M750.77,490.81v7.09c0,.25-.15.48-.45.66l-131.93,76.16c-.67.39-1.86.34-2.65-.12l-85.73-49.5c-.43-.25-.64-.56-.64-.86v-7.09"/>
      </g>
    </g>
    <g>
      <g>
        <path class="cls-4" d="M298.98,543.29c-.67.4-1.11,1.29-.99,1.99l16.9,90.5c.12.65.68.91,1.31.65.05-.02.11-.05.16-.09l131.92-76.16c.69-.39,1.12-1.29,1-1.98l-16.9-90.5c-.14-.71-.79-.96-1.47-.58l-131.93,76.16Z" style="fill: rgb(26, 56, 106);"/>
        <path class="cls-8" d="M315.41,637.29v7.09c0,.3.21.61.64.86l85.73,49.5c.78.46,1.97.5,2.65.12l131.93-76.16c.3-.18.45-.42.45-.66v-7.09c0,.25-.15.49-.45.66l-131.93,76.16c-.67.4-1.86.34-2.65-.11l-85.73-49.5c-.43-.25-.64-.57-.64-.87Z"/>
        <path class="cls-9" d="M474.81,617.43s-.07.03-.13.06c-.01.01-.03.02-.05.03s-.04.02-.05.03h-.01c-.09.05-.17.11-.26.15-.06.04-.13.07-.19.12-.13.07-.26.15-.37.21t-.02.01l-.04.03c-.05.03-.11.06-.16.09l-.21.13c-.1.05-.18.11-.27.15h-.01s-.01.01-.01.01l-.07.04c-.09.05-.16.1-.22.13l-.2.13s-.07.04-.11.05l-.06.04-.13.07s-.06.04-.1.05c-.03.02-.05.03-.07.04l-.04.03s-.02.01-.04.01c-.01.01,0,0,0,0l-.05.03s-.01.01-.02.01c-12.72,7.34-61.85,35.71-61.98,35.78-.73.28-2.01,1.78-3.75.8-3.96-2.6-7.98-3.78-6.22-4.79l61.98-35.78s.02-.02.04-.03c.03-.01.06-.03.11-.06l.17-.09.14-.09.06-.03h.01c.09-.05.16-.11.25-.15l.03-.02s.05-.03.07-.04c.07-.04.17-.09.27-.15.09-.05.3-.17.42-.25.01,0,.02-.01.04-.02l.05-.03s.09-.05.13-.07c.01,0,.01-.01.01-.01.06-.03.13-.06.18-.1.03-.02.07-.05.12-.07.45-.26.59-.34.48-.28.05-.03.12-.06.17-.1h0c1.84-1.08,5.13-2.97,5.21-3.01,1.77-1.02,3.78,1.31,8.28,3.6,1.94,1.1-1.59,2.01-3.49,3.37.05-.03.1-.05.13-.06ZM315.86,636.63c-.3.18-.45.42-.45.66,0,.3.21.62.64.87l85.73,49.5c.78.45,1.97.5,2.65.11l131.93-76.16c.3-.17.45-.41.45-.66,0-.3-.21-.62-.64-.86l-85.73-49.5c-.79-.46-1.97-.5-2.65-.12l-131.44,75.88c-.05.03-.11.06-.16.09l-.33.19ZM348.9,640.3c-.65-.39-.73-.95-.16-1.29l6.39-3.69c.57-.32,1.56-.29,2.22.1l6.07,3.5c.65.37.72.95.15,1.27l-6.39,3.69c-.57.33-1.55.29-2.22-.09l-6.06-3.5ZM364.99,631.01c-.65-.39-.72-.95-.15-1.29l6.39-3.69c.57-.33,1.55-.29,2.22.1l6.06,3.5c.66.37.73.95.16,1.27l-6.39,3.69c-.57.33-1.56.29-2.22-.09l-6.07-3.5ZM367.06,650.79c-.65-.39-.72-.95-.15-1.29l6.39-3.69c.57-.32,1.55-.29,2.22.1l6.06,3.5c.65.37.73.95.16,1.27l-6.39,3.69c-.57.33-1.56.29-2.22-.09l-6.07-3.5ZM381.08,621.72c-.65-.39-.73-.95-.16-1.29l6.4-3.69c.57-.33,1.55-.29,2.21.1l6.07,3.5c.65.37.73.94.16,1.27l-6.39,3.69c-.57.33-1.56.29-2.22-.09l-6.07-3.5ZM383.16,641.5c-.65-.39-.73-.95-.16-1.29l6.4-3.69c.57-.33,1.55-.29,2.21.1l6.07,3.5c.65.37.73.95.16,1.27l-6.4,3.69c-.56.33-1.55.29-2.21-.09l-6.07-3.5ZM397.17,612.43c-.65-.39-.73-.95-.16-1.29l6.4-3.69c.56-.33,1.55-.29,2.21.1l6.07,3.5c.65.37.73.94.16,1.27l-6.4,3.69c-.57.33-1.55.29-2.21-.09l-6.07-3.5ZM399.25,632.21c-.65-.39-.73-.95-.16-1.29l6.39-3.69c.57-.33,1.56-.29,2.22.1l6.07,3.5c.65.37.73.94.16,1.27l-6.4,3.69c-.57.33-1.55.29-2.21-.09l-6.07-3.5ZM413.26,603.15c-.65-.39-.73-.95-.16-1.29l6.39-3.69c.57-.33,1.56-.29,2.22.09l6.07,3.51c.65.37.72.94.15,1.27l-6.39,3.69c-.57.33-1.55.29-2.22-.09l-6.06-3.5ZM415.34,622.92c-.65-.39-.73-.95-.16-1.29l6.39-3.69c.57-.33,1.56-.29,2.22.1l6.07,3.5c.65.37.72.94.15,1.27l-6.39,3.69c-.57.33-1.55.29-2.22-.09l-6.06-3.5ZM429.35,593.86c-.66-.39-.73-.95-.16-1.29l6.39-3.69c.57-.33,1.56-.29,2.22.09l6.06,3.51c.66.37.73.94.16,1.27l-6.39,3.69c-.57.33-1.56.29-2.22-.09l-6.06-3.5ZM431.42,613.63c-.65-.39-.72-.95-.15-1.29l6.39-3.69c.57-.33,1.55-.29,2.22.1l6.06,3.5c.65.37.73.94.16,1.27l-6.39,3.69c-.57.33-1.56.29-2.22-.09l-6.07-3.5ZM445.43,584.56c-.65-.37-.73-.94-.16-1.27l6.4-3.69c.57-.33,1.55-.29,2.21.09l6.07,3.51c.65.37.73.94.16,1.27l-6.39,3.69c-.57.33-1.56.29-2.22-.09l-6.07-3.51ZM447.51,604.35c-.65-.39-.73-.95-.16-1.29l6.4-3.69c.57-.33,1.55-.29,2.21.09l6.07,3.51c.65.37.73.94.16,1.27l-6.39,3.69c-.57.33-1.56.29-2.22-.09l-6.07-3.5ZM463.6,595.05c-.65-.37-.73-.94-.16-1.27l6.4-3.69c.56-.33,1.55-.29,2.21.09l6.07,3.51c.65.37.73.94.16,1.27l-6.4,3.69c-.57.33-1.55.29-2.21-.09l-6.07-3.51Z"/>
        <path class="cls-4" d="M348.74,639.01c-.57.33-.49.9.16,1.29l6.06,3.5c.66.37,1.65.42,2.22.09l6.39-3.69c.57-.32.5-.9-.15-1.27l-6.07-3.5c-.65-.39-1.65-.42-2.22-.1l-6.39,3.69Z"/>
        <path class="cls-4" d="M364.84,629.73c-.57.33-.5.9.15,1.29l6.07,3.5c.65.37,1.65.42,2.22.09l6.39-3.69c.57-.32.5-.9-.16-1.27l-6.06-3.5c-.66-.39-1.65-.43-2.22-.1l-6.39,3.69Z"/>
        <path class="cls-4" d="M366.91,649.5c-.57.33-.5.9.15,1.29l6.07,3.5c.65.37,1.65.42,2.22.09l6.39-3.69c.57-.32.49-.9-.16-1.27l-6.06-3.5c-.66-.39-1.65-.42-2.22-.1l-6.39,3.69Z"/>
        <path class="cls-4" d="M380.92,620.44c-.57.33-.49.9.16,1.29l6.07,3.5c.65.37,1.65.42,2.22.09l6.39-3.69c.57-.33.49-.9-.16-1.27l-6.07-3.5c-.65-.39-1.64-.43-2.21-.1l-6.4,3.69Z"/>
        <path class="cls-4" d="M383,640.21c-.57.33-.49.9.16,1.29l6.07,3.5c.65.37,1.65.42,2.21.09l6.4-3.69c.57-.32.49-.9-.16-1.27l-6.07-3.5c-.65-.39-1.64-.43-2.21-.1l-6.4,3.69Z"/>
        <path class="cls-4" d="M397.01,611.15c-.57.33-.49.9.16,1.29l6.07,3.5c.65.37,1.64.42,2.21.09l6.4-3.69c.57-.33.49-.9-.16-1.27l-6.07-3.5c-.65-.39-1.65-.43-2.21-.1l-6.4,3.69Z"/>
        <path class="cls-4" d="M399.09,630.93c-.57.33-.49.9.16,1.29l6.07,3.5c.65.37,1.64.42,2.21.09l6.4-3.69c.57-.33.49-.9-.16-1.27l-6.07-3.5c-.65-.39-1.65-.43-2.22-.1l-6.39,3.69Z"/>
        <path class="cls-8" d="M399.93,650.91c-1.76,1.01,2.26,2.19,6.22,4.79,1.74.97,3.02-.52,3.75-.8.13-.07,49.26-28.44,61.98-35.78.01,0,.01-.01.02-.01l.05-.03s-.01.01,0,0c.03-.02.06-.03.08-.04s.04-.02.07-.04c.08-.05.15-.1.22-.13l.06-.04c.11-.06.21-.12.31-.18.06-.03.14-.07.22-.13l.07-.04h.02c.17-.11.33-.2.48-.29.05-.02.11-.05.16-.09l.04-.03s.01,0,.02-.01c.15-.09.28-.16.4-.24l.17-.1c.1-.05.18-.11.26-.14h.01s.03-.03.05-.04.04-.02.05-.03c1.91-1.36,5.43-2.27,3.49-3.37-4.5-2.29-6.51-4.62-8.28-3.6-.09.04-3.37,1.93-5.21,3.01h0s.05-.03-.12.07c-.02,0-.03.01-.05.02.11-.06-.03.02-.48.28-.04.02-.09.05-.12.07-.05.03-.12.06-.18.1,0,0,0,.01-.01.01-.04.02-.09.04-.13.07l-.05.03s-.03.02-.04.02c-.12.07-.33.2-.42.25-.1.06-.32.18-.34.19l-.03.02c-.09.04-.16.1-.25.14h-.01s-.06.04-.06.04l-.14.09s-.05.02-.09.04c-.04.03-.09.05-.12.07-.04.02-.07.04-.12.06l-61.98,35.78Z"/>
        <path class="cls-4" d="M413.1,601.86c-.57.33-.49.9.16,1.29l6.06,3.5c.66.37,1.65.42,2.22.09l6.39-3.69c.57-.33.5-.9-.15-1.27l-6.07-3.51c-.65-.37-1.65-.42-2.22-.09l-6.39,3.69Z"/>
        <path class="cls-4" d="M415.18,621.64c-.57.33-.49.9.16,1.29l6.06,3.5c.66.37,1.65.42,2.22.09l6.39-3.69c.57-.33.5-.9-.15-1.27l-6.07-3.5c-.65-.39-1.65-.43-2.22-.1l-6.39,3.69Z"/>
        <path class="cls-4" d="M429.19,592.57c-.57.33-.5.9.16,1.29l6.06,3.5c.65.37,1.65.42,2.22.09l6.39-3.69c.57-.33.5-.9-.16-1.27l-6.06-3.51c-.65-.37-1.65-.42-2.22-.09l-6.39,3.69Z"/>
        <path class="cls-4" d="M431.27,612.35c-.57.33-.5.9.15,1.29l6.07,3.5c.65.37,1.65.42,2.22.09l6.39-3.69c.57-.33.49-.9-.16-1.27l-6.06-3.5c-.66-.39-1.65-.43-2.22-.1l-6.39,3.69Z"/>
        <path class="cls-4" d="M445.27,583.28c-.57.33-.49.9.16,1.27l6.07,3.51c.65.37,1.65.42,2.22.09l6.39-3.69c.57-.33.49-.9-.16-1.27l-6.07-3.51c-.65-.37-1.64-.42-2.21-.09l-6.4,3.69Z"/>
        <path class="cls-4" d="M447.35,603.06c-.57.33-.49.9.16,1.29l6.07,3.5c.65.37,1.65.42,2.22.09l6.39-3.69c.57-.33.49-.9-.16-1.27l-6.07-3.51c-.65-.37-1.64-.42-2.21-.09l-6.4,3.69Z"/>
        <path class="cls-4" d="M461.96,615.09s-.03.02-.04.03c.04-.02.07-.04.12-.06l-.07.03Z"/>
        <path class="cls-4" d="M461.96,615.09l.07-.03.03-.03s-.07.05-.11.06Z"/>
        <path class="cls-4" d="M462.06,615.03l-.03.03s.07-.04.12-.07l-.09.04Z"/>
        <path class="cls-4" d="M462.15,614.98s.06-.03.09-.04l-.09.04Z"/>
        <path class="cls-4" d="M463.44,593.77c-.57.33-.49.9.16,1.27l6.07,3.51c.65.37,1.64.42,2.21.09l6.4-3.69c.57-.33.49-.9-.16-1.27l-6.07-3.51c-.65-.37-1.65-.42-2.21-.09l-6.4,3.69Z"/>
        <path class="cls-4" d="M464.68,613.53c-.05.03-.12.06-.17.1.02-.01.03-.02.05-.02.17-.11.12-.07.12-.07Z"/>
        <path class="cls-4" d="M472.04,619.02s-.05.02-.08.04c.01,0,.02-.01.04-.01l.04-.03Z"/>
        <path class="cls-4" d="M472.34,618.85c-.07.03-.15.07-.22.13.03-.01.05-.03.1-.05l.13-.07Z"/>
        <path class="cls-4" d="M472.4,618.81s.06-.03.11-.05l.2-.13c-.1.06-.2.12-.31.18Z"/>
        <path class="cls-4" d="M473.03,618.44c.09-.04.17-.1.27-.15l.21-.13c-.15.09-.31.18-.48.28Z"/>
        <path class="cls-4" d="M473.74,618.04c.12-.06.25-.14.37-.21l.02-.02c-.12.07-.25.15-.4.24Z"/>
        <path class="cls-4" d="M474.14,617.8l-.02.02c.06-.04.13-.07.19-.12l-.17.1Z"/>
        <path class="cls-4" d="M474.31,617.71c.09-.04.17-.1.26-.14-.07.03-.16.09-.26.14Z"/>
        <path class="cls-4" d="M474.68,617.49c.05-.03.1-.05.13-.06-.03.01-.07.03-.13.06Z"/>
      </g>
      <g>
        <path class="cls-2" d="M316.2,636.43l-.33.19c-.3.18-.45.42-.45.66,0,.3.21.62.64.87l85.73,49.5c.78.45,1.97.5,2.65.11l131.93-76.16c.3-.17.45-.41.45-.66"/>
        <path class="cls-2" d="M536.81,610.94c0-.3-.21-.62-.64-.86l-85.73-49.5c-.79-.46-1.97-.5-2.65-.12"/>
        <path class="cls-2" d="M316.2,636.43c.05-.02.11-.05.16-.09l131.92-76.16c.69-.39,1.12-1.29,1-1.98l-16.9-90.5c-.14-.71-.79-.96-1.47-.58l-131.93,76.16c-.67.4-1.11,1.29-.99,1.99l16.9,90.5c.12.65.68.91,1.31.65Z"/>
        <path class="cls-2" d="M462.15,614.98s-.09.05-.12.07c-.04.02-.07.04-.12.06"/>
        <path class="cls-2" d="M464.5,613.62s.03-.02.05-.02c.17-.11.12-.07.12-.07"/>
        <line class="cls-2" x1="462.15" y1="614.98" x2="462.23" y2="614.94"/>
        <polyline class="cls-2" points="461.96 615.09 462.03 615.06 462.06 615.03"/>
        <path class="cls-2" d="M462.06,615.03s-.07.05-.11.06c-.02.01-.03.02-.04.03"/>
        <line class="cls-2" x1="462.06" y1="615.03" x2="462.15" y2="614.98"/>
        <path class="cls-2" d="M464.68,613.53c-.05.03-.12.06-.17.1.11-.06-.03.02-.48.28-.04.02-.09.05-.12.07-.05.03-.12.06-.18.1,0,0,0,.01-.01.01-.04.02-.09.04-.13.07l-.05.03s-.03.02-.04.02c-.12.07-.33.2-.42.25-.1.06-.32.18-.34.19l-.03.02c-.09.04-.16.1-.25.14h-.01s-.06.04-.06.04l-.14.09s-.05.02-.09.04"/>
        <path class="cls-2" d="M464.68,613.53h0c1.84-1.08,5.13-2.97,5.21-3.01,1.77-1.02,3.78,1.31,8.28,3.6,1.94,1.1-1.59,2.01-3.49,3.37"/>
        <path class="cls-2" d="M474.87,617.38s-.01.01-.04.03h-.01s-.07.04-.13.07"/>
        <path class="cls-2" d="M474.68,617.49c.05-.03.1-.05.13-.06"/>
        <path class="cls-2" d="M474.31,617.71c.1-.05.18-.11.26-.14"/>
        <path class="cls-2" d="M473.74,618.04c.15-.09.28-.16.4-.24"/>
        <path class="cls-2" d="M473.03,618.44c.17-.1.33-.19.48-.28"/>
        <path class="cls-2" d="M472.4,618.81c.11-.06.21-.12.31-.18"/>
        <path class="cls-2" d="M472.11,618.98c.07-.05.15-.1.22-.13"/>
        <path class="cls-2" d="M471.96,619.07s.06-.03.08-.04l-.08.04Z"/>
        <polyline class="cls-2" points="474.31 617.71 474.14 617.8 474.12 617.82"/>
        <path class="cls-2" d="M474.68,617.49s-.03.02-.05.03-.04.02-.05.03h-.01"/>
        <path class="cls-2" d="M474.57,617.57c-.09.04-.17.1-.26.14"/>
        <path class="cls-2" d="M474.12,617.82c.06-.04.13-.07.19-.12"/>
        <path class="cls-2" d="M474.12,617.82c-.13.07-.26.15-.37.21"/>
        <path class="cls-2" d="M473.74,618.04s-.01.01-.02.01l-.04.03c-.05.03-.11.06-.16.09"/>
        <path class="cls-2" d="M473.52,618.17l-.21.13c-.1.05-.18.11-.27.15"/>
        <path class="cls-2" d="M473.03,618.44h-.01s-.01.01-.01.01l-.07.04c-.09.05-.16.1-.22.13"/>
        <path class="cls-2" d="M472.71,618.63l-.2.13s-.07.04-.11.05"/>
        <line class="cls-2" x1="472.4" y1="618.81" x2="472.34" y2="618.85"/>
        <path class="cls-2" d="M472.34,618.85l-.13.07s-.06.04-.1.05"/>
        <path class="cls-2" d="M472.11,618.98s-.05.03-.07.04l.07-.04Z"/>
        <path class="cls-2" d="M472.04,619.02l-.04.03s-.02.01-.04.01l.08-.04Z"/>
        <path class="cls-2" d="M471.96,619.07s0,0,0,0l-.05.03s-.01.01-.02.01c-12.72,7.34-61.85,35.71-61.98,35.78-.73.28-2.01,1.78-3.75.8-3.96-2.6-7.98-3.78-6.22-4.79l61.98-35.78"/>
        <path class="cls-2" d="M471.89,598.65l6.4-3.69c.57-.33.49-.9-.16-1.27l-6.07-3.51c-.65-.37-1.65-.42-2.21-.09l-6.4,3.69c-.57.33-.49.9.16,1.27l6.07,3.51c.65.37,1.64.42,2.21.09Z"/>
        <path class="cls-2" d="M455.81,607.93l6.39-3.69c.57-.33.49-.9-.16-1.27l-6.07-3.51c-.65-.37-1.64-.42-2.21-.09l-6.4,3.69c-.57.33-.49.9.16,1.29l6.07,3.5c.65.37,1.65.42,2.22.09Z"/>
        <path class="cls-2" d="M439.71,617.22l6.39-3.69c.57-.33.49-.9-.16-1.27l-6.06-3.5c-.66-.39-1.65-.43-2.22-.1l-6.39,3.69c-.57.33-.5.9.15,1.29l6.07,3.5c.65.37,1.65.42,2.22.09Z"/>
        <path class="cls-2" d="M423.62,626.51l6.39-3.69c.57-.33.5-.9-.15-1.27l-6.07-3.5c-.65-.39-1.65-.43-2.22-.1l-6.39,3.69c-.57.33-.49.9.16,1.29l6.06,3.5c.66.37,1.65.42,2.22.09Z"/>
        <path class="cls-2" d="M407.53,635.8l6.4-3.69c.57-.33.49-.9-.16-1.27l-6.07-3.5c-.65-.39-1.65-.43-2.22-.1l-6.39,3.69c-.57.33-.49.9.16,1.29l6.07,3.5c.65.37,1.64.42,2.21.09Z"/>
        <path class="cls-2" d="M391.44,645.09l6.4-3.69c.57-.32.49-.9-.16-1.27l-6.07-3.5c-.65-.39-1.64-.43-2.21-.1l-6.4,3.69c-.57.33-.49.9.16,1.29l6.07,3.5c.65.37,1.65.42,2.21.09Z"/>
        <path class="cls-2" d="M375.36,654.38l6.39-3.69c.57-.32.49-.9-.16-1.27l-6.06-3.5c-.66-.39-1.65-.42-2.22-.1l-6.39,3.69c-.57.33-.5.9.15,1.29l6.07,3.5c.65.37,1.65.42,2.22.09Z"/>
        <path class="cls-2" d="M453.73,588.16l6.39-3.69c.57-.33.49-.9-.16-1.27l-6.07-3.51c-.65-.37-1.64-.42-2.21-.09l-6.4,3.69c-.57.33-.49.9.16,1.27l6.07,3.51c.65.37,1.65.42,2.22.09Z"/>
        <path class="cls-2" d="M437.64,597.45l6.39-3.69c.57-.33.5-.9-.16-1.27l-6.06-3.51c-.65-.37-1.65-.42-2.22-.09l-6.39,3.69c-.57.33-.5.9.16,1.29l6.06,3.5c.65.37,1.65.42,2.22.09Z"/>
        <path class="cls-2" d="M421.54,606.73l6.39-3.69c.57-.33.5-.9-.15-1.27l-6.07-3.51c-.65-.37-1.65-.42-2.22-.09l-6.39,3.69c-.57.33-.49.9.16,1.29l6.06,3.5c.66.37,1.65.42,2.22.09Z"/>
        <path class="cls-2" d="M405.45,616.02l6.4-3.69c.57-.33.49-.9-.16-1.27l-6.07-3.5c-.65-.39-1.65-.43-2.21-.1l-6.4,3.69c-.57.33-.49.9.16,1.29l6.07,3.5c.65.37,1.64.42,2.21.09Z"/>
        <path class="cls-2" d="M389.37,625.31l6.39-3.69c.57-.33.49-.9-.16-1.27l-6.07-3.5c-.65-.39-1.64-.43-2.21-.1l-6.4,3.69c-.57.33-.49.9.16,1.29l6.07,3.5c.65.37,1.65.42,2.22.09Z"/>
        <path class="cls-2" d="M373.28,634.6l6.39-3.69c.57-.32.5-.9-.16-1.27l-6.06-3.5c-.66-.39-1.65-.43-2.22-.1l-6.39,3.69c-.57.33-.5.9.15,1.29l6.07,3.5c.65.37,1.65.42,2.22.09Z"/>
        <path class="cls-2" d="M357.19,643.89l6.39-3.69c.57-.32.5-.9-.15-1.27l-6.07-3.5c-.65-.39-1.65-.42-2.22-.1l-6.39,3.69c-.57.33-.49.9.16,1.29l6.06,3.5c.66.37,1.65.42,2.22.09Z"/>
        <path class="cls-2" d="M536.81,610.94v7.09c0,.25-.15.48-.45.66l-131.93,76.16c-.67.39-1.86.34-2.65-.12l-85.73-49.5c-.43-.25-.64-.56-.64-.86v-7.09"/>
      </g>
    </g>
    <g>
      <g id="server-4" data-name="server">
        <g>
          <path class="cls-4" d="M205.82,386.04v.15c-.06,2.4-1.68,4.79-4.86,6.63l-52.82,30.49c-6.49,3.73-16.99,3.73-23.48,0l-52.83-30.49c-3.24-1.88-4.86-4.33-4.86-6.78s1.62-4.9,4.86-6.78l52.83-30.5c6.48-3.73,16.98-3.73,23.48,0l52.82,30.5c3.25,1.88,4.86,4.33,4.86,6.78ZM158.93,386.09v-.05c0-.8-.52-1.59-1.58-2.21l-17.14-9.9c-.82-.47-1.85-.76-2.91-.86-1.66-.16-3.43.12-4.71.86l-17.15,9.9c-1.06.62-1.58,1.4-1.58,2.21s.52,1.59,1.58,2.19l17.15,9.9c1.28.75,3.05,1.04,4.71.87,1.07-.1,2.09-.39,2.91-.87l17.14-9.9c1.04-.59,1.56-1.36,1.58-2.14Z"/>
          <path class="cls-7" d="M205.82,469.25v21.53c0,2.46-1.62,4.91-4.86,6.78l-52.82,30.49c-6.49,3.75-16.99,3.75-23.48,0l-52.83-30.49c-3.24-1.87-4.86-4.32-4.86-6.78v-21.68c0,2.45,1.62,4.9,4.86,6.77l52.83,30.5c6.48,3.73,16.98,3.73,23.48,0l52.82-30.5c3.18-1.83,4.8-4.22,4.86-6.61Z" style="fill: rgb(254, 254, 255);"/>
          <path class="cls-5" d="M205.82,469.1v.15c-.06,2.4-1.68,4.79-4.86,6.61l-52.82,30.5c-6.49,3.73-16.99,3.73-23.48,0l-52.83-30.5c-3.24-1.87-4.86-4.32-4.86-6.77s1.62-4.9,4.86-6.78l5.45-3.15,47.38,27.35c6.48,3.75,16.98,3.75,23.48,0l47.37-27.35,5.45,3.15c3.25,1.88,4.86,4.32,4.86,6.78Z" style="fill: rgb(26, 56, 106);"/>
          <path class="cls-7" d="M205.82,427.72v21.54c0,2.45-1.62,4.91-4.86,6.78l-52.82,30.49c-6.49,3.75-16.99,3.75-23.48,0l-52.83-30.49c-3.24-1.87-4.86-4.33-4.86-6.78v-21.69c0,2.46,1.62,4.9,4.86,6.78l52.83,30.49c6.48,3.74,16.98,3.74,23.48,0l52.82-30.49c3.18-1.83,4.8-4.23,4.86-6.63Z" style="fill: rgb(255, 255, 255);"/>
          <path class="cls-5" d="M205.82,427.56v.15c-.06,2.4-1.68,4.8-4.86,6.63l-52.82,30.49c-6.49,3.74-16.99,3.74-23.48,0l-52.83-30.49c-3.24-1.88-4.86-4.32-4.86-6.78s1.62-4.9,4.86-6.77l5.45-3.15,47.38,27.35c6.48,3.74,16.98,3.74,23.48,0l47.37-27.35,5.45,3.15c3.25,1.87,4.86,4.32,4.86,6.77Z" style="fill: rgb(26, 56, 106);"/>
          <path class="cls-7" d="M205.82,386.19v21.54c0,2.45-1.62,4.9-4.86,6.77l-52.82,30.5c-6.49,3.74-16.99,3.74-23.48,0l-52.83-30.5c-3.24-1.87-4.86-4.32-4.86-6.77v-21.69c0,2.45,1.62,4.9,4.86,6.78l52.83,30.49c6.48,3.73,16.98,3.73,23.48,0l52.82-30.49c3.18-1.84,4.8-4.23,4.86-6.63Z"/>
          <path class="cls-10" d="M158.93,386.04v.05c-.02.78-.54,1.55-1.58,2.14l-17.14,9.9c-.82.48-1.85.77-2.91.87v-25.93c1.07.1,2.09.39,2.91.86l17.14,9.9c1.06.62,1.58,1.4,1.58,2.21Z"/>
          <path class="cls-6" d="M137.31,373.07v25.93c-1.66.16-3.43-.12-4.71-.87l-17.15-9.9c-1.06-.61-1.58-1.4-1.58-2.19s.52-1.59,1.58-2.21l17.15-9.9c1.28-.74,3.05-1.03,4.71-.86Z"/>
        </g>
        <g>
          <path class="cls-3" d="M205.82,469.25c-.06,2.4-1.68,4.79-4.86,6.61l-52.82,30.5c-6.49,3.73-16.99,3.73-23.48,0l-52.83-30.5c-3.24-1.87-4.86-4.32-4.86-6.77s1.62-4.9,4.86-6.78l5.45-3.15"/>
          <path class="cls-3" d="M195.52,459.17l5.45,3.15c3.25,1.88,4.86,4.32,4.86,6.78v21.68c0,2.46-1.62,4.91-4.86,6.78l-52.82,30.49c-6.49,3.75-16.99,3.75-23.48,0l-52.83-30.49c-3.24-1.87-4.86-4.32-4.86-6.78v-21.68"/>
          <path class="cls-3" d="M205.82,427.72c-.06,2.4-1.68,4.8-4.86,6.63l-52.82,30.49c-6.49,3.74-16.99,3.74-23.48,0l-52.83-30.49c-3.24-1.88-4.86-4.32-4.86-6.78s1.62-4.9,4.86-6.77l5.45-3.15"/>
          <path class="cls-3" d="M195.52,417.65l5.45,3.15c3.25,1.87,4.86,4.32,4.86,6.77v21.69c0,2.45-1.62,4.91-4.86,6.78l-52.82,30.49c-6.49,3.75-16.99,3.75-23.48,0l-52.83-30.49c-3.24-1.87-4.86-4.33-4.86-6.78v-21.69"/>
          <path class="cls-3" d="M205.82,386.19c-.06,2.4-1.68,4.79-4.86,6.63l-52.82,30.49c-6.49,3.73-16.99,3.73-23.48,0l-52.83-30.49c-3.24-1.88-4.86-4.33-4.86-6.78s1.62-4.9,4.86-6.78l52.83-30.5c6.48-3.73,16.98-3.73,23.48,0l52.82,30.5c3.25,1.88,4.86,4.33,4.86,6.78"/>
          <path class="cls-3" d="M205.82,386.04v21.69c0,2.45-1.62,4.9-4.86,6.77l-52.82,30.5c-6.49,3.74-16.99,3.74-23.48,0l-52.83-30.5c-3.24-1.87-4.86-4.32-4.86-6.77v-21.69"/>
          <path class="cls-3" d="M158.93,386.09c-.02.78-.54,1.55-1.58,2.14l-17.14,9.9c-.82.48-1.85.77-2.91.87-1.66.16-3.43-.12-4.71-.87l-17.15-9.9c-1.06-.61-1.58-1.4-1.58-2.19s.52-1.59,1.58-2.21l17.15-9.9c1.28-.74,3.05-1.02,4.71-.86,1.07.1,2.09.39,2.91.86l17.14,9.9c1.06.62,1.58,1.4,1.58,2.21v.05Z"/>
          <line class="cls-3" x1="137.31" y1="373.07" x2="137.31" y2="399"/>
        </g>
      </g>
      <g id="server-5" data-name="server">
        <g>
          <path class="cls-4" d="M207.22,310.77v.15c-.11,2.4-1.77,4.76-4.98,6.54l-53.34,29.56c-6.56,3.62-17.06,3.44-23.47-.41l-52.29-31.41c-3.21-1.93-4.78-4.41-4.74-6.86.04-2.45,1.71-4.87,4.98-6.69l53.35-29.57c6.55-3.62,17.05-3.44,23.47.41l52.28,31.42c3.22,1.93,4.78,4.41,4.74,6.86ZM160.34,310.01v-.05c.01-.8-.49-1.6-1.54-2.23l-16.96-10.19c-.81-.49-1.83-.79-2.9-.91-1.66-.19-3.43.06-4.72.78l-17.32,9.6c-1.07.6-1.6,1.38-1.62,2.18s.5,1.6,1.54,2.22l16.97,10.19c1.27.77,3.03,1.09,4.69.95,1.07-.08,2.1-.35,2.93-.82l17.31-9.6c1.05-.58,1.58-1.34,1.62-2.12Z"/>
          <path class="cls-7" d="M205.77,393.97l-.38,21.52c-.04,2.46-1.71,4.88-4.98,6.69l-53.34,29.56c-6.56,3.64-17.06,3.46-23.47-.41l-52.29-31.41c-3.21-1.92-4.79-4.4-4.74-6.86l.38-21.68c-.04,2.45,1.53,4.93,4.74,6.85l52.29,31.42c6.42,3.85,16.92,4.03,23.47.41l53.34-29.57c3.21-1.77,4.87-4.13,4.98-6.53Z" style="fill: rgb(255, 255, 255);"/>
          <path class="cls-5" d="M205.77,393.82v.15c-.11,2.4-1.77,4.76-4.98,6.53l-53.34,29.57c-6.56,3.62-17.06,3.44-23.47-.41l-52.29-31.42c-3.21-1.92-4.79-4.4-4.74-6.85s1.71-4.87,4.98-6.69l5.5-3.05,46.9,28.17c6.42,3.87,16.92,4.05,23.47.41l47.84-26.52,5.39,3.24c3.22,1.93,4.79,4.4,4.74,6.86Z" style="fill: rgb(26, 56, 106);"/>
          <path class="cls-7" d="M206.5,352.45l-.38,21.53c-.04,2.45-1.71,4.88-4.98,6.69l-53.34,29.56c-6.56,3.64-17.06,3.46-23.47-.41l-52.29-31.41c-3.21-1.92-4.78-4.41-4.74-6.86l.38-21.69c-.04,2.46,1.53,4.93,4.74,6.86l52.29,31.41c6.42,3.86,16.92,4.04,23.47.41l53.34-29.56c3.21-1.77,4.87-4.14,4.98-6.54Z" style="fill: rgb(252, 254, 255);"/>
          <path class="cls-5" d="M206.5,352.29v.15c-.11,2.4-1.77,4.77-4.98,6.54l-53.34,29.56c-6.56,3.63-17.06,3.45-23.47-.41l-52.29-31.41c-3.21-1.93-4.79-4.4-4.74-6.86s1.71-4.87,4.98-6.68l5.5-3.05,46.9,28.17c6.42,3.86,16.92,4.04,23.47.41l47.84-26.52,5.39,3.24c3.22,1.92,4.79,4.4,4.74,6.85Z" style="fill: rgb(26, 56, 106);"/>
          <path class="cls-7" d="M207.22,310.93l-.38,21.53c-.04,2.45-1.71,4.87-4.98,6.68l-53.34,29.57c-6.56,3.63-17.06,3.45-23.47-.41l-52.29-31.42c-3.21-1.92-4.79-4.4-4.74-6.85l.38-21.69c-.04,2.45,1.53,4.93,4.74,6.86l52.29,31.41c6.42,3.85,16.92,4.03,23.47.41l53.34-29.56c3.21-1.78,4.87-4.14,4.98-6.54Z"/>
          <path class="cls-10" d="M160.34,309.95v.05c-.04.78-.57,1.54-1.62,2.12l-17.31,9.6c-.83.47-1.86.74-2.93.82l.45-25.92c1.06.12,2.08.43,2.9.91l16.96,10.19c1.05.63,1.55,1.43,1.54,2.23Z"/>
          <path class="cls-6" d="M138.94,296.62l-.45,25.92c-1.66.14-3.42-.18-4.69-.95l-16.97-10.19c-1.05-.62-1.55-1.43-1.54-2.22s.55-1.58,1.62-2.18l17.32-9.6c1.29-.72,3.06-.97,4.72-.78Z"/>
        </g>
        <g>
          <path class="cls-3" d="M205.77,393.97c-.1,2.4-1.77,4.76-4.98,6.53l-53.34,29.57c-6.56,3.62-17.06,3.44-23.47-.41l-52.29-31.42c-3.21-1.92-4.79-4.4-4.74-6.85s1.71-4.87,4.98-6.69l5.5-3.05"/>
          <path class="cls-3" d="M 195.64 383.72 L 201.03 386.96 C 204.25 388.89 205.82 391.36 205.77 393.82 L 205.39 415.5 C 205.35 417.96 203.68 420.38 200.41 422.19 L 147.07 451.75 C 147.07 451.75 130.01 455.21 123.6 451.34 L 71.31 419.93 C 68.1 418.01 66.52 415.53 66.57 413.07 L 66.95 391.39"/>
          <path class="cls-3" d="M206.5,352.45c-.1,2.4-1.77,4.77-4.98,6.54l-53.34,29.56c-6.56,3.63-17.06,3.45-23.47-.41l-52.29-31.41c-3.21-1.93-4.79-4.4-4.74-6.86s1.71-4.87,4.98-6.68l5.5-3.05"/>
          <path class="cls-3" d="M196.37,342.2l5.39,3.24c3.22,1.92,4.79,4.4,4.74,6.85l-.38,21.69c-.04,2.45-1.71,4.88-4.98,6.69l-53.34,29.56c-6.56,3.64-17.06,3.46-23.47-.41l-52.29-31.41c-3.21-1.92-4.78-4.41-4.74-6.86l.38-21.69"/>
          <path class="cls-3" d="M207.22,310.93c-.1,2.4-1.77,4.76-4.98,6.54l-53.34,29.56c-6.56,3.62-17.06,3.44-23.47-.41l-52.29-31.41c-3.21-1.93-4.78-4.41-4.74-6.86.04-2.45,1.71-4.87,4.98-6.69l53.35-29.57c6.55-3.62,17.05-3.44,23.47.41l52.28,31.42c3.22,1.93,4.78,4.41,4.74,6.86"/>
          <path class="cls-3" d="M207.22,310.77l-.38,21.69c-.04,2.45-1.71,4.87-4.98,6.68l-53.34,29.57c-6.56,3.63-17.06,3.45-23.47-.41l-52.29-31.42c-3.21-1.92-4.79-4.4-4.74-6.85l.38-21.69"/>
          <path class="cls-3" d="M160.34,310.01c-.03.78-.57,1.54-1.62,2.12l-17.31,9.6c-.83.47-1.86.74-2.93.82-1.66.13-3.42-.18-4.69-.95l-16.97-10.19c-1.05-.62-1.55-1.43-1.54-2.22s.55-1.58,1.62-2.18l17.32-9.6c1.29-.72,3.06-.97,4.72-.78,1.06.12,2.08.43,2.9.91l16.96,10.19c1.05.63,1.55,1.43,1.54,2.23v.05Z"/>
          <line class="cls-3" x1="138.94" y1="296.62" x2="138.49" y2="322.54"/>
        </g>
      </g>
      <g id="server-6" data-name="server">
        <g>
          <path class="cls-4" d="M210.18,235.56v.15c-.15,2.4-1.85,4.73-5.09,6.45l-53.85,28.63c-6.62,3.5-17.11,3.14-23.46-.82l-51.73-32.32c-3.17-1.99-4.71-4.49-4.62-6.94.09-2.45,1.79-4.84,5.09-6.61l53.86-28.64c6.61-3.5,17.1-3.14,23.46.82l51.72,32.33c3.18,1.99,4.71,4.49,4.62,6.94ZM163.31,233.98v-.05c.03-.8-.47-1.61-1.5-2.26l-16.78-10.49c-.8-.5-1.82-.82-2.88-.96-1.65-.22-3.43,0-4.73.7l-17.48,9.29c-1.08.58-1.63,1.35-1.66,2.15s.47,1.61,1.5,2.25l16.79,10.49c1.26.79,3.01,1.14,4.67,1.04,1.07-.07,2.1-.32,2.94-.77l17.47-9.29c1.06-.56,1.61-1.31,1.65-2.09Z"/>
          <path class="cls-7" d="M207.27,318.72l-.75,21.51c-.09,2.46-1.79,4.85-5.09,6.61l-53.85,28.63c-6.62,3.52-17.11,3.16-23.46-.82l-51.73-32.32c-3.17-1.98-4.71-4.48-4.62-6.94l.76-21.67c-.09,2.45,1.45,4.96,4.62,6.93l51.73,32.33c6.35,3.96,16.84,4.32,23.46.82l53.85-28.64c3.24-1.71,4.94-4.05,5.09-6.44Z" style="fill: rgb(255, 255, 255);"/>
          <path class="cls-5" d="M207.28,318.57v.15c-.15,2.4-1.85,4.73-5.09,6.44l-53.85,28.64c-6.62,3.5-17.11,3.14-23.46-.82l-51.73-32.33c-3.17-1.98-4.71-4.48-4.62-6.93s1.79-4.84,5.09-6.61l5.55-2.96,46.4,28.99c6.35,3.98,16.84,4.34,23.46.82l48.3-25.68,5.33,3.34c3.18,1.99,4.71,4.48,4.62,6.94Z" style="fill: rgb(26, 56, 106);"/>
          <path class="cls-7" d="M208.72,277.21l-.75,21.52c-.09,2.45-1.79,4.85-5.09,6.61l-53.85,28.63c-6.62,3.52-17.11,3.16-23.46-.82l-51.73-32.32c-3.17-1.98-4.71-4.49-4.62-6.94l.76-21.68c-.09,2.46,1.45,4.96,4.62,6.94l51.73,32.32c6.35,3.97,16.84,4.33,23.46.82l53.85-28.63c3.24-1.71,4.94-4.06,5.09-6.45Z" style="fill: rgb(252, 254, 255);"/>
          <path class="cls-5" d="M208.73,277.06v.15c-.15,2.4-1.85,4.74-5.09,6.45l-53.85,28.63c-6.62,3.51-17.11,3.15-23.46-.82l-51.73-32.32c-3.17-1.99-4.71-4.48-4.62-6.94.09-2.45,1.79-4.84,5.09-6.59l5.55-2.96,46.4,28.99c6.35,3.97,16.84,4.33,23.46.82l48.3-25.68,5.33,3.34c3.18,1.98,4.71,4.48,4.62,6.93Z" style="fill: rgb(26, 56, 106);"/>
          <path class="cls-7" d="M210.17,235.71l-.75,21.52c-.09,2.45-1.79,4.84-5.09,6.6l-53.85,28.64c-6.62,3.51-17.11,3.15-23.46-.82l-51.73-32.33c-3.17-1.98-4.71-4.48-4.62-6.93l.76-21.68c-.09,2.45,1.45,4.96,4.62,6.94l51.73,32.32c6.35,3.96,16.84,4.32,23.46.82l53.85-28.63c3.24-1.72,4.94-4.06,5.09-6.45Z" style="fill: rgb(254, 254, 255);"/>
          <path class="cls-10" d="M163.32,233.92v.05c-.05.78-.6,1.53-1.66,2.09l-17.47,9.29c-.84.45-1.87.7-2.94.77l.9-25.91c1.06.14,2.08.46,2.88.96l16.78,10.49c1.03.65,1.53,1.46,1.5,2.26Z"/>
          <path class="cls-6" d="M142.15,220.21l-.9,25.91c-1.67.11-3.42-.24-4.67-1.04l-16.79-10.49c-1.03-.64-1.53-1.46-1.5-2.25s.58-1.57,1.66-2.15l17.48-9.29c1.31-.69,3.08-.92,4.73-.7Z"/>
        </g>
        <g>
          <path class="cls-3" d="M207.27,318.72c-.15,2.4-1.85,4.73-5.09,6.44l-53.85,28.64c-6.62,3.5-17.11,3.14-23.46-.82l-51.73-32.33c-3.17-1.98-4.71-4.48-4.62-6.93s1.79-4.84,5.09-6.61l5.55-2.96"/>
          <path class="cls-3" d="M197.32,308.29l5.33,3.34c3.18,1.99,4.71,4.48,4.62,6.94l-.76,21.67c-.09,2.46-1.79,4.85-5.09,6.61l-53.85,28.63c-6.62,3.52-17.11,3.16-23.46-.82l-51.73-32.32c-3.17-1.98-4.71-4.48-4.62-6.94l.76-21.67"/>
          <path class="cls-3" d="M208.72,277.21c-.15,2.4-1.85,4.74-5.09,6.45l-53.85,28.63c-6.62,3.51-17.11,3.15-23.46-.82l-51.73-32.32c-3.17-1.99-4.71-4.48-4.62-6.94.09-2.45,1.79-4.84,5.09-6.59l5.55-2.96"/>
          <path class="cls-3" d="M198.77,266.79l5.33,3.34c3.18,1.98,4.71,4.48,4.62,6.93l-.76,21.68c-.09,2.45-1.79,4.85-5.09,6.61l-53.85,28.63c-6.62,3.52-17.11,3.16-23.46-.82l-51.73-32.32c-3.17-1.98-4.71-4.49-4.62-6.94l.76-21.68"/>
          <path class="cls-3" d="M210.17,235.71c-.15,2.4-1.85,4.73-5.09,6.45l-53.85,28.63c-6.62,3.5-17.11,3.14-23.46-.82l-51.73-32.32c-3.17-1.99-4.71-4.49-4.62-6.94.09-2.45,1.79-4.84,5.09-6.61l53.86-28.64c6.61-3.5,17.1-3.14,23.46.82l51.72,32.33c3.18,1.99,4.71,4.49,4.62,6.94"/>
          <path class="cls-3" d="M210.18,235.56l-.76,21.68c-.09,2.45-1.79,4.84-5.09,6.6l-53.85,28.64c-6.62,3.51-17.11,3.15-23.46-.82l-51.73-32.33c-3.17-1.98-4.71-4.48-4.62-6.93l.76-21.68"/>
          <path class="cls-3" d="M163.31,233.98c-.05.78-.6,1.53-1.65,2.09l-17.47,9.29c-.84.45-1.87.7-2.94.77-1.67.1-3.42-.24-4.67-1.04l-16.79-10.49c-1.03-.64-1.53-1.46-1.5-2.25s.58-1.57,1.66-2.15l17.48-9.29c1.31-.69,3.08-.92,4.73-.7,1.06.14,2.08.46,2.88.96l16.78,10.49c1.03.65,1.53,1.46,1.5,2.26v.05Z"/>
          <line class="cls-3" x1="142.15" y1="220.21" x2="141.25" y2="246.12"/>
        </g>
      </g>
    </g>
  </g>
</svg>