<?xml version="1.0" encoding="utf-8"?>
<svg id="Layer_1" data-name="Layer 1" viewBox="0 0 800 800" xmlns="http://www.w3.org/2000/svg">
  <defs>
    <style>
      .cls-1 {
        stroke-dasharray: 0 0 1.18 2.35;
      }

      .cls-1, .cls-2, .cls-3, .cls-4, .cls-5, .cls-6, .cls-7, .cls-8, .cls-9, .cls-10, .cls-11, .cls-12, .cls-13, .cls-14, .cls-15, .cls-16, .cls-17, .cls-18, .cls-19, .cls-20, .cls-21, .cls-22, .cls-23, .cls-24, .cls-25, .cls-26, .cls-27 {
        stroke: #3a3a3a;
      }

      .cls-1, .cls-3, .cls-4, .cls-5, .cls-6, .cls-7, .cls-8, .cls-9, .cls-11, .cls-12, .cls-13, .cls-14, .cls-15, .cls-18, .cls-19, .cls-21, .cls-22, .cls-23, .cls-24, .cls-27 {
        stroke-linecap: round;
        stroke-linejoin: round;
      }

      .cls-1, .cls-7, .cls-11, .cls-28, .cls-19, .cls-25 {
        fill: #fff;
      }

      .cls-2, .cls-10, .cls-16, .cls-17, .cls-20, .cls-25, .cls-26 {
        stroke-miterlimit: 10;
      }

      .cls-2, .cls-29, .cls-27 {
        fill: #969a9e;
      }

      .cls-30, .cls-31, .cls-28, .cls-32, .cls-33, .cls-29 {
        stroke-width: 0px;
      }

      .cls-30, .cls-6, .cls-16 {
        fill: #b584ed;
      }

      .cls-3, .cls-32, .cls-26 {
        fill: #3a3a3a;
      }

      .cls-4 {
        stroke-dasharray: 0 0 1.14 2.28;
      }

      .cls-4, .cls-8, .cls-9, .cls-12, .cls-13, .cls-14, .cls-18, .cls-21, .cls-23, .cls-24 {
        fill: none;
      }

      .cls-5, .cls-33 {
        fill: #c2c7cc;
      }

      .cls-31, .cls-15 {
        fill: #e7eef2;
      }

      .cls-34 {
        isolation: isolate;
      }

      .cls-8 {
        stroke-dasharray: 0 0 2.82 5.65;
      }

      .cls-9 {
        stroke-dasharray: 0 0 1.16 2.33;
      }

      .cls-10 {
        opacity: .1;
      }

      .cls-11 {
        stroke-dasharray: 0 0 1.17 2.34;
      }

      .cls-12 {
        stroke-dasharray: 0 0 1.17 2.34;
      }

      .cls-13 {
        stroke-dasharray: 0 0 1.14 2.29;
      }

      .cls-14 {
        stroke-dasharray: 0 0 1.17 2.35;
      }

      .cls-17 {
        fill: #373a3a;
      }

      .cls-18 {
        stroke-dasharray: 0 0 2.99 5.98;
      }

      .cls-19 {
        stroke-dasharray: 0 0 1.17 2.34;
      }

      .cls-20 {
        fill: #dae0e5;
      }

      .cls-21 {
        stroke-dasharray: 0 0 2.14 4.27;
      }

      .cls-22 {
        fill: #eddff8;
      }

      .cls-24 {
        stroke-dasharray: 0 0 2.98 5.95;
      }
    </style>
  </defs>
  <g>
    <path class="cls-22" d="m35.34,386.98v21.86h.05c.72,12.4,9.5,24.28,23.04,33.4,73.6,49.55,155.18,90.02,231.91,134.54,35.43,20.55,66.83,43.21,109.22,43.21s73.81-22.66,109.22-43.21c77.3-44.85,154.61-89.69,231.91-134.54,5.57-3.17,11.21-7.25,15.3-12.23,6.14-7.47,8.66-14.55,8.63-21.17h.02v-21.86H35.34Z" style="fill: rgb(22, 50, 88);"/>
    <path class="cls-7" d="m741,424.92c-77.37,44.81-154.74,89.61-232.12,134.42-35.46,20.53-66.93,43.17-109.32,43.17-42.42,0-73.85-22.63-109.32-43.17-76.8-44.48-158.44-84.91-232.12-134.42-24.09-16.19-33.12-41.1-8.56-62.15,17.48-14.98,41.6-24.84,61.34-36.18,48.48-27.86,96.96-55.72,145.45-83.57,40.11-23.05,83.25-57.91,131.24-61.96,36.76-3.1,64.45,9.83,95.36,27.59,83.81,48.16,168.9,94.59,251.62,144.58,21.96,13.27,42.59,34.13,21.74,59.47-4.1,4.98-9.75,9.06-15.32,12.22h0Z"/>
  </g>
  <g>
    <g>
      <g>
        <path class="cls-6" d="m588.49,208.62l-1.89,5.47s7.66,4.32,16.2,6.8c8.54,2.48,13.63,2.88,15.16.99s-1.05-6.12-8.33-7.86-21.15-5.39-21.15-5.39Z" style="fill: rgb(22, 50, 88);"/>
        <path class="cls-6" d="m626.97,195.21c-4.6-2.33-7.79,2.95-10.13,8.1s-6.34,18.2-3.74,19.51c2.6,1.32,8.41-2.98,9.7-7.92,1.29-4.94,4.48-8.26,5.91-11.18s1.53-6.87-1.73-8.52Z" style="fill: rgb(22, 50, 88);"/>
        <path class="cls-7" d="m588.19,209.51s-.99.23-3.2-1.51-3.8-4.77-6.65-4.12c-3.48.79-5.38-.19-6.02,1.29-.64,1.48,1.52,3.18,4.08,4.52,2.56,1.35,5.96,2.89,10.56,3.39l1.23-3.57Z"/>
        <polygon class="cls-7" points="588.49 208.62 587.07 208.18 585.23 213.44 586.61 214.09 588.49 208.62"/>
      </g>
      <g>
        <path class="cls-27" d="m627.95,342.37l.8,7.53-4.09,1.34-.66-1.99s-2.44,3.09-8.09,3.93c-6,.89-10.31.48-10.31-.81s6.97-3.8,10-5.88c2.22-1.52,3.69-4.12,3.69-4.12h8.66Z"/>
        <path class="cls-27" d="m646.31,350.31s.51,3.15.51,5.51c0,2.65-1.59,7.56-6.2,7.56s-1.54-13.07-1.54-13.07h7.23Z"/>
        <path class="cls-7" d="m619.29,240.99v101.37s4.05,1.97,6.84,1.23c.72-.2,1.37-.59,1.82-1.23l8.48-101.37h-17.14Z"/>
        <path class="cls-7" d="m631.08,240.99l6.64,109.11c2.87,2.12,5.73,1.8,7.65,1.14,1.41-.48,2.31-1.14,2.31-1.14l1.42-109.11h-18.02Z"/>
      </g>
      <path class="cls-6" d="m619.79,248.56c2.8,6.13,16.62,7.35,24.68,6.33h.01c.91-.12,1.76-.25,2.5-.43,7.3-1.66,3.96-16.59,3.96-23.05,0-5.81,6.13-18.5,5.06-25.67-.12-.79-.32-1.52-.63-2.15-3.14-6.45-12.82-9.01-12.82-9.01l-12.64-1.11s-8.09,0-10.18,4.47c-2.44,5.24.07,18.93.07,27.41s-3.14,16.41,0,23.22Z" style="fill: rgb(22, 50, 88);"/>
      <polygon class="cls-7" points="642.54 194.58 641.98 200.2 633.43 201.44 630.4 193.44 631.28 183.38 641.17 183.56 642.54 194.58"/>
      <polygon class="cls-7" points="642.54 194.59 633.43 201.44 635.7 206.97 645.1 197.51 644.2 195.14 642.54 194.59"/>
      <polygon class="cls-7" points="633.43 201.44 630.4 193.44 628.38 193.56 627.81 195.48 628.28 204.75 633.43 201.44"/>
      <path class="cls-10" d="m644.48,254.89h.01c.91-.12,1.76-.25,2.5-.43,7.3-1.66,3.96-16.59,3.96-23.05,0-5.81,6.13-18.5,5.06-25.67-4.86-.4-9.3,12.29-10.89,23.22-1.6,10.92-3.13,25.88-.63,25.93Z"/>
      <path class="cls-7" d="m627.25,169.58s-2,3.23-2,7.83,0,14.73,4.65,14.73,10.37-2.11,13.23-4.97c0,0,2.6-6.15,2.6-8.82s-2.05-10.1-8.06-11.73c-7.62-2.06-9.53,1.06-10.41,2.95Z"/>
      <path class="cls-3" d="m643.14,187.18l-.53-.35c-.48-.32-.6-.96-.28-1.44.65-.97,1.64-2.6,1.94-4.04.46-2.21-.89-3.66-2.3-2-.88,1.04-1.56,2.16-1.8,2.81l-.64-.25c.51-1.42,1.37-5.58.55-7.94-.8-2.29-3.73,2.41-8.34,1.48-4.61-.92-6.47-2.68-6.47-2.68,0,0,1.23-9.56,11.24-9.56s10.94,9.89,10.94,13.46-2.18,8.32-4.3,10.51Z"/>
      <g>
        <path class="cls-7" d="m634.2,261.04c-.48-.37.44-2.37,2.74-4.27,1.28-1.06,3.47-.41,4.45-1.41.99-.99,1.99-2.2,1.99-2.2l3.87,2.94s-1.86,1.73-2.99,3.22c-1.13,1.49.62,2.19-2.79,5.7-2.71,2.8-6.18,2.25-7.44,1.15-1.22-1.07.33-2.89,2.09-4.73,1.76-1.84,1.68-2.79,1.68-2.79,0,0-2.68,3.09-3.6,2.39Z"/>
        <path class="cls-7" d="m642.63,252.97l-1.9,1.89s.6,1.94,2.44,3.32c1.53,1.15,3.26,1.17,3.26,1.17l1.53-2.02s-1.79-.73-3.16-1.83c-1.38-1.1-2.17-2.53-2.17-2.53Z"/>
        <path class="cls-6" d="m643.79,256.66c1.21.92,2.24,1.25,2.99,1.32.84.11,1.33-.1,1.33-.1,0,0,11.77-15.92,12.8-19.66,1.03-3.72-2.48-27.89-4.38-32.94-1.89-5.05-6.6-7.36-9.56-5.41-.28.19-.52.39-.72.63-3.23,3.52,1.18,14.4,2.35,19.33,1.24,5.25,2.57,15.51,2.57,15.51l-9.33,17.67s-.59,1.7,1.96,3.64Z" style="fill: rgb(22, 50, 88);"/>
      </g>
    </g>
    <g>
      <path class="cls-7" d="m581.73,210.42l4.67,33.3c.04.32-.11.46-.35.33l-33.42-19.29c-.24-.14-.46-.5-.51-.82l-4.67-33.3c-.04-.32.11-.46.35-.33l33.42,19.29c.24.14.46.5.51.82Z"/>
      <path class="cls-7" d="m624.87,270.95l4.67,33.3c.04.32-.11.46-.35.33l-33.42-19.29c-.24-.14-.46-.5-.51-.82l-4.67-33.3c-.04-.32.11-.46.35-.33l33.42,19.29c.24.14.46.5.51.82Z"/>
      <path class="cls-5" d="m587.17,249.18l4.67,33.3c.04.32-.11.46-.35.33l-33.42-19.29c-.24-.14-.46-.5-.51-.82l-4.67-33.3c-.04-.32.11-.46.35-.33l33.42,19.29c.24.14.46.5.51.82Z"/>
      <path class="cls-5" d="m619.43,232.19l4.67,33.3c.04.32-.11.46-.35.33l-33.42-19.29c-.24-.14-.46-.5-.51-.82l-4.67-33.3c-.04-.32.11-.46.35-.33l33.42,19.29c.24.14.46.5.51.82Z"/>
    </g>
  </g>
  <g>
    <g class="cls-34">
      <g>
        <polygon class="cls-30" points="447.23 282.3 446.79 295.22 313.16 372.87 313.61 359.96 447.23 282.3" style="fill: rgb(22, 50, 88);"/>
        <polygon class="cls-23" points="447.23 282.3 446.79 295.22 313.16 372.87 313.61 359.96 447.23 282.3"/>
      </g>
      <g>
        <polygon class="cls-29" points="313.61 359.96 313.16 372.87 178.66 295.22 179.11 282.3 313.61 359.96"/>
        <polygon class="cls-23" points="313.61 359.96 313.16 372.87 178.66 295.22 179.11 282.3 313.61 359.96"/>
      </g>
      <g>
        <polygon class="cls-28" points="447.23 282.3 313.61 359.96 179.11 282.3 312.73 204.65 447.23 282.3"/>
        <polygon class="cls-23" points="447.23 282.3 313.61 359.96 179.11 282.3 312.73 204.65 447.23 282.3"/>
      </g>
    </g>
    <g>
      <g class="cls-34">
        <polygon class="cls-7" points="340.48 159.48 340.26 261.21 309.92 278.84 310.14 177.11 340.48 159.48"/>
        <polygon class="cls-5" points="310.14 177.11 309.92 278.84 279.38 261.21 279.59 159.48 310.14 177.11"/>
        <polygon class="cls-15" points="340.48 159.48 310.14 177.11 279.59 159.48 309.94 141.84 340.48 159.48"/>
      </g>
      <g class="cls-34">
        <polygon class="cls-7" points="289.9 150.63 289.69 289.03 259.34 306.66 259.56 168.26 289.9 150.63"/>
        <polygon class="cls-5" points="259.56 168.26 259.34 306.66 228.8 289.03 229.02 150.63 259.56 168.26"/>
        <polygon class="cls-15" points="289.9 150.63 259.56 168.26 229.02 150.63 259.36 133 289.9 150.63"/>
      </g>
      <g class="cls-34">
        <polygon class="cls-7" points="397.1 190.14 396.88 291.87 366.54 309.5 366.75 207.77 397.1 190.14"/>
        <polygon class="cls-5" points="366.75 207.77 366.54 309.5 335.99 291.87 336.21 190.14 366.75 207.77"/>
        <polygon class="cls-15" points="397.1 190.14 366.75 207.77 336.21 190.14 366.55 172.5 397.1 190.14"/>
      </g>
      <g class="cls-34">
        <polygon class="cls-7" points="346.06 255.92 345.85 320.99 315.5 338.62 315.72 273.56 346.06 255.92"/>
        <polygon class="cls-5" points="315.72 273.56 315.5 338.62 284.96 320.99 285.18 255.92 315.72 273.56"/>
        <polygon class="cls-15" points="346.06 255.92 315.72 273.56 285.18 255.92 315.52 238.29 346.06 255.92"/>
      </g>
    </g>
  </g>
  <g>
    <g>
      <polygon class="cls-15" points="214.16 443.82 76.91 364.58 76.91 359.49 214.16 438.74 214.16 443.82"/>
      <polygon class="cls-6" points="214.16 443.82 305.66 390.99 305.66 385.91 214.16 438.74 214.16 443.82" style="fill: rgb(22, 50, 88);"/>
      <polygon class="cls-7" points="214.16 438.74 76.91 359.49 168.41 306.67 305.66 385.91 214.16 438.74"/>
    </g>
    <path class="cls-33" d="m112.19,355.82c-.35-.2-.55-.49-.5-.79.09-.55.92-.95,1.87-.9l43.81,2.28c.56.03,1.06.21,1.34.49l16.6,16.59,38.29-.72c.47,0,.92.09,1.26.28l20.51,11.5,41.29.42c.95,0,1.71.46,1.69,1.01-.02.55-.8.99-1.76.98l-41.97-.43c-.44,0-.86-.11-1.17-.28l-20.48-11.48-38.6.73c-.64.01-1.23-.18-1.55-.5l-16.67-16.66-42.92-2.23c-.42-.02-.79-.13-1.06-.29Z"/>
    <path class="cls-30" d="m116.78,353.17c-.35-.2-.55-.49-.5-.79.09-.55.92-.95,1.87-.9l48.65,2.59c.56.03,1.06.21,1.34.49l13.37,15.97,44.22-4.76c.47,0,.92.09,1.26.28l14.05,14.61,39.13,2.29c.95,0,1.71.46,1.69,1.01-.02.55-.8.99-1.76.98l-39.82-2.29c-.44,0-.86-.11-1.17-.28l-14.02-14.59-44.52,4.77c-.64.01-1.23-.18-1.55-.5l-13.44-16.04-47.76-2.54c-.42-.02-.79-.13-1.06-.29Z" style="fill: rgb(22, 50, 88);"/>
    <path class="cls-32" d="m146.37,368.29c-.16-.09-.29-.21-.38-.34l-15.4-22.65c-.35-.51.09-1.09.98-1.29.89-.2,1.89.05,2.24.56l14.77,21.72,52.54-11.81c.55-.12,1.17-.08,1.65.13.48.2.74.53.7.87l-3.11,26.36,46.7-7.82c.49-.08,1.02-.03,1.44.13.43.16.7.43.75.72l4.48,24.54c.1.55-.59,1.04-1.53,1.09-.95.06-1.8-.34-1.9-.89l-4.26-23.35-47.09,7.88c-.54.09-1.12.02-1.56-.18-.44-.2-.68-.52-.64-.84l3.09-26.22-51.61,11.6c-.66.15-1.38.05-1.85-.22Z"/>
    <path class="cls-29" d="m121.24,350.6c-.29-.17-.48-.4-.5-.65-.05-.55.68-1.02,1.63-1.05l45.8-1.38c.71-.02,1.37.21,1.66.58l13.52,17.07,35.78,3.88c.77.08,1.34.45,1.4.9l2.97,22.72,44.02-2.56c.95-.06,1.79.34,1.89.89.1.55-.6,1.04-1.54,1.09l-45.78,2.66c-.46.03-.92-.06-1.28-.23-.36-.18-.58-.42-.61-.69l-3.01-22.98-35.36-3.83c-.55-.06-1.02-.27-1.25-.56l-13.41-16.93-44.63,1.34c-.51.02-.98-.1-1.31-.29Z"/>
    <g>
      <g>
        <path class="cls-30" d="m133.18,383.07l-4.21-2.43c-.89-.51-.78-1.41.25-2.01l3.71-2.14c1.03-.59,2.59-.66,3.48-.14l4.21,2.43c.89.51.78,1.41-.25,2.01l-3.71,2.14c-1.03.59-2.59.66-3.48.14Z" style="fill: rgb(22, 50, 88);"/>
        <path class="cls-30" d="m151.07,390.54l-7.77-4.49c-.59-.34-.52-.94.17-1.34h0c.68-.4,1.72-.44,2.31-.1l7.77,4.49c.59.34.52.94-.17,1.34h0c-.68.4-1.72.44-2.31.1Z" style="fill: rgb(22, 50, 88);"/>
      </g>
      <g>
        <path class="cls-30" d="m103.69,366.05l-4.21-2.43c-.89-.51-.78-1.41.25-2.01l3.71-2.14c1.03-.59,2.59-.66,3.48-.14l4.21,2.43c.89.51.78,1.41-.25,2.01l-3.71,2.14c-1.03.59-2.59.66-3.48.14Z" style="fill: rgb(22, 50, 88);"/>
        <path class="cls-30" d="m121.59,373.52l-7.77-4.49c-.59-.34-.52-.94.17-1.34h0c.68-.4,1.72-.44,2.31-.1l7.77,4.49c.59.34.52.94-.17,1.34h0c-.68.4-1.72.44-2.31.1Z" style="fill: rgb(22, 50, 88);"/>
      </g>
      <g>
        <path class="cls-30" d="m162.66,400.09l-4.21-2.43c-.89-.51-.78-1.41.25-2.01l3.71-2.14c1.03-.59,2.59-.66,3.48-.14l4.21,2.43c.89.51.78,1.41-.25,2.01l-3.71,2.14c-1.03.59-2.59.66-3.48.14Z" style="fill: rgb(22, 50, 88);"/>
        <path class="cls-30" d="m180.56,407.56l-7.77-4.49c-.59-.34-.52-.94.17-1.34h0c.68-.4,1.72-.44,2.31-.1l7.77,4.49c.59.34.52.94-.17,1.34h0c-.68.4-1.72.44-2.31.1Z" style="fill: rgb(22, 50, 88);"/>
      </g>
      <g>
        <path class="cls-30" d="m192.14,417.11l-4.21-2.43c-.89-.51-.78-1.41.25-2.01l3.71-2.14c1.03-.59,2.59-.66,3.48-.14l4.21,2.43c.89.51.78,1.41-.25,2.01l-3.71,2.14c-1.03.59-2.59.66-3.48.14Z" style="fill: rgb(22, 50, 88);"/>
        <path class="cls-30" d="m210.04,424.58l-7.77-4.49c-.59-.34-.52-.94.17-1.34h0c.68-.4,1.72-.44,2.31-.1l7.77,4.49c.59.34.52.94-.17,1.34h0c-.68.4-1.72.44-2.31.1Z" style="fill: rgb(22, 50, 88);"/>
      </g>
    </g>
  </g>
  <g>
    <g>
      <polygon class="cls-15" points="499.93 511 318.36 406.17 318.36 399.44 499.93 504.27 499.93 511"/>
      <polygon class="cls-6" points="499.93 511 620.98 441.11 620.98 434.38 499.93 504.27 499.93 511" style="fill: rgb(22, 50, 88);"/>
      <polygon class="cls-7" points="499.93 504.27 318.36 399.44 439.41 329.55 620.98 434.38 499.93 504.27"/>
    </g>
    <g>
      <g>
        <path class="cls-15" d="m480.74,423.3l-20.17-11.65c11.14-6.43,11.13-16.87,0-23.3-5.57-3.22-12.87-4.82-20.18-4.82v-16.47c14.6,0,29.21,3.21,40.35,9.64,22.28,12.86,22.28,33.73,0,46.59Z" style="fill: rgba(9, 33, 70, 0.984);"/>
        <path class="cls-5" d="m420.21,388.36c-5.57,3.22-8.36,7.43-8.36,11.65h-28.53c0-8.43,5.57-16.87,16.71-23.3,11.14-6.43,25.74-9.64,40.34-9.64v16.47c-7.3,0-14.6,1.61-20.16,4.82Z" style="fill: rgb(22, 50, 88);"/>
        <path class="cls-27" d="m480.74,423.3c-10.95,6.32-25.26,9.54-39.6,9.64-14.85.11-29.76-3.11-41.09-9.65-5.51-3.18-9.66-6.85-12.45-10.77-2.83-4-4.27-8.26-4.27-12.52h28.54c-.01,2.13.7,4.26,2.13,6.27,1.4,1.95,3.46,3.78,6.22,5.38,5.75,3.32,13.37,4.93,20.92,4.82,7.05-.11,14.04-1.71,19.43-4.82l20.18,11.65Z" style="fill: rgba(138, 176, 226, 0.404);"/>
        <path class="cls-7" d="m480.74,423.3c-10.95,6.32-25.26,9.54-39.6,9.64v-16.48c7.05-.11,14.04-1.71,19.43-4.82l20.18,11.65Z"/>
      </g>
      <g>
        <g>
          <path class="cls-6" d="m528.22,423.76l-8.73-5.04c-.97-.56-.85-1.54.27-2.19l8.19-4.73c1.12-.65,2.82-.72,3.79-.16l8.73,5.04c.97.56.85,1.54-.27,2.19l-8.19,4.73c-1.12.65-2.82.72-3.79.16Z" style="fill: rgb(22, 50, 88);"/>
          <path class="cls-15" d="m564.97,440.26l-20.97-12.1c-.98-.56-.85-1.55.27-2.2h0c1.13-.65,2.83-.72,3.81-.16l20.97,12.1c.98.56.85,1.55-.27,2.2h0c-1.13.65-2.83.72-3.81.16Z"/>
        </g>
        <g>
          <path class="cls-6" d="m469.27,457.79l-8.73-5.04c-.97-.56-.85-1.54.27-2.19l8.19-4.73c1.12-.65,2.82-.72,3.79-.16l8.73,5.04c.97.56.85,1.54-.27,2.19l-8.19,4.73c-1.12.65-2.82.72-3.79.16Z" style="fill: rgb(22, 50, 88);"/>
          <path class="cls-15" d="m506.01,474.29l-20.97-12.1c-.98-.56-.85-1.55.27-2.2h0c1.13-.65,2.83-.72,3.81-.16l20.97,12.1c.98.56.85,1.55-.27,2.2h0c-1.13.65-2.83.72-3.81.16Z"/>
        </g>
        <g>
          <path class="cls-6" d="m508.57,435.1l-8.73-5.04c-.97-.56-.85-1.54.27-2.19l8.19-4.73c1.12-.65,2.82-.72,3.79-.16l8.73,5.04c.97.56.85,1.54-.27,2.19l-8.19,4.73c-1.12.65-2.82.72-3.79.16Z" style="fill: rgb(22, 50, 88);"/>
          <g>
            <path class="cls-31" d="m537.15,446.89l-12.8-7.39c-.98-.56-.85-1.55.27-2.2h0c1.13-.65,2.83-.72,3.81-.16l12.8,7.39c.98.56.85,1.55-.27,2.2h0c-1.13.65-2.83.72-3.81.16Z"/>
            <path class="cls-23" d="m537.15,446.89l-12.8-7.39c-.98-.56-.85-1.55.27-2.2h0c1.13-.65,2.83-.72,3.81-.16l12.8,7.39c.98.56.85,1.55-.27,2.2h0c-1.13.65-2.83.72-3.81.16Z"/>
          </g>
        </g>
        <g>
          <path class="cls-6" d="m488.92,446.45l-8.73-5.04c-.97-.56-.85-1.54.27-2.19l8.19-4.73c1.12-.65,2.82-.72,3.79-.16l8.73,5.04c.97.56.85,1.54-.27,2.19l-8.19,4.73c-1.12.65-2.82.72-3.79.16Z" style="fill: rgb(22, 50, 88);"/>
          <path class="cls-15" d="m520.38,459.9l-15.68-9.05c-.98-.56-.85-1.55.27-2.2h0c1.13-.65,2.83-.72,3.81-.16l15.68,9.05c.98.56.85,1.55-.27,2.2h0c-1.13.65-2.83.72-3.81.16Z"/>
        </g>
      </g>
    </g>
  </g>
  <g class="cls-34">
    <g>
      <polygon class="cls-23" points="574.36 290.72 574.18 322.61 518.92 354.72 519.11 322.83 574.36 290.72"/>
      <polygon class="cls-21" points="518.93 258.61 518.56 290.5 463.49 322.61 463.67 290.72 518.93 258.61"/>
      <polygon class="cls-23" points="519.11 322.83 518.92 354.72 463.3 322.61 463.49 290.72 519.11 322.83"/>
      <polygon class="cls-21" points="574.36 290.72 574.18 322.61 518.56 290.5 518.74 258.61 574.36 290.72"/>
      <polygon class="cls-23" points="574.36 290.72 519.11 322.83 463.49 290.72 518.74 258.61 574.36 290.72"/>
    </g>
  </g>
  <g class="cls-34">
    <g>
      <polygon class="cls-23" points="205.9 214.88 205.8 238.09 175.67 255.61 175.77 232.4 205.9 214.88"/>
      <polygon class="cls-9" points="175.57 197.37 175.47 220.58 145.44 238.1 145.54 214.88 175.57 197.37"/>
      <polygon class="cls-23" points="175.77 232.4 175.67 255.61 145.34 238.1 145.44 214.88 175.77 232.4"/>
      <polygon class="cls-9" points="205.9 214.88 205.8 238.09 175.47 220.58 175.57 197.37 205.9 214.88"/>
      <polygon class="cls-23" points="205.9 214.88 175.77 232.4 145.44 214.88 175.57 197.37 205.9 214.88"/>
    </g>
  </g>
  <g class="cls-34">
    <g>
      <polygon class="cls-23" points="620.64 636.41 620.38 695.87 543.19 740.73 543.44 681.27 620.64 636.41"/>
      <g>
        <polyline class="cls-23" points="541.91 592.3 543.2 591.55 543.19 593.05"/>
        <line class="cls-8" x1="543.17" y1="598.69" x2="542.96" y2="646.7"/>
        <polyline class="cls-23" points="542.95 649.52 542.94 651.01 541.65 651.76"/>
        <line class="cls-24" x1="536.5" y1="654.75" x2="469.61" y2="693.63"/>
        <polyline class="cls-23" points="467.04 695.12 465.75 695.87 465.75 694.38"/>
        <line class="cls-8" x1="465.78" y1="688.73" x2="465.99" y2="640.73"/>
        <polyline class="cls-23" points="466 637.91 466 636.41 467.29 635.66"/>
        <line class="cls-24" x1="472.44" y1="632.67" x2="539.33" y2="593.8"/>
      </g>
      <polygon class="cls-23" points="543.44 681.27 543.19 740.73 465.49 695.87 465.75 636.41 543.44 681.27"/>
      <g>
        <polyline class="cls-23" points="619.34 635.67 620.64 636.41 620.63 637.9"/>
        <line class="cls-8" x1="620.61" y1="643.55" x2="620.4" y2="691.56"/>
        <polyline class="cls-23" points="620.38 694.38 620.38 695.87 619.09 695.13"/>
        <line class="cls-18" x1="613.91" y1="692.14" x2="546.56" y2="653.26"/>
        <polyline class="cls-23" points="543.97 651.76 542.68 651.01 542.69 649.52"/>
        <line class="cls-8" x1="542.71" y1="643.87" x2="542.92" y2="595.87"/>
        <polyline class="cls-23" points="542.93 593.05 542.94 591.55 544.23 592.3"/>
        <line class="cls-18" x1="549.41" y1="595.29" x2="616.75" y2="634.17"/>
      </g>
      <polygon class="cls-23" points="620.64 636.41 543.44 681.27 465.75 636.41 542.94 591.55 620.64 636.41"/>
    </g>
  </g>
  <g class="cls-34">
    <path class="cls-7" d="m742.63,523.87c3.08,1.78,3.1,4.66.04,6.44l-86.3,47.03c-3.06,1.78-8.04,1.78-11.12,0l-79.73-44.41c-3.08-1.78-3.1-4.66-.04-6.44l83.61-48.67c3.06-1.78,8.04-1.78,11.12,0l82.42,46.06Z"/>
    <path class="cls-22" d="m742.66,530.32l-86.3,47.03c-3.06,1.78-8.04,1.78-11.12,0l-79.73-44.41c-1.55-.9-2.33-2.07-2.32-3.24l-.05,16.03c0,1.17.77,2.35,2.32,3.24l79.73,44.41c3.08,1.78,8.06,1.78,11.12,0l86.3-47.03c1.52-.88,2.28-2.04,2.29-3.2l.05-16.03c0,1.16-.76,2.32-2.29,3.2Z" style="fill: rgb(22, 50, 88);"/>
  </g>
  <g>
    <g>
      <g>
        <path class="cls-6" d="m482.79,108.06s2.4.17,3.36,3.75c0,0-1.76-.04-2.86-1.03-1.11-.99-.5-2.72-.5-2.72Z"/>
        <path class="cls-7" d="m493.14,100.79c-.31-.71-2.53-.88-4.36.29-2.85,1.83-4.27,6.77-4.27,6.77l-2.54,2.16,2.48,2.21,2.01-2.07s.75.28,1.57-.22,1.83-2.27,2.95-2.95,2.12-.53,2.16-1.19c.04-.67-1.04-.76-2.03-.28-.99.48-2.19,1.06-2.19,1.06,0,0,.03-1.51,1.26-2.77,1.32-1.36,3.66-1.42,2.97-3.01Z"/>
        <path class="cls-7" d="m460.2,99.3c1.32,3.58,4.58,16.69,5.9,19.99,1.19,2.98,2.6,7.21,5.42,6.89,3.17.06,6.45-3.44,8.52-5.68,2.09-2.26,6.11-8.7,6.11-8.7,0,0-1.49-.27-2.37-1.43-.88-1.16-1-2.32-1-2.32,0,0-2.86,3.14-4.68,5.18-1.33,1.49-3.32,3.25-5.2,4.76-.63-2.01-1.4-3.95-1.74-5.2-.94-3.36-2.64-12.56-3.58-16.8-.94-4.24-5.01-7.3-7.39-6.52-3.97,1.3-1.32,6.24,0,9.82Z"/>
      </g>
      <path class="cls-5" d="m451.47,246.02l2.24,1.28s1.56,2.91,4.09,3.29c2.53.39,5.19.43,5.76,0,1.12-.85-3.52-6.73-4.23-8.48-.71-1.75-5.33-8.66-6.96-8.66s-2.01,2.49-1.63,4.47c.39,1.98.72,4.35.72,8.1Z"/>
      <path class="cls-5" d="m447.33,259.68c2.37,0,2.37-3.97,1.76-6.22-.61-2.26-2-5.92-2.35-7.26-.35-1.35-2.12-6.4-3.6-6.4s-2.81.55-2.81,2.31v8.15l1.04,1.45s.61,2.41,1,3.62c.39,1.21,2.31,4.35,4.96,4.35Z"/>
      <path class="cls-7" d="m452.42,233.83c.53.71,3.9,15.32,7.53,13.29,1.82-.77-2.45-8.95-2.59-9.75.25-8.37,2.83-27.85,5.63-38.78.75-4.88,5.76-40.96-3.66-41.77-4.78-.07-5.14,4.64-5.28,9.72.33,7.54-2.05,27.61.33,32.2-2.66,7.99-2.68,28.83-1.96,35.1Z"/>
      <path class="cls-7" d="m442.19,237.87c-.15,1.56-.59,17.27,4.55,15.86,2.57-.29-1.02-10.8-1.02-11.6s2.49-10.06,3.96-15.35c1.39-5.72,6.62-23.39,7.93-30.56-.15-3.04-1.53-14.03-2.78-20.56-1.32-6.9-3.56-19.28-9.25-18.21-4.7.88-4.11,5.58-3.23,10.57,1.08,5.68,4.41,26.54,5.43,29.47-6.69,10.47-5.71,29.43-5.58,40.37Z"/>
      <path class="cls-6" d="m467.48,156.02c-.55,9.58-1.87,27.32-1.87,27.32,0,0-6.61,4.63-12.56,5.73-.6.11-1.18.18-1.74.2-5.01.24-8.4-2.52-8.4-2.52.11-6.5-5.07-31.84-4.73-38.23.33-6.39,4.73-14.54,4.73-14.54,0,0,3.35-.39,7.25-.52,1.19-.04,2.44-.06,3.66-.03,5.18.11,11.9,1.21,11.9,1.21,0,0,2.31,11.79,1.76,21.37Z" style="fill: rgb(22, 50, 88);"/>
      <path class="cls-3" d="m441.63,68.55s-2.76,1.26-2.93,4.48c-.16,3.23,3.06,10.67,9.03,12s8.95-6.31,7.69-10.72c-1.26-4.4-9.38-9.08-13.79-5.77Z"/>
      <path class="cls-6" d="m460.75,61.34s2.46,1.17,2.96,2.88c.5,1.72.16,5.26-.01,6.57-.18,1.31.47,2.94.96,3.73.99,1.59-.95,5.76-1.72,6.75-.77.99-2.7-1.87-3.51-6.5s-.27-14.48,1.32-13.44Z"/>
      <path class="cls-7" d="m467.56,112.07c-1.41,4.33-3.76,5.58-3.61,9.99.15,4.41,3.61,16.52,3.61,16.52,0,0-4.66,4.14-8.26,4.43,0,0-.63-1.53-1.2-4.95,0,0-.51,3.41-1.13,5.25,0,0-4.34-.2-8.39-.92-1.17-.21-2.31-.46-3.32-.77-4.52-1.36-6.03-2.64-6.03-2.64,0,0,6.04-14.25,6.54-15.85.5-1.6-.38-4.46-1.87-7.82-1.49-3.36-4.48-15.51-2.72-20.95,0,0,.82-.51,2.13-1.2,1.99-1.05,5.1-2.52,8.15-3.28,7.35-1.82,11.02-1.4,12.41,1.91,1.39,3.3,5.09,15.93,3.68,20.27Z"/>
      <path class="cls-7" d="m446.13,79.68c.48,1.17,1.38,1.96,2.22,2.07l.03.68-.7,8.17,6.84,5.78,1.34-7.37s.41-.78.81-1.71c1.09.66,2.04,1.02,2.5,1.04,1.47.07,4.44-3.83,5-9.53.56-5.7-2.06-13.63-2.06-13.63l-11.89-.09s.24,4.58.53,9.29l-2.78-.14.1,2.06c-.43-.2-.87-.23-1.26-.08-1,.41-1.31,1.96-.7,3.47Z"/>
      <polygon class="cls-7" points="446.66 91.56 447.68 90.6 454.52 96.38 452.09 98.77 446.66 91.56"/>
      <polygon class="cls-7" points="454.52 96.38 458.02 97.64 457.12 88.85 455.87 89.01 454.52 96.38"/>
      <g>
        <path class="cls-6" d="m457.04,113.42s1.75,1.64.23,5.03c0,0-1.33-1.14-1.57-2.61-.23-1.47,1.34-2.42,1.34-2.42Z"/>
        <path class="cls-7" d="m469.65,114.33c.21-.74-1.4-2.28-3.56-2.53-3.36-.39-7.59,2.54-7.59,2.54l-3.33.06.52,3.29,2.87-.33s.41.69,1.35.82,2.86-.6,4.15-.42,1.97.93,2.42.44c.45-.49-.33-1.25-1.4-1.5s-2.37-.57-2.37-.57c0,0,.98-1.15,2.73-1.35,1.88-.22,3.73,1.22,4.2-.46Z"/>
      </g>
      <path class="cls-3" d="m462.12,65.18s-5.97,10.03-11.25,11.09c-5.28,1.06-8.79.55-9.28-5.1-.49-5.65,3.8-12.05,11.35-11.89,7.55.16,9.9,3.15,9.17,5.91Z"/>
      <path class="cls-7" d="m436.07,119.25s.02.05.03.07c.09.19.19.37.29.53.01.02.03.04.04.06.1.13.22.25.35.37.19.17.39.31.6.44t.01,0c2.54,1.56,6.83.98,9.64.59,3.05-.42,10.24-2.87,10.24-2.87,0,0-.98-1.15-.93-2.61.05-1.45.69-2.42.69-2.42,0,0-4.2.62-6.9,1.05-2.11.33-4.99.43-7.52.39.28-1.27.49-2.57.68-3.72.53-3.14,1.69-14.67.38-18.15,0,0-1.38.8-2.49,1.39-3.06,1.62-5.43,5.19-5.43,9.1,0,3.17-1.3,12.1.32,15.78Z"/>
    </g>
    <g class="cls-34">
      <polygon class="cls-23" points="490.98 93.5 490.94 129.75 476.71 138.02 476.76 101.77 490.98 93.5"/>
      <polygon class="cls-13" points="476.71 85.23 476.66 121.49 462.44 129.75 462.49 93.5 476.71 85.23"/>
      <polygon class="cls-23" points="476.76 101.77 476.71 138.02 462.39 129.75 462.44 93.5 476.76 101.77"/>
      <polygon class="cls-13" points="490.98 93.5 490.94 129.75 476.62 121.49 476.66 85.23 490.98 93.5"/>
      <polygon class="cls-23" points="490.98 93.5 476.76 101.77 462.44 93.5 476.66 85.23 490.98 93.5"/>
    </g>
  </g>
  <g>
    <g>
      <g>
        <path class="cls-6" d="m105.34,434.06s2.4.17,3.36,3.75c0,0-1.76-.04-2.86-1.03s-.5-2.72-.5-2.72Z"/>
        <path class="cls-7" d="m115.69,426.79c-.31-.71-2.53-.88-4.36.29-2.85,1.83-4.27,6.77-4.27,6.77l-2.54,2.16,2.48,2.21,2.01-2.07s.75.28,1.57-.22,1.83-2.27,2.95-2.95,2.12-.53,2.16-1.19c.04-.67-1.04-.76-2.03-.28-.99.48-2.19,1.06-2.19,1.06,0,0,.03-1.51,1.26-2.77,1.32-1.36,3.66-1.42,2.97-3.01Z"/>
        <path class="cls-7" d="m82.75,425.3c1.32,3.58,4.58,16.69,5.9,19.99,1.19,2.98,2.6,7.21,5.42,6.89,3.17.06,6.45-3.44,8.52-5.68,2.09-2.26,6.11-8.7,6.11-8.7,0,0-1.49-.27-2.37-1.43-.88-1.16-1-2.32-1-2.32,0,0-2.86,3.14-4.68,5.18-1.33,1.49-3.32,3.25-5.2,4.76-.63-2.01-1.4-3.95-1.74-5.2-.94-3.36-2.64-12.56-3.58-16.8-.94-4.24-5.01-7.3-7.39-6.52-3.97,1.3-1.32,6.24,0,9.82Z"/>
      </g>
      <path class="cls-27" d="m74.01,572.02l2.24,1.28s1.56,2.91,4.09,3.29,5.19.43,5.76,0c1.12-.85-3.52-6.73-4.23-8.48-.71-1.75-5.33-8.66-6.96-8.66s-2.01,2.49-1.63,4.47c.39,1.98.72,4.35.72,8.1Z"/>
      <path class="cls-27" d="m69.88,585.68c2.37,0,2.37-3.97,1.76-6.22-.61-2.26-2-5.92-2.35-7.26-.35-1.35-2.12-6.4-3.6-6.4s-2.81.55-2.81,2.31v8.15l1.04,1.45s.61,2.41,1,3.62c.39,1.21,2.31,4.35,4.96,4.35Z"/>
      <path class="cls-7" d="m74.97,559.83c.53.71,3.9,15.32,7.53,13.29,1.82-.77-2.45-8.95-2.59-9.75.25-8.37,2.83-27.85,5.63-38.78.75-4.88,5.76-40.96-3.66-41.77-4.78-.07-5.14,4.64-5.28,9.72.33,7.54-2.05,27.61.33,32.2-2.66,7.99-2.68,28.83-1.96,35.1Z"/>
      <path class="cls-7" d="m64.74,563.87c-.15,1.56-.6,17.27,4.55,15.86,2.57-.29-1.02-10.8-1.02-11.6s2.49-10.06,3.96-15.35c1.39-5.72,6.62-23.39,7.93-30.56-.15-3.04-1.53-14.03-2.78-20.56-1.32-6.9-3.56-19.28-9.25-18.21-4.7.88-4.11,5.58-3.23,10.57,1.08,5.68,4.41,26.54,5.43,29.47-6.69,10.47-5.71,29.43-5.58,40.37Z"/>
      <path class="cls-6" d="m90.03,482.02c-.55,9.58-1.87,27.32-1.87,27.32,0,0-6.61,4.63-12.56,5.73-.6.11-1.18.18-1.74.2-5.01.24-8.4-2.52-8.4-2.52.11-6.5-5.07-31.84-4.73-38.23.33-6.39,4.73-14.54,4.73-14.54,0,0,3.35-.39,7.25-.52,1.19-.04,2.44-.06,3.66-.03,5.18.11,11.9,1.21,11.9,1.21,0,0,2.31,11.79,1.76,21.37Z" style="fill: rgb(22, 50, 88);"/>
      <path class="cls-3" d="m64.18,394.55s-2.76,1.26-2.93,4.48c-.16,3.23,3.06,10.67,9.03,12s8.95-6.31,7.69-10.72c-1.26-4.4-9.38-9.08-13.79-5.77Z"/>
      <path class="cls-6" d="m83.3,387.34s2.46,1.17,2.96,2.88.16,5.26-.01,6.57c-.18,1.31.47,2.94.96,3.73.99,1.59-.95,5.76-1.72,6.75-.77.99-2.7-1.87-3.51-6.5s-.27-14.48,1.32-13.44Z"/>
      <path class="cls-7" d="m90.11,438.07c-1.41,4.33-3.76,5.58-3.61,9.99.15,4.41,3.61,16.52,3.61,16.52,0,0-4.66,4.14-8.26,4.43,0,0-.63-1.53-1.2-4.95,0,0-.51,3.41-1.13,5.25,0,0-4.34-.2-8.39-.92-1.17-.21-2.31-.46-3.32-.77-4.52-1.36-6.03-2.64-6.03-2.64,0,0,6.04-14.25,6.54-15.85.5-1.6-.38-4.46-1.87-7.82s-4.48-15.51-2.72-20.95c0,0,.82-.51,2.13-1.2,1.99-1.05,5.09-2.52,8.15-3.28,7.35-1.82,11.02-1.4,12.41,1.91,1.4,3.3,5.09,15.93,3.68,20.27Z"/>
      <path class="cls-7" d="m68.68,405.68c.48,1.17,1.38,1.96,2.22,2.07l.03.68-.7,8.17,6.84,5.78,1.34-7.37s.41-.78.81-1.71c1.09.66,2.04,1.02,2.5,1.04,1.47.07,4.44-3.83,5-9.53.56-5.7-2.06-13.63-2.06-13.63l-11.89-.09s.24,4.58.53,9.29l-2.78-.14.1,2.06c-.43-.2-.87-.23-1.26-.08-1,.41-1.31,1.96-.7,3.47Z"/>
      <polygon class="cls-7" points="69.21 417.56 70.23 416.6 77.07 422.38 74.64 424.77 69.21 417.56"/>
      <polygon class="cls-7" points="77.07 422.38 80.57 423.64 79.67 414.85 78.41 415.01 77.07 422.38"/>
      <g>
        <path class="cls-6" d="m79.59,439.41s1.75,1.64.23,5.03c0,0-1.33-1.14-1.57-2.61-.23-1.47,1.34-2.42,1.34-2.42Z"/>
        <path class="cls-7" d="m92.2,440.33c.21-.74-1.4-2.28-3.56-2.53-3.36-.39-7.59,2.54-7.59,2.54l-3.33.06.52,3.29,2.87-.33s.41.69,1.35.82c.94.13,2.86-.6,4.15-.42s1.97.93,2.42.44c.45-.49-.33-1.25-1.4-1.5-1.07-.25-2.37-.57-2.37-.57,0,0,.98-1.15,2.73-1.35,1.88-.22,3.73,1.22,4.2-.46Z"/>
      </g>
      <path class="cls-3" d="m84.67,391.18s-5.97,10.03-11.25,11.09c-5.28,1.06-8.79.55-9.28-5.1-.49-5.65,3.8-12.05,11.35-11.89,7.55.16,9.9,3.15,9.17,5.91Z"/>
      <path class="cls-7" d="m58.62,445.25s.02.05.03.07c.09.19.19.37.29.53.01.02.03.04.04.06.1.13.22.25.35.37.19.17.39.31.6.44t.01,0c2.54,1.56,6.83.98,9.64.59,3.05-.42,10.24-2.87,10.24-2.87,0,0-.98-1.15-.93-2.61.05-1.45.69-2.42.69-2.42,0,0-4.2.62-6.9,1.05-2.11.33-4.99.43-7.52.39.28-1.27.49-2.57.68-3.72.53-3.14,1.69-14.67.38-18.15,0,0-1.38.8-2.49,1.39-3.06,1.62-5.43,5.19-5.43,9.1,0,3.17-1.3,12.1.32,15.78Z"/>
    </g>
    <g class="cls-34">
      <polygon class="cls-7" points="161.88 450.18 161.75 495.82 122.3 518.75 122.43 473.1 161.88 450.18"/>
      <g>
        <polyline class="cls-7" points="121.81 427.53 122.3 427.25 122.3 427.82"/>
        <line class="cls-11" x1="122.29" y1="430.16" x2="122.18" y2="471.15"/>
        <polyline class="cls-7" points="122.17 472.32 122.17 472.89 121.68 473.18"/>
        <line class="cls-19" x1="119.65" y1="474.35" x2="84.22" y2="494.94"/>
        <polyline class="cls-7" points="83.21 495.53 82.72 495.82 82.72 495.25"/>
        <line class="cls-11" x1="82.72" y1="492.91" x2="82.84" y2="451.92"/>
        <polyline class="cls-7" points="82.85 450.75 82.85 450.18 83.34 449.89"/>
        <line class="cls-19" x1="85.37" y1="448.71" x2="120.8" y2="428.12"/>
      </g>
      <polygon class="cls-7" points="122.43 473.1 122.3 518.75 82.58 495.82 82.72 450.18 122.43 473.1"/>
      <g>
        <polyline class="cls-7" points="161.39 449.89 161.88 450.18 161.88 450.75"/>
        <line class="cls-11" x1="161.88" y1="453.09" x2="161.76" y2="494.08"/>
        <polyline class="cls-7" points="161.75 495.25 161.75 495.82 161.26 495.53"/>
        <line class="cls-1" x1="159.22" y1="494.36" x2="123.55" y2="473.76"/>
        <polyline class="cls-7" points="122.53 473.18 122.04 472.89 122.04 472.32"/>
        <line class="cls-11" x1="122.05" y1="469.98" x2="122.17" y2="428.99"/>
        <polyline class="cls-7" points="122.17 427.82 122.17 427.25 122.67 427.53"/>
        <line class="cls-1" x1="124.7" y1="428.71" x2="160.37" y2="449.3"/>
      </g>
      <polygon class="cls-7" points="161.88 450.18 122.43 473.1 82.72 450.18 122.17 427.25 161.88 450.18"/>
    </g>
    <g class="cls-34">
      <polygon class="cls-23" points="140.48 452.2 140.42 493.22 122.26 503.77 122.32 462.75 140.48 452.2"/>
      <g>
        <polyline class="cls-23" points="121.77 441.94 122.27 441.65 122.27 442.22"/>
        <line class="cls-4" x1="122.26" y1="444.5" x2="122.21" y2="480.96"/>
        <polyline class="cls-23" points="122.21 482.1 122.21 482.67 121.71 482.96"/>
        <line class="cls-12" x1="119.69" y1="484.13" x2="105.56" y2="492.35"/>
        <polyline class="cls-23" points="104.55 492.93 104.05 493.22 104.05 492.65"/>
        <line class="cls-4" x1="104.06" y1="490.37" x2="104.11" y2="453.91"/>
        <polyline class="cls-23" points="104.11 452.77 104.11 452.2 104.61 451.92"/>
        <line class="cls-12" x1="106.63" y1="450.74" x2="120.76" y2="442.53"/>
      </g>
      <polygon class="cls-23" points="122.32 462.75 122.26 503.77 103.99 493.22 104.05 452.2 122.32 462.75"/>
      <g>
        <polyline class="cls-23" points="139.98 451.92 140.48 452.2 140.48 452.77"/>
        <line class="cls-4" x1="140.47" y1="455.05" x2="140.42" y2="491.51"/>
        <polyline class="cls-23" points="140.42 492.65 140.42 493.22 139.92 492.93"/>
        <line class="cls-14" x1="137.89" y1="491.76" x2="123.66" y2="483.54"/>
        <polyline class="cls-23" points="122.64 482.96 122.14 482.67 122.15 482.1"/>
        <line class="cls-4" x1="122.15" y1="479.82" x2="122.2" y2="443.36"/>
        <polyline class="cls-23" points="122.2 442.22 122.21 441.65 122.7 441.94"/>
        <line class="cls-14" x1="124.73" y1="443.11" x2="138.97" y2="451.33"/>
      </g>
      <polygon class="cls-23" points="140.48 452.2 122.32 462.75 104.05 452.2 122.21 441.65 140.48 452.2"/>
    </g>
    <g>
      <path class="cls-7" d="m121.52,480.95c.34-.49,2.37.34,4.34,2.54,1.1,1.22.55,3.42,1.57,4.35s2.26,1.88,2.26,1.88l-2.75,3.95s-1.79-1.77-3.3-2.83-2.14.7-5.76-2.53c-2.88-2.57-2.48-6.02-1.44-7.32,1.01-1.25,2.87.21,4.76,1.88,1.89,1.67,2.83,1.55,2.83,1.55,0,0-3.17-2.53-2.51-3.47Z"/>
      <path class="cls-7" d="m125.74,493.71l-1.7-1.14s.58-1.15,1.96-2.86c1.14-1.41,1.99-2.35,1.99-2.35l1.8,1.11-4.04,5.25Z"/>
      <path class="cls-27" d="m177.15,607.17s.49,6.69.49,7.52-1.55,1.73-4.29,1.73-4.84-4.56-4.84-4.56c0,0-4.56.46-8.49-1.19-3.93-1.64-5.84-3.65-5.57-4.75.27-1.1,5.57-1.28,8.86-1.28h4.34l9.5,2.53Z"/>
      <path class="cls-27" d="m161.72,617.5s.49,6.69.49,7.52-1.55,1.73-4.29,1.73-4.84-4.56-4.84-4.56c0,0-4.56.46-8.49-1.19-3.93-1.64-5.84-3.65-5.57-4.75s5.57-1.28,8.86-1.28h4.34l9.5,2.53Z"/>
      <path class="cls-7" d="m151.76,433.32s-1.19,5.39-1.19,9.68,1.83,13.69,3.47,13.69,5.02-1,5.02-1l1.16,7.58,8.88-2.28-1.37-12.69s-.37-15.7-6.12-16.07c-5.75-.37-9.86,1.1-9.86,1.1Z"/>
      <path class="cls-3" d="m164.9,452.31c4.02,0,6.82-7.43,6.94-12.9.12-5.48-.97-12.29-8.76-12.78-7.79-.49-14.49,4.02-14.49,5.23s1.46,4.14,4.02,3.9c2.56-.24,2.25,4.56,2.25,6.88s3.35.12,3.9.91c.55.79,1.22,8.76,6.15,8.76Z"/>
      <path class="cls-7" d="m158.86,463.26l-.55-4.46s4.91-2.91,8.74-3.55c3.82-.64,3.55.64,3.55.64v3.79l-11.74,3.58Z"/>
      <g>
        <path class="cls-7" d="m176.57,529.95c.48.18,1.51-1.42,1.83-3.99.18-1.43-1.28-2.74-1.01-3.92s.68-2.48.68-2.48l-3.87-1.48s-.4,2.17-.96,3.68c-.56,1.52-1.85.56-2.84,4.69-.79,3.29,1.18,5.58,2.55,6,1.32.4,1.93-1.58,2.45-3.72s1.24-2.52,1.24-2.52c0,0-1.01,3.4-.09,3.75Z"/>
        <path class="cls-7" d="m178.76,522.27s-1.61.47-3.58-.03c-1.93-.48-3.14-1.48-3.14-1.48l.43-1.98,6.73,1.47-.44,2.02Z"/>
        <path class="cls-6" d="m171.95,518.6s1.37,1.29,3.63,1.8c4.32.98,4.75-.35,4.75-.35,1.23-4.12,4.99-21.72,5.25-26.84,0-.13,0-.26,0-.39.05-.28.05-.58,0-.88-.34-2-1.21-8.36-2.34-16.2-1.13-7.83-5.1-19.85-7.61-16.64-5.97,7.64-1.82,23.39-.39,30.4.19.94.41,1.74.66,2.44h0c-.22,3.1-.76,10.16-1.45,14.21-.47,2.76-2.2,9.48-2.49,12.44Z"/>
      </g>
      <path class="cls-7" d="m180.11,518.54s-2.32,39.22-2.69,50.5c-.31,9.41-.27,38.13-.27,38.13,0,0-6.33,1.7-9.37-1.1,0,0-3.02-26.91-3.73-35.9-.84-10.73-2.25-46.38-2.25-46.38l18.31-5.25Z"/>
      <path class="cls-7" d="m166.35,521.87s-.24,4.09-.61,7.33c-1.1,9.77-3.36,30.36-3.7,38.28-.54,12.49-.33,50.02-.33,50.02,0,0-4.31,1.49-7.53.44-.69-.22-1.32-.56-1.85-1.05,0,0-3.31-36.65-3.41-48.91-.1-12.56.22-46.64.22-46.64l3.08.1,14.11.44Z"/>
      <path class="cls-27" d="m182.8,496.45c0,7.67-.57,12.81-2.19,21.52-.84,4.48-5.06,6.76-14.86,8.51-.03,0-.07.01-.11.02-6.38,1.12-10.83,0-13.48-1.71-2.02-1.29-3-2.91-3-4.12,0-7.32-.39-12.98-.64-21.86-.24-8.89.3-28.66,4.01-32.15,1.18-1.12,2.27-2.03,3.38-2.83,2.35-1.69,4.8-2.82,8.52-3.97,5.48-1.71,9.73-2.21,12.9-1.12,5.87,2.03,5.48,30.06,5.48,37.73Z"/>
      <path class="cls-27" d="m125.1,493.75c3.93,2.95,18.07,14.73,23.33,17.27.38.18.75.3,1.13.36.66.24,1.36.3,2.04.32,2.53.08,5.23-4.23,5.24-6.55.02-2.32.3-7.33.59-16.36.29-9.04,2.02-26.13-2.8-23.66-3.23,1.65-7.21,5.9-7.56,10.22-.59,7.39-.9,15.58-.97,21.64-2.3-1.26-12.52-6.95-16.43-8.93,0,0-1.5,1.67-2.46,2.83-1.25,1.51-2.12,2.87-2.12,2.87Z"/>
    </g>
  </g>
  <g>
    <g>
      <path class="cls-7" d="m296.03,503.33l10.67-63.72c.26-1.53,1.64-2.09,3.1-1.25l126.31,72.92c1.45.84,2.42,2.76,2.17,4.29l-10.67,63.72c-.26,1.53-1.64,2.09-3.1,1.25l-126.31-72.92c-1.45-.84-2.42-2.76-2.17-4.29Z"/>
      <g>
        <g>
          <path class="cls-29" d="m380.76,503.16c-.47,0-.97-.15-1.45-.42l-8.22-4.75c-1.53-.88-2.51-2.84-2.24-4.46.19-1.15,1.01-1.9,2.09-1.9.47,0,.97.15,1.45.42l8.22,4.75c1.53.88,2.51,2.84,2.24,4.46-.19,1.15-1.01,1.9-2.09,1.9Z"/>
          <g>
            <path class="cls-31" d="m379.02,513.55c-.47,0-.97-.15-1.45-.42l-8.22-4.75c-1.53-.88-2.51-2.84-2.24-4.46.19-1.15,1.01-1.9,2.09-1.9.47,0,.97.15,1.45.42l8.22,4.75c1.53.88,2.51,2.84,2.24,4.46-.19,1.15-1.01,1.9-2.09,1.9Z"/>
            <path class="cls-29" d="m369.19,502.45c.39,0,.81.12,1.24.37l8.22,4.75c1.36.79,2.27,2.59,2.03,4.02-.16.98-.83,1.54-1.66,1.54-.39,0-.81-.12-1.24-.37l-8.22-4.75c-1.36-.79-2.27-2.59-2.03-4.02.16-.98.83-1.54,1.66-1.54"/>
          </g>
          <g>
            <path class="cls-31" d="m377.28,523.95c-.47,0-.97-.15-1.45-.42l-8.22-4.75c-1.53-.88-2.51-2.84-2.24-4.46.19-1.15,1.01-1.9,2.09-1.9.47,0,.97.15,1.45.42l8.22,4.75c1.53.88,2.51,2.84,2.24,4.46-.19,1.15-1.01,1.9-2.09,1.9Z"/>
            <path class="cls-29" d="m367.45,512.84c.39,0,.81.12,1.24.37l8.22,4.75c1.36.79,2.27,2.59,2.03,4.02-.16.98-.83,1.54-1.66,1.54-.39,0-.81-.12-1.24-.37l-8.22-4.75c-1.36-.79-2.27-2.59-2.03-4.02h0c.16-.98.83-1.54,1.66-1.54"/>
          </g>
          <path class="cls-29" d="m375.54,534.34c-.47,0-.97-.15-1.45-.42l-8.22-4.75c-1.53-.88-2.51-2.84-2.24-4.46.19-1.15,1.01-1.9,2.09-1.9.47,0,.97.15,1.45.42l8.22,4.75c1.53.88,2.51,2.84,2.24,4.46-.19,1.15-1.01,1.9-2.09,1.9Z"/>
          <path class="cls-7" d="m420.64,526.11l-31.25-18.04c-1.36-.79-2.27-2.59-2.03-4.02h0c.24-1.43,1.54-1.96,2.9-1.17l31.25,18.04c1.36.79,2.27,2.59,2.03,4.02h0c-.24,1.43-1.54,1.96-2.9,1.17Z"/>
          <path class="cls-7" d="m409.94,531.33l-22.29-12.87c-1.36-.79-2.27-2.59-2.03-4.02h0c.24-1.43,1.54-1.96,2.9-1.17l22.29,12.87c1.36.79,2.27,2.59,2.03,4.02h0c-.24,1.43-1.54,1.96-2.9,1.17Z"/>
          <path class="cls-7" d="m412.9,544.43l-27-15.59c-1.36-.79-2.27-2.59-2.03-4.02h0c.24-1.43,1.54-1.96,2.9-1.17l27,15.59c1.36.79,2.27,2.59,2.03,4.02h0c-.24,1.43-1.54,1.96-2.9,1.17Z"/>
          <path class="cls-7" d="m402.14,549.61l-17.97-10.37c-1.36-.79-2.27-2.59-2.03-4.02h0c.24-1.43,1.54-1.96,2.9-1.17l17.97,10.37c1.36.79,2.27,2.59,2.03,4.02h0c-.24,1.43-1.54,1.96-2.9,1.17Z"/>
        </g>
        <path class="cls-6" d="m351.09,526.74l-42.76-24.69c-.91-.52-1.51-1.72-1.35-2.68l7.54-45.02c.16-.96,1.03-1.31,1.93-.78l42.76,24.69c.91.52,1.51,1.72,1.35,2.68l-7.54,45.02c-.16.96-1.03,1.31-1.93.78Z" style="fill: rgb(22, 50, 88);"/>
        <path class="cls-25" d="m343.49,510.01l-23.79-13.74c-1.28-.74-1.82-2.66-.97-3.44l15.39-14.01c.83-.75,2.37.14,2.82,1.63l8.4,27.75c.46,1.53-.57,2.55-1.85,1.81Z"/>
      </g>
    </g>
    <g>
      <path class="cls-7" d="m287.77,500.96v-4.75s5.01,3.12,6.05.19c1.05-2.93,1.7-11.43.65-14.86-1.05-3.42-9.85-7.96-12.92-2.65-3.07,5.31-.77,20.12-.77,20.12l6.99,1.96Z"/>
      <path class="cls-26" d="m284.48,468.29s9.89,1.34,11.92,4.97c2.03,3.63,1.37,8.14-3.45,11.98-4.82,3.84-5.59,8.45-10.13,8.45s-7.4-5.77-7.68-11.83c-.28-6.06,4.25-13.1,9.35-13.58Z"/>
      <path class="cls-26" d="m270.91,473.17c0,4.13,1.45,11.46,5.58,11.46s8.48-8.03,8.48-12.16-.88-6.48-5.01-6.48-9.05,3.05-9.05,7.19Z"/>
      <path class="cls-7" d="m294.58,657.41c-.77-1.96-2.43-6.46-1.87-9.96,1.56-18.96,3.61-57.25,3.87-76.19.12-3.61-2.78-6.59-6.38-6.59-3.74-.21-6.72,3.75-6.38,6.6.03.9,1.15,36.25,1.17,36.41.08.45-.06,1.07-.06,1.41-1.4,6.4.68,34.23,2.27,40.76,1.53,5.88,6.72,12.35,10.63,14.7,0,0-1.94-3.86-3.23-7.14Z"/>
      <path class="cls-7" d="m281.53,639.78c.84-19.72,4.91-56.46,7.58-75.97.97-8.53-12.16-9.75-12.72-1.13-.33,17.05-3.39,37.19-2.86,55.77,1.34,16.15,1.01,29.84,13.07,37.82-.96-2.78-5.43-11.12-5.08-16.49Z"/>
      <g>
        <path class="cls-7" d="m300.54,536.22s.21,3.17-4.32,5.07c0,0-.26-2.31.84-3.94,1.1-1.63,3.48-1.13,3.48-1.13Z"/>
        <path class="cls-7" d="m311.91,548.51c.87-.53.71-3.47-1.16-5.67-2.9-3.42-9.64-4.4-9.64-4.4l-3.28-2.95-2.46,3.65,3.08,2.28s-.23,1.04.56,2.02c.8.98,3.3,2.01,4.39,3.35,1.09,1.34,1.07,2.68,1.95,2.62.88-.07.81-1.51,0-2.72s-1.78-2.69-1.78-2.69c0,0,1.99-.22,3.86,1.16,2.02,1.49,2.51,4.55,4.48,3.36Z"/>
        <path class="cls-7" d="m292.91,531c-3.44-2.2-7.26-6.25-10.43-9.02-3.18-3.62-1.74-23.49-8.43-21.62-1.88.44-3.48.82-3.43,3.62.77,22.47,5.67,28.77,25.59,37.32-.2-1.92,2.48-4.86,4.32-5.07,0,0-4.63-3.2-7.63-5.23Z"/>
      </g>
      <path class="cls-2" d="m272.78,592.7c7.91,6.89,16.7,7.22,21.69,6.68,2.51-.28,4.06-.76,4.06-.76-1.11-7.54,0-15.78.91-24.73.9-8.94,0-20.95,0-20.95h0c-.15-.1-2.41-1.47-5.03-2.83-2.25-1.16-4.77-2.31-6.48-2.62-3.78-.7-11.87-4.05-14.86.89-2.98,4.94-2.88,18.26-.09,26.08,2.8,7.82-.18,18.26-.18,18.26Z"/>
      <path class="cls-7" d="m290.38,505.15l.21-3.51s-3.89-3.03-7.8-3.69-4.42-.35-4.42-.35v3.88l12.01,3.66Z"/>
      <path class="cls-7" d="m330.4,497.79c-.57-.91-3.84-1.19-6.12.81-1.44,1.26-2.39,3.05-3.01,4.73.06-1.34.1-2.59-.59-2.55-1.01.06-.92,1.34-1,3.57-.04,1.03.22,2.4.52,3.33-.03.22-.04.34-.04.34l-3.04,3.51,3.89,2.52,2.34-3.28s1.38.48,2.11-.63c.98-1.49.75-4.07,1.87-6.24,1.25-2.42,4.38-4.07,3.09-6.11Z"/>
      <path class="cls-6" d="m288.41,657.97h-8.37l-1.92-2.24v2.24h-3.26v-12.39c0-2.42.39-3.96,1.4-3.96s2.75,4.42,4.1,7.54c1.35,3.12,5.22,5.73,8.06,8.8Z" style="fill: rgb(22, 50, 88);"/>
      <path class="cls-6" d="m299.51,666.14h-8.37l-1.92-2.24v2.24h-3.26v-12.39c0-2.42.39-3.96,1.4-3.96s2.75,4.42,4.1,7.54c1.35,3.12,5.22,5.73,8.06,8.8Z" style="fill: rgb(22, 50, 88);"/>
      <path class="cls-7" d="m317.92,508.83c-2.28,2.58-9.86,11.16-14.31,14.13-3.52-3.43-5.28-14.99-10.15-17.98-6.11-4.25-22.2-7.06-22.45-2.63.49,15.38,7.6,28.28,2.04,46.01,2.33,4.96,19.54,8.9,27.29,4.1,0,0-3.65-19.23-4.27-25,8.84,15.58,22.68-8.14,26.29-13.67-1.28-4.74-4.45-4.96-4.45-4.96Z"/>
    </g>
  </g>
  <g>
    <g>
      <path class="cls-16" d="m655.37,476.44c-.66,18.63-1.22,45.53-1.22,45.53,0,1.27-.87,2.08-2.18,2.51-1.96.64-4.9.43-7.3-.36-2.23-.73-3.99-1.96-4.08-3.46,0,0,.88-20.54,1.17-31.92.29-11.37-2.19-17.65-2.34-30.77-.06-5.73.88-11.24,1.96-16.4,3.86,3.21,14.69,5.49,22.55,5.49,1.67,0,4.98-.46,7.16-1.82.96,4.19,1.89,8.69,1.89,12.98,0,7.17-2.02,14.24-2.02,21.38,0,4.23,4.17,23.62,4.53,46.5l.23,2.08c.37,1.91-2.07,3.14-5.04,3.59-2.71.42-5.87.18-7.72-.76-1-.51-1.61-1.24-1.56-2.19,0,0-2.05-31.45-2.81-37.2-.35-2.67-1.79-8.75-3.22-15.17Z" style="fill: rgb(22, 50, 88);"/>
      <path class="cls-25" d="m654.91,402.82c.38,1.24.63,2.55.77,3.86,4.45-1.86,6.7-4.63,8.09-6.98.08.05.16.11.25.16,2.09,1.29,4.44,2.71,6.77,4.45,3.59,2.66,5.36,7.15,4.53,11.55-1.13,5.95-2.64,10.75-4.52,14.81-.89,1.91-1.85,3.66-2.89,5.29-2.41,3.77-7.16,5.35-11.36,3.8-1.55-.57-2.92-1.22-4.24-1.93-.04-.62-.05-1.24-.05-1.85,0-3,.33-4.57.51-6.33-2.27-.5-4.21-1-5.88-1.5-1.56-.47-2.87-.93-4-1.38-2.28-.92-3.76-1.8-4.78-2.61.4-1.08.63-2.21.63-3.84v-.21l1.27,1.47c.36-6.62.05-20.84,10.67-24.45.71.86,1.5,1.5,2.33,1.87-1.08,1.8-1.86,3.8-2.22,5.84,1.2-.73,2.71-1.5,4.11-2.01Z"/>
      <path class="cls-2" d="m662.95,535.26c.53-.34,1.19-.54,2.03-.54.09,0,.18.01.27.02.17,0,.34-.01.51-.01,2.93,0,2.21,2.29,3.64,2.29.3,0,.63-.14.95-.33.03-.76.08-1.53.14-2.28.93.62,1.87,1.52,1.95,3.1-1.3,6.23-5.17,12.19-10.8,12.19-1.49,0-2.87-.68-4.05-1.38.24-3.32,2.42-4.49,3.19-7.47.22-.85.11-4.25,2.18-5.59Z"/>
      <path class="cls-25" d="m670.81,430.67c.6,7.91,2.4,9.13,2.4,11.25,0,1.46-.88,2.54-2.13,3.32-2.18,1.36-5.49,1.82-7.16,1.82-7.86,0-18.68-2.28-22.55-5.49-.92-.76-1.44-1.57-1.44-2.43,0-1.89,1.21-4.53,2.09-7.16,1.43.72,2.69,1.42,3.85,2.08-.12.56-.2.99-.2,1.24,0,1.34,3.93,3.6,6.87,4.85-.11-.75-.18-1.54-.22-2.32,1.32.71,2.69,1.36,4.24,1.93,4.19,1.56,8.95-.02,11.36-3.8,1.04-1.63,2.01-3.38,2.89-5.29Z"/>
      <path class="cls-25" d="m670.48,534.41c-.06.76-.11,1.52-.14,2.28-.32.2-.64.33-.95.33-1.43,0-.7-2.29-3.64-2.29-.17,0-.34,0-.51.01-.09-.01-.18-.02-.27-.02-.84,0-1.5.21-2.03.54.03-.6.04-1.19.04-1.79,0-.82-.02-1.64-.04-2.47,1.85.95,5,1.18,7.72.76l-.2,2.65Z"/>
      <path class="cls-17" d="m660.73,393.61c0-.92,1.61-1.02,1.65-2.67,0-.02,0-.05,0-.08,0-.93-.79-1.79-1.69-1.79s-1.98,1.17-2.81,2.2c-.64-6.13-4.01-5.47-8.59-6.33-.59-.11-1.16-.34-1.72-.59.06-.39.07-.79.03-1.18-.05-.48-.08-.91-.08-1.23,0-5.31,5.18-7.44,10.13-7.55.19-.98.6-1.99,1.3-1.99.41,0,.63.49,1.08.49.92,0,1.35-1.7,4.18-1.7,2.28,0,5.7,3.33,5.7,4.73s-1.93,1.19-3.87,1.67c1.24,1.41,1.99,3.28,1.99,5.6,0,8.29-6.54,9.92-6.54,11.87,0,.03.05.25.14.62-.57-.77-.89-1.59-.89-2.07Z"/>
      <path class="cls-25" d="m662.03,397.26c.28,1,.89,1.86,1.74,2.44-1.39,2.35-3.64,5.12-8.09,6.98-.15-1.31-.39-2.63-.77-3.86,0,0,4.37-1.64,7.12-5.56Z"/>
      <path class="cls-2" d="m671.11,533.68c1.11.73,1.89,5.25,1.74,6.4-1.47,10.85-5.51,11.91-9.93,11.91-1.8,0-3.09-.3-4.07-.72-.77-.34-1.25-1.11-1.28-1.95,0-.14,0-.27,0-.41,0-.21,0-.41.02-.6,1.18.7,2.56,1.38,4.05,1.38,5.63,0,6.91-5.48,8.21-11.71"/>
      <path class="cls-25" d="m654.19,399.33c-.21,2.22.73,3.49.73,3.49-1.4.51-2.91,1.27-4.11,2.01.37-2.05,1.15-4.04,2.22-5.84.38.18.77.29,1.16.35Z"/>
      <path class="cls-2" d="m653.95,532.71c.12.48.2,1.07.2,1.86,0,.58-.4,1.31-1.06,2.11-.89.95-8.94,6.99-11.92,6.99-.54,0-.57-.04-1.12-.04-.3,0-.61.01-.92.01-2.78,0-3.9-1.26-4.12-3.19,0-.12,0-.25,0-.38,1.01.69,1.94,1.09,3.42,1.09,5.78,0,11.03-3.92,15.53-8.45Z"/>
      <path class="cls-2" d="m652.14,528.09c.4,2.64,1.39,2.96,1.82,4.63-4.5,4.53-9.75,8.45-15.53,8.45-1.48,0-2.41-.4-3.42-1.09v-.13c0-2.28,7.68-6.1,9.37-11.08,2.2.09,2.66,2.44,4.22,2.44,1.64,0,1.57-1.79,3.34-3.18l.21-.04Z"/>
      <path class="cls-25" d="m652.78,429.63c-.18,1.76-.51,3.34-.51,6.33,0,.61.02,1.23.05,1.85.04.79.12,1.57.22,2.32-2.93-1.25-6.87-3.51-6.87-4.85,0-.25.08-.67.2-1.24.29-1.37.81-3.54,1.03-5.92,1.67.5,3.61,1,5.88,1.5Z"/>
      <path class="cls-25" d="m652.14,528.09l-.21.04c-1.77,1.39-1.7,3.18-3.34,3.18s-2.02-2.34-4.22-2.44c.21-.62.33-1.25.33-1.9,0-1.23-.03-2.85-.03-2.85,2.4.79,5.34,1,7.3.36v.92c0,1.11.06,1.99.17,2.7Z"/>
      <path class="cls-20" d="m654.19,399.33c-.39-.06-.78-.17-1.16-.35-.83-.38-1.62-1.01-2.33-1.87-.77-.93-1.44-2.11-1.96-3.47-1.32-3.44-1.73-6.22-1.19-9.11.01-.06.02-.12.03-.18.56.25,1.13.49,1.72.59,4.58.86,7.96.2,8.59,6.33.83-1.03,1.88-2.2,2.81-2.2s1.69.86,1.69,1.79c0,.03,0,.05,0,.08-.04,1.66-1.65,1.76-1.65,2.67,0,.48.32,1.3.89,2.07.09.38.4,1.56.41,1.58-2.76,3.92-7.12,5.56-7.12,5.56,0,0-.94-1.27-.73-3.49Z"/>
      <path class="cls-25" d="m637.15,418.23c.52.6,1.06,1.22,1.61,1.86v.21c0,1.63-.23,2.76-.63,3.84-.88-.69-1.42-1.33-1.85-1.88.34-1.12.67-2.53.87-4.03Z"/>
      <path class="cls-25" d="m633.78,420.77c.2.53.39,1.06.39,1.57,0,.43-.13,1.06-.71,1.06-.93,0-5.35-1.81-7.47-2.7l-5.4-10.69c-.08-.16-.05-.35.08-.48.13-.13.32-.15.48-.07l8.45,4.34c.27.14.51.32.73.53.24.24.46.51.62.83l2.84,5.62Z"/>
      <path class="cls-20" d="m633.58,420.24c.07.17.13.35.2.53l-2.84-5.62c-.16-.31-.37-.6-.62-.83.55-.38,1.13-.67,1.67-.68.02,0,.04,0,.05,0,.96,0,2.86,2.02,5.09,4.6-.2,1.51-.53,2.91-.87,4.03-.8-1.02-1.23-1.75-2.69-2.03Z"/>
      <path class="cls-20" d="m646.9,428.14c-.22,2.38-.74,4.55-1.03,5.92-1.16-.66-2.42-1.36-3.85-2.08-.46-.23-.92-.46-1.41-.7-4.01-1.92-14.18-3.48-14.69-9.98,0-.03,0-.05,0-.08,0-.18.02-.36.07-.53,2.12.89,6.54,2.7,7.47,2.7.58,0,.71-.63.71-1.06,0-.5-.18-1.04-.39-1.57-.07-.18-.13-.35-.2-.53,1.47.28,1.9,1.01,2.69,2.03.43.55.97,1.19,1.85,1.88,1.02.81,2.5,1.69,4.78,2.61,1.12.46,2.44.92,4,1.38Z"/>
    </g>
    <g>
      <path class="cls-23" d="m641.37,441.56c-1.09,5.16-2.02,10.68-1.96,16.4.15,13.12,2.63,19.4,2.34,30.77-.29,11.37-1.17,31.92-1.17,31.92.09,1.5,1.85,2.73,4.08,3.46,2.4.79,5.34,1.01,7.3.36,1.31-.43,2.18-1.24,2.18-2.51,0,0,.57-26.91,1.22-45.53"/>
      <path class="cls-23" d="m662.96,531c-1-.51-1.61-1.24-1.56-2.19,0,0-2.05-31.45-2.81-37.2-.35-2.67-1.79-8.75-3.22-15.17-1.65-7.41-3.31-15.27-3.31-18.83"/>
      <path class="cls-23" d="m671.08,445.24c.96,4.19,1.89,8.69,1.89,12.98,0,7.17-2.02,14.24-2.02,21.38,0,4.23,4.17,23.62,4.53,46.5l.23,2.08c.37,1.91-2.07,3.13-5.04,3.59-2.72.42-5.87.19-7.72-.76"/>
      <path class="cls-23" d="m638.13,424.15c1.02.8,2.5,1.69,4.78,2.61,1.12.45,2.44.92,4,1.38,1.67.5,3.61,1,5.88,1.5,1.59.35,3.34.7,5.26,1.04.98.18,1.96-.28,2.43-1.16,2.13-3.93,4.55-9.14,5.93-13.78"/>
      <path class="cls-23" d="m645.88,434.06c-1.16-.66-2.42-1.36-3.85-2.08-.46-.23-.92-.46-1.41-.7-4.01-1.92-14.18-3.48-14.69-9.98,0-.03,0-.05,0-.08,0-.18.02-.36.07-.53,2.12.89,6.54,2.7,7.47,2.7.58,0,.71-.63.71-1.06,0-.5-.18-1.04-.39-1.57-.07-.18-.13-.35-.2-.53,1.47.28,1.89,1.01,2.69,2.03.43.55.97,1.18,1.85,1.88"/>
      <path class="cls-23" d="m644.5,409.62c0,.86.05,1.75.05,2.64,0,4.66-1.74,3.95-1.74,12.4,0,1.17.06,1.66.09,2.09h0"/>
      <path class="cls-23" d="m642.02,431.97c-.89,2.63-2.09,5.27-2.09,7.16,0,.85.53,1.66,1.44,2.43,3.86,3.21,14.69,5.49,22.55,5.49,1.67,0,4.98-.45,7.16-1.82,1.25-.78,2.13-1.86,2.13-3.32,0-2.12-1.8-3.34-2.4-11.25"/>
      <path class="cls-23" d="m652.78,429.63c-.18,1.76-.51,3.34-.51,6.33,0,.61.02,1.23.05,1.85.04.79.12,1.57.22,2.32-2.93-1.25-6.87-3.51-6.87-4.85,0-.25.08-.67.2-1.24.29-1.37.81-3.54,1.03-5.92"/>
      <path class="cls-23" d="m630.33,414.31c.55-.38,1.12-.66,1.67-.67.02,0,.04,0,.05,0,.96,0,2.86,2.02,5.09,4.6.52.6,2.45,2.83,2.88,3.32.36-6.62.05-20.84,10.67-24.45"/>
      <path class="cls-23" d="m647.58,384.35c.56.25,1.13.49,1.72.59,4.58.86,7.96.2,8.59,6.33.83-1.03,1.88-2.2,2.81-2.2s1.69.86,1.69,1.79c0,.03,0,.05,0,.08-.04,1.66-1.65,1.76-1.65,2.67,0,.48.32,1.3.89,2.07h0"/>
      <path class="cls-23" d="m658.13,397.6c-1.25,1.41-2.62,1.92-3.95,1.73-.39-.06-.78-.17-1.16-.35-.83-.38-1.62-1.01-2.33-1.87-.77-.93-1.44-2.11-1.96-3.47-1.32-3.44-1.73-6.22-1.19-9.11.01-.06.02-.12.03-.18.07-.39.07-.79.03-1.18-.05-.48-.08-.91-.08-1.23,0-5.31,5.18-7.44,10.13-7.55.19-.98.6-1.99,1.3-1.99.41,0,.63.49,1.08.49.92,0,1.35-1.7,4.18-1.7,2.28,0,5.7,3.33,5.7,4.73s-1.93,1.19-3.87,1.67c1.24,1.41,1.99,3.28,1.99,5.6,0,8.29-6.54,9.92-6.54,11.87,0,.03.05.25.14.62.09.38.4,1.56.41,1.58.3.99.89,1.86,1.74,2.44.08.05.16.11.25.16,2.09,1.29,4.44,2.71,6.77,4.45,3.59,2.66,5.36,7.15,4.53,11.55-1.13,5.95-2.64,10.75-4.52,14.81-.89,1.91-1.85,3.66-2.89,5.29-2.41,3.77-7.16,5.35-11.36,3.8-1.55-.57-2.92-1.22-4.24-1.93"/>
      <path class="cls-23" d="m653.03,398.98c-1.08,1.8-1.86,3.8-2.22,5.84,1.2-.73,2.71-1.5,4.11-2.01.38,1.24.63,2.55.77,3.86,4.45-1.86,6.7-4.63,8.09-6.98"/>
      <path class="cls-23" d="m654.19,399.33c-.21,2.22.73,3.49.73,3.49,0,0,4.37-1.64,7.12-5.56"/>
      <path class="cls-23" d="m654.91,402.82c-2.13,5.03-2.13,12.1-2.13,12.1"/>
      <path class="cls-23" d="m633.79,420.78l-2.85-5.63c-.16-.31-.37-.59-.62-.83-.22-.21-.46-.4-.73-.53l-8.45-4.34c-.16-.08-.35-.06-.48.07-.13.13-.15.32-.08.48l5.4,10.69"/>
      <path class="cls-23" d="m638.75,420.09v.21c0,1.63-.23,2.76-.63,3.84"/>
      <path class="cls-23" d="m637.15,418.23c-.2,1.51-.53,2.91-.87,4.03"/>
      <path class="cls-23" d="m635,540.08c0,.13,0,.26,0,.38.22,1.93,1.34,3.19,4.12,3.19.31,0,.62-.01.92-.01.56,0,.59.04,1.12.04,2.99,0,11.03-6.04,11.92-6.99.66-.8,1.06-1.53,1.06-2.11,0-.79-.07-1.38-.2-1.86-.42-1.67-1.42-1.98-1.82-4.63-.11-.71-.17-1.59-.17-2.7v-.92"/>
      <path class="cls-23" d="m644.66,524.12c0,.79.03,1.62.03,2.85,0,.65-.12,1.28-.33,1.9-1.68,4.99-9.37,8.8-9.37,11.08v.13"/>
      <path class="cls-23" d="m644.37,528.86c2.2.09,2.66,2.44,4.22,2.44,1.64,0,1.57-1.79,3.34-3.18"/>
      <path class="cls-23" d="m635,540.08c1.01.69,1.94,1.09,3.42,1.09,5.78,0,11.03-3.92,15.53-8.45"/>
      <path class="cls-23" d="m662.96,531s.04,1.65.04,2.47c0,.6-.01,1.19-.04,1.79"/>
      <path class="cls-23" d="m657.57,548.31c1.18.7,2.56,1.38,4.05,1.38,5.63,0,6.95-5.43,9.48-16.02"/>
    </g>
  </g>
</svg>