<?xml version="1.0" encoding="utf-8"?>
<svg id="Layer_1" data-name="Layer 1" viewBox="0 0 738.06 676" xmlns="http://www.w3.org/2000/svg">
  <defs>
    <style>
      .cls-1, .cls-2 {
        stroke: #3a3a3a;
      }

      .cls-1, .cls-2, .cls-3, .cls-4, .cls-5, .cls-6 {
        stroke-linecap: round;
        stroke-linejoin: round;
        stroke-width: 3px;
      }

      .cls-1, .cls-7 {
        fill: #fff;
      }

      .cls-8, .cls-9, .cls-7, .cls-10, .cls-11, .cls-12, .cls-13 {
        stroke-width: 0px;
      }

      .cls-8, .cls-4, .cls-14 {
        fill: #b584ed;
      }

      .cls-9, .cls-15 {
        fill: #373a3a;
      }

      .cls-2, .cls-3, .cls-5, .cls-6 {
        fill: none;
      }

      .cls-10 {
        fill: #5f646b;
      }

      .cls-3, .cls-4 {
        stroke: #373a3a;
      }

      .cls-11 {
        fill: #dae0e5;
      }

      .cls-15, .cls-14 {
        font-family: Montserrat-Bold, Montserrat;
        font-size: 20.17px;
        font-weight: 700;
      }

      .cls-5 {
        stroke: #969a9e;
      }

      .cls-12 {
        fill: #c2c7cc;
      }

      .cls-13 {
        fill: #969a9e;
      }

      .cls-6 {
        stroke: #fff;
      }
    </style>
  </defs>
  <g>
    <path class="cls-2" d="m648.07,416.53c-70.75,40.97-141.5,81.95-212.26,122.92-32.42,18.78-61.2,39.48-99.97,39.48-38.79,0-67.53-20.7-99.97-39.48-70.23-40.67-144.89-77.64-212.26-122.92-22.03-14.8-30.29-37.59-7.83-56.83,15.99-13.7,38.04-22.71,56.1-33.08,44.33-25.47,88.67-50.95,133-76.42,36.68-21.08,76.13-52.95,120.01-56.66,33.61-2.84,58.94,8.99,87.2,25.23,76.64,44.04,154.45,86.49,230.1,132.21,20.08,12.14,38.95,31.21,19.88,54.38-3.75,4.55-8.91,8.28-14.01,11.17h0Z"/>
    <path class="cls-1" d="m390.11,565.91c70.75-40.97,141.5-81.95,212.26-122.92,20.52-11.88,75.96-31.35,66.79-65.06-3.01-11.06-12.52-17.86-21.52-23.85-25.3-16.82-53.26-30.6-79.59-45.73-61.18-35.16-123.12-80.91-188.7-107.44-27.04-10.94-60.82-10.84-87.79.31-66.13,27.35-128.59,73.04-190.53,108.63-25.67,14.75-53.15,28.14-77.73,44.69-9.01,6.06-18.46,13.19-21.07,24.43-7.94,34.11,51.25,54.84,71.58,66.61,69.31,40.14,137.57,85.28,209.21,121.11,26.72,13.37,58.99,16.03,87.68,7.38,6.75-2.04,13.28-4.67,19.41-8.17h0Z"/>
  </g>
  <g>
    <g>
      <path class="cls-13" d="m663.32,187.65c1.24.72,2.05,2.32,1.8,3.61l-31.69,166.27c-.13.75-.6,1.23-1.21,1.34l-13.75,2.95h0c.61-.12,1.08-.58,1.21-1.33l30.67-164.21c.23-1.29-.57-2.89-1.8-3.61L409.18,54.48c-.51-.29-1.01-.38-1.43-.31l14.77-5.01c.42-.09.93.01,1.43.31l239.36,138.18Z"/>
      <path class="cls-7" d="m648.54,192.68c1.23.72,2.03,2.32,1.8,3.61l-30.67,164.21c-.13.75-.6,1.21-1.21,1.31-.41.1-.91.01-1.4-.26-.01,0-.03,0-.04-.01l-239.36-138.2c-1.23-.72-2.03-2.32-1.78-3.61l30.65-164.21c.13-.76.61-1.23,1.23-1.34.42-.08.92.01,1.43.31l239.36,138.2Zm-56.56,39.8c.48-2.4-1.02-5.43-3.33-6.76l-78.78-45.48c-1.17-.67-2.31-.79-3.21-.44s-1.59,1.15-1.83,2.35c-.48,2.41,1.01,5.42,3.33,6.76l78.78,45.48c1.15.67,2.29.79,3.21.44.91-.34,1.59-1.17,1.83-2.35Zm-7.39-28.01c.47-2.4-1.02-5.42-3.33-6.76l-114.33-65.99c-1.15-.67-2.29-.79-3.21-.44-.91.35-1.59,1.17-1.83,2.37-.48,2.38,1.01,5.42,3.33,6.75l114.31,66.01c1.15.67,2.29.77,3.21.44.92-.35,1.61-1.17,1.84-2.37Zm-13.24,87.25c.47-2.4-1.02-5.42-3.33-6.75l-46.01-26.56c-1.15-.67-2.31-.79-3.21-.44-.92.35-1.59,1.15-1.84,2.35-.47,2.41,1.02,5.43,3.33,6.76l46.02,26.56c1.15.67,2.29.79,3.2.44.92-.35,1.61-1.15,1.84-2.37Zm-10.01-53.21c.47-2.41-1.02-5.44-3.33-6.76l-100.65-58.11c-1.15-.67-2.29-.79-3.21-.45-.91.37-1.59,1.17-1.83,2.38-.47,2.38,1.01,5.41,3.33,6.75l100.65,58.11c1.15.67,2.29.77,3.2.44.92-.35,1.61-1.15,1.84-2.35Zm-42.31-.72c.47-2.4-1.02-5.42-3.33-6.76l-48.96-28.26c-1.15-.66-2.29-.77-3.2-.44-.92.35-1.61,1.17-1.84,2.37-.47,2.4,1.02,5.42,3.33,6.76l48.94,28.26c1.15.66,2.29.77,3.21.44.92-.35,1.59-1.17,1.84-2.37Zm-8.36,18.91c.48-2.4-1.02-5.42-3.33-6.75l-26.58-15.36c-1.15-.67-2.29-.77-3.21-.44-.92.35-1.59,1.15-1.84,2.35-.47,2.41,1.02,5.44,3.33,6.76l26.59,15.34c1.15.67,2.29.79,3.21.45.91-.35,1.59-1.17,1.83-2.37Zm-12.54-78.41c.47-2.4-1.02-5.42-3.33-6.76l-20.62-11.91c-1.15-.66-2.29-.77-3.21-.42s-1.61,1.15-1.84,2.35c-.47,2.41,1.02,5.44,3.33,6.76l20.63,11.91c1.15.66,2.29.77,3.2.44.92-.35,1.61-1.17,1.84-2.37Z"/>
      <path class="cls-9" d="m618.74,363.24v17.24c0,.54-.39,1.11-1.18,1.56l-156.84,90.55c-1.42.82-3.56.91-4.79.2l-239.36-138.2c-.56-.32-.83-.76-.83-1.21v-17.23c0,.45.28.88.83,1.2l239.36,138.2c1.23.7,3.37.61,4.79-.2l156.84-90.55c.79-.45,1.18-1.02,1.18-1.56Z"/>
      <path class="cls-7" d="m617.91,362.04c.56.32.83.75.83,1.2,0,.54-.39,1.11-1.18,1.56l-156.84,90.55c-1.42.82-3.56.91-4.79.2l-239.36-138.2c-.56-.32-.83-.75-.83-1.2,0-.54.39-1.12,1.18-1.58l156.84-90.55c1.4-.82,3.54-.91,4.76-.2l238.5,137.7s.03.01.04.01l.85.5Zm-45.82,1.01c1.21-.7,1.34-1.75.29-2.35l-11.75-6.78c-1.04-.6-2.86-.53-4.06.16l-11.16,6.46c-1.21.69-1.34,1.74-.29,2.34l11.75,6.79c1.04.6,2.86.53,4.06-.18l11.16-6.44Zm-25.35-14.64c1.21-.7,1.33-1.75.29-2.35l-11.75-6.78c-1.04-.6-2.86-.53-4.06.18l-11.16,6.44c-1.21.69-1.34,1.74-.29,2.35l11.75,6.78c1.04.6,2.86.53,4.06-.18l11.16-6.44Zm-1.1,29.91c1.21-.7,1.34-1.75.29-2.35l-11.75-6.78c-1.04-.6-2.86-.53-4.06.16l-11.16,6.46c-1.21.69-1.33,1.74-.29,2.34l11.75,6.79c1.04.6,2.86.53,4.06-.18l11.16-6.44Zm-24.25-44.55c1.2-.69,1.33-1.74.29-2.35l-11.75-6.78c-1.05-.6-2.86-.53-4.08.18l-11.16,6.44c-1.2.69-1.33,1.74-.29,2.35l11.75,6.78c1.05.6,2.86.53,4.08-.18l11.16-6.44Zm-1.1,29.91c1.21-.7,1.34-1.75.29-2.35l-11.75-6.78c-1.04-.6-2.86-.53-4.06.18l-11.16,6.44c-1.21.69-1.34,1.74-.29,2.34l11.75,6.79c1.04.6,2.86.53,4.06-.18l11.16-6.44Zm-1.1,29.91c1.21-.7,1.34-1.75.29-2.35l-36.91-21.3c-1.04-.61-2.86-.53-4.06.16l-11.16,6.44c-1.21.7-1.34,1.75-.29,2.35l36.91,21.32c1.04.6,2.86.53,4.06-.18l11.16-6.44Zm-23.16-74.45c1.2-.69,1.33-1.74.29-2.34l-11.75-6.79c-1.05-.6-2.86-.53-4.08.18l-11.16,6.44c-1.2.7-1.33,1.75-.29,2.35l11.75,6.78c1.04.6,2.86.53,4.08-.18l11.16-6.44Zm-.92,88.54c1.2-.7,1.33-1.75.29-2.35l-11.75-6.78c-1.05-.61-2.86-.53-4.08.16l-11.16,6.44c-1.2.7-1.33,1.75-.29,2.35l11.75,6.78c1.05.6,2.86.53,4.08-.16l11.16-6.44Zm-.18-58.63c1.2-.69,1.33-1.74.29-2.35l-11.75-6.78c-1.05-.6-2.86-.53-4.08.18l-11.16,6.44c-1.2.69-1.33,1.74-.29,2.35l11.75,6.78c1.05.6,2.86.53,4.08-.18l11.16-6.44Zm-24.27-44.53c1.21-.7,1.34-1.75.29-2.35l-11.75-6.78c-1.04-.61-2.86-.54-4.06.16l-11.16,6.44c-1.21.7-1.34,1.75-.29,2.35l11.75,6.78c1.04.6,2.86.53,4.06-.16l11.16-6.44Zm-.83,88.57c1.2-.7,1.33-1.75.29-2.35l-11.75-6.78c-1.05-.61-2.88-.53-4.08.16l-11.16,6.44c-1.2.7-1.33,1.75-.29,2.35l11.75,6.78c1.04.6,2.86.53,4.08-.16l11.16-6.44Zm-.25-58.67c1.2-.69,1.33-1.74.29-2.34l-11.75-6.79c-1.05-.6-2.86-.53-4.08.18l-11.16,6.44c-1.2.7-1.33,1.75-.29,2.35l11.75,6.78c1.05.6,2.86.53,4.08-.18l11.16-6.44Zm-1.1,29.91c1.2-.69,1.33-1.74.29-2.35l-11.75-6.78c-1.04-.6-2.86-.53-4.08.18l-11.16,6.44c-1.2.69-1.33,1.74-.29,2.35l11.75,6.78c1.05.6,2.86.53,4.08-.18l11.16-6.44Zm-23.17-74.44c1.21-.7,1.33-1.75.29-2.35l-11.75-6.78c-1.04-.61-2.86-.53-4.06.16l-11.16,6.44c-1.21.7-1.34,1.75-.29,2.35l11.75,6.78c1.04.6,2.86.53,4.06-.16l11.16-6.44Zm-.77,88.61c1.21-.7,1.34-1.75.29-2.35l-88.25-50.95c-1.04-.61-2.86-.53-4.06.16l-11.16,6.44c-1.21.7-1.34,1.75-.29,2.35l88.25,50.95c1.04.61,2.86.53,4.06-.16l11.16-6.44Zm-.32-58.7c1.21-.7,1.34-1.75.29-2.35l-11.75-6.78c-1.04-.61-2.86-.54-4.06.16l-11.16,6.44c-1.21.7-1.34,1.75-.29,2.35l11.75,6.78c1.04.6,2.86.53,4.06-.16l11.16-6.44Zm-1.08,29.89c1.2-.69,1.33-1.74.29-2.34l-11.75-6.79c-1.05-.6-2.86-.53-4.08.18l-11.16,6.44c-1.2.7-1.33,1.75-.29,2.35l11.75,6.78c1.05.6,2.86.53,4.08-.18l11.16-6.44Zm-23.17-74.44c1.2-.7,1.33-1.75.29-2.35l-11.75-6.78c-1.05-.6-2.86-.53-4.08.16l-11.16,6.44c-1.2.7-1.33,1.75-.29,2.35l11.75,6.78c1.05.61,2.86.53,4.08-.16l11.16-6.44Zm-1.1,29.91c1.21-.7,1.33-1.75.29-2.35l-11.75-6.78c-1.04-.61-2.86-.53-4.06.16l-11.16,6.44c-1.21.7-1.34,1.75-.29,2.35l11.75,6.78c1.04.6,2.86.53,4.06-.16l11.16-6.44Zm-1.1,29.89c1.21-.69,1.34-1.74.29-2.34l-11.75-6.78c-1.04-.61-2.86-.54-4.06.16l-11.16,6.44c-1.21.7-1.33,1.75-.29,2.35l11.75,6.78c1.04.6,2.86.53,4.06-.16l11.16-6.46Zm-23.16-74.44c1.2-.7,1.33-1.75.29-2.35l-11.75-6.78c-1.05-.6-2.86-.53-4.08.18l-11.16,6.44c-1.2.69-1.33,1.74-.29,2.34l11.75,6.79c1.04.6,2.86.53,4.08-.18l11.16-6.44Zm-1.1,29.91c1.2-.7,1.33-1.75.29-2.35l-11.75-6.78c-1.05-.6-2.86-.53-4.08.16l-11.16,6.44c-1.2.7-1.33,1.75-.29,2.35l11.75,6.78c1.05.61,2.86.53,4.08-.16l11.16-6.44Zm-1.1,29.91c1.21-.7,1.34-1.75.29-2.35l-11.75-6.78c-1.04-.61-2.86-.53-4.06.16l-11.16,6.44c-1.21.7-1.34,1.75-.29,2.35l11.75,6.78c1.04.6,2.86.53,4.06-.16l11.16-6.44Zm-24.25-44.55c1.2-.7,1.33-1.75.29-2.35l-11.75-6.78c-1.05-.6-2.86-.53-4.08.18l-11.16,6.44c-1.2.69-1.33,1.74-.29,2.34l11.75,6.79c1.04.6,2.86.53,4.08-.18l11.16-6.44Zm-1.18,29.85c1.2-.69,1.33-1.74.29-2.34l-37.01-21.37c-1.05-.6-2.86-.53-4.08.18l-11.16,6.44c-1.2.69-1.33,1.74-.29,2.34l37.01,21.37c1.05.6,2.86.53,4.08-.18l11.16-6.44Zm-24.22,14.01c1.2-.7,1.33-1.75.29-2.35l-11.75-6.78c-1.04-.61-2.86-.53-4.08.16l-11.16,6.44c-1.2.7-1.33,1.75-.29,2.35l11.75,6.78c1.05.6,2.88.53,4.08-.16l11.16-6.44Zm-25.28-14.6c1.2-.7,1.33-1.75.29-2.35l-11.75-6.78c-1.05-.6-2.86-.53-4.08.16l-11.16,6.44c-1.2.7-1.33,1.75-.29,2.35l11.75,6.78c1.05.61,2.86.53,4.08-.16l11.16-6.44Z"/>
      <path class="cls-12" d="m588.66,225.71c2.31,1.33,3.81,4.37,3.33,6.76-.23,1.18-.92,2.02-1.83,2.35-.92.35-2.06.23-3.21-.44l-78.78-45.48c-2.32-1.34-3.81-4.35-3.33-6.76.23-1.2.92-2,1.83-2.35s2.05-.23,3.21.44l78.78,45.48Z"/>
      <path class="cls-12" d="m581.26,197.7c2.31,1.34,3.8,4.37,3.33,6.76-.23,1.2-.92,2.02-1.84,2.37-.92.34-2.06.23-3.21-.44l-114.31-66.01c-2.32-1.33-3.81-4.37-3.33-6.75.23-1.2.92-2.02,1.83-2.37.92-.35,2.06-.23,3.21.44l114.33,65.99Z"/>
      <path class="cls-7" d="m572.38,360.7c1.05.6.92,1.65-.29,2.35l-11.16,6.44c-1.2.7-3.02.77-4.06.18l-11.75-6.79c-1.05-.6-.92-1.65.29-2.34l11.16-6.46c1.2-.69,3.02-.76,4.06-.16l11.75,6.78Z"/>
      <path class="cls-13" d="m568.03,284.97c2.31,1.33,3.8,4.35,3.33,6.75-.23,1.21-.92,2.02-1.84,2.37-.91.35-2.05.23-3.2-.44l-46.02-26.56c-2.31-1.33-3.8-4.35-3.33-6.76.25-1.2.92-2,1.84-2.35.91-.35,2.06-.23,3.21.44l46.01,26.56Z"/>
      <path class="cls-13" d="m558.02,231.75c2.31,1.33,3.8,4.35,3.33,6.76-.23,1.2-.92,2-1.84,2.35-.91.34-2.05.23-3.2-.44l-100.65-58.11c-2.32-1.34-3.8-4.37-3.33-6.75.23-1.21.92-2.02,1.83-2.38.92-.34,2.06-.22,3.21.45l100.65,58.11Z"/>
      <path class="cls-7" d="m547.03,346.06c1.04.6.92,1.65-.29,2.35l-11.16,6.44c-1.2.7-3.02.77-4.06.18l-11.75-6.78c-1.05-.61-.92-1.67.29-2.35l11.16-6.44c1.2-.7,3.02-.77,4.06-.18l11.75,6.78Z"/>
      <path class="cls-7" d="m545.94,375.96c1.05.6.92,1.65-.29,2.35l-11.16,6.44c-1.2.7-3.02.77-4.06.18l-11.75-6.79c-1.04-.6-.92-1.65.29-2.34l11.16-6.46c1.2-.69,3.02-.76,4.06-.16l11.75,6.78Z"/>
      <path class="cls-7" d="m521.68,331.42c1.04.61.91,1.67-.29,2.35l-11.16,6.44c-1.21.7-3.02.77-4.08.18l-11.75-6.78c-1.04-.61-.91-1.67.29-2.35l11.16-6.44c1.21-.7,3.02-.77,4.08-.18l11.75,6.78Z"/>
      <path class="cls-7" d="m520.59,361.32c1.05.6.92,1.65-.29,2.35l-11.16,6.44c-1.2.7-3.02.77-4.06.18l-11.75-6.79c-1.05-.6-.92-1.65.29-2.34l11.16-6.44c1.2-.7,3.02-.77,4.06-.18l11.75,6.78Z"/>
      <path class="cls-10" d="m519.49,391.23c1.05.6.92,1.65-.29,2.35l-11.16,6.44c-1.2.7-3.02.77-4.06.18l-36.91-21.32c-1.05-.6-.92-1.65.29-2.35l11.16-6.44c1.2-.69,3.02-.77,4.06-.16l36.91,21.3Z"/>
      <path class="cls-12" d="m515.71,231.03c2.31,1.34,3.8,4.37,3.33,6.76-.25,1.2-.92,2.02-1.84,2.37-.92.34-2.06.22-3.21-.44l-48.94-28.26c-2.31-1.34-3.8-4.37-3.33-6.76.23-1.2.92-2.02,1.84-2.37.91-.34,2.05-.22,3.2.44l48.96,28.26Z"/>
      <path class="cls-9" d="m507.35,249.95c2.31,1.33,3.81,4.35,3.33,6.75-.23,1.2-.92,2.02-1.83,2.37-.92.34-2.06.22-3.21-.45l-26.59-15.34c-2.31-1.33-3.8-4.35-3.33-6.76.25-1.2.92-2,1.84-2.35.92-.34,2.06-.23,3.21.44l26.58,15.36Z"/>
      <path class="cls-9" d="m494.82,171.52c2.31,1.34,3.8,4.37,3.33,6.76-.23,1.2-.92,2.02-1.84,2.37-.91.34-2.05.22-3.2-.44l-20.63-11.91c-2.31-1.33-3.8-4.35-3.33-6.76.23-1.2.92-2,1.84-2.35s2.06-.23,3.21.42l20.62,11.91Z"/>
      <path class="cls-7" d="m496.33,316.79c1.04.6.91,1.65-.29,2.34l-11.16,6.44c-1.21.7-3.04.77-4.08.18l-11.75-6.78c-1.04-.6-.91-1.65.29-2.35l11.16-6.44c1.21-.7,3.02-.77,4.08-.18l11.75,6.79Z"/>
      <path class="cls-7" d="m495.41,405.32c1.04.6.91,1.65-.29,2.35l-11.16,6.44c-1.21.69-3.02.76-4.08.16l-11.75-6.78c-1.04-.6-.91-1.65.29-2.35l11.16-6.44c1.21-.69,3.02-.77,4.08-.16l11.75,6.78Z"/>
      <path class="cls-7" d="m495.24,346.68c1.04.61.91,1.67-.29,2.35l-11.16,6.44c-1.21.7-3.02.77-4.08.18l-11.75-6.78c-1.04-.61-.91-1.67.29-2.35l11.16-6.44c1.21-.7,3.02-.77,4.08-.18l11.75,6.78Z"/>
      <path class="cls-7" d="m470.97,302.15c1.05.6.92,1.65-.29,2.35l-11.16,6.44c-1.2.69-3.02.76-4.06.16l-11.75-6.78c-1.05-.6-.92-1.65.29-2.35l11.16-6.44c1.2-.7,3.02-.77,4.06-.16l11.75,6.78Z"/>
      <path class="cls-7" d="m470.14,390.72c1.04.6.91,1.65-.29,2.35l-11.16,6.44c-1.21.69-3.04.76-4.08.16l-11.75-6.78c-1.04-.6-.91-1.65.29-2.35l11.16-6.44c1.2-.69,3.02-.77,4.08-.16l11.75,6.78Z"/>
      <path class="cls-7" d="m469.89,332.06c1.04.6.91,1.65-.29,2.34l-11.16,6.44c-1.21.7-3.02.77-4.08.18l-11.75-6.78c-1.04-.6-.91-1.65.29-2.35l11.16-6.44c1.21-.7,3.02-.77,4.08-.18l11.75,6.79Z"/>
      <path class="cls-7" d="m468.79,361.95c1.04.61.91,1.67-.29,2.35l-11.16,6.44c-1.21.7-3.02.77-4.08.18l-11.75-6.78c-1.04-.61-.91-1.67.29-2.35l11.16-6.44c1.21-.7,3.04-.77,4.08-.18l11.75,6.78Z"/>
      <path class="cls-7" d="m445.62,287.51c1.04.6.92,1.65-.29,2.35l-11.16,6.44c-1.2.69-3.02.76-4.06.16l-11.75-6.78c-1.05-.6-.92-1.65.29-2.35l11.16-6.44c1.2-.69,3.02-.77,4.06-.16l11.75,6.78Z"/>
      <path class="cls-10" d="m444.85,376.12c1.05.6.92,1.65-.29,2.35l-11.16,6.44c-1.2.69-3.02.77-4.06.16l-88.25-50.95c-1.05-.6-.92-1.65.29-2.35l11.16-6.44c1.2-.69,3.02-.77,4.06-.16l88.25,50.95Z"/>
      <path class="cls-7" d="m444.53,317.42c1.05.6.92,1.65-.29,2.35l-11.16,6.44c-1.2.69-3.02.76-4.06.16l-11.75-6.78c-1.05-.6-.92-1.65.29-2.35l11.16-6.44c1.2-.7,3.02-.77,4.06-.16l11.75,6.78Z"/>
      <path class="cls-7" d="m443.45,347.33c1.04.6.91,1.65-.29,2.34l-11.16,6.44c-1.21.7-3.02.77-4.08.18l-11.75-6.78c-1.04-.6-.91-1.65.29-2.35l11.16-6.44c1.21-.7,3.02-.77,4.08-.18l11.75,6.79Z"/>
      <path class="cls-7" d="m420.27,272.87c1.04.6.91,1.65-.29,2.35l-11.16,6.44c-1.21.69-3.02.77-4.08.16l-11.75-6.78c-1.04-.6-.91-1.65.29-2.35l11.16-6.44c1.21-.69,3.02-.76,4.08-.16l11.75,6.78Z"/>
      <path class="cls-7" d="m419.18,302.78c1.04.6.92,1.65-.29,2.35l-11.16,6.44c-1.2.69-3.02.76-4.06.16l-11.75-6.78c-1.05-.6-.92-1.65.29-2.35l11.16-6.44c1.2-.69,3.02-.77,4.06-.16l11.75,6.78Z"/>
      <path class="cls-7" d="m418.08,332.69c1.05.6.92,1.65-.29,2.34l-11.16,6.46c-1.2.69-3.02.76-4.06.16l-11.75-6.78c-1.04-.6-.92-1.65.29-2.35l11.16-6.44c1.2-.7,3.02-.77,4.06-.16l11.75,6.78Z"/>
      <path class="cls-7" d="m394.92,258.23c1.04.6.91,1.65-.29,2.35l-11.16,6.44c-1.21.7-3.04.77-4.08.18l-11.75-6.79c-1.04-.6-.91-1.65.29-2.34l11.16-6.44c1.21-.7,3.02-.77,4.08-.18l11.75,6.78Z"/>
      <path class="cls-7" d="m393.83,288.14c1.04.6.91,1.65-.29,2.35l-11.16,6.44c-1.21.69-3.02.77-4.08.16l-11.75-6.78c-1.04-.6-.91-1.65.29-2.35l11.16-6.44c1.21-.69,3.02-.76,4.08-.16l11.75,6.78Z"/>
      <path class="cls-8" d="m392.73,317.8c1.05.58.92,1.59-.29,2.27l-11.16,6.22c-1.2.66-3.02.73-4.06.16l-11.75-6.55c-1.05-.58-.92-1.59.29-2.27l11.16-6.22c1.2-.66,3.02-.75,4.06-.16l11.75,6.55Z" style="fill: rgb(22, 50, 88);"/>
      <path class="cls-7" d="m368.48,273.5c1.04.6.91,1.65-.29,2.35l-11.16,6.44c-1.21.7-3.04.77-4.08.18l-11.75-6.79c-1.04-.6-.91-1.65.29-2.34l11.16-6.44c1.21-.7,3.02-.77,4.08-.18l11.75,6.78Z"/>
      <path class="cls-10" d="m367.3,303.36c1.04.6.91,1.65-.29,2.34l-11.16,6.44c-1.21.7-3.02.77-4.08.18l-37.01-21.37c-1.04-.6-.91-1.65.29-2.34l11.16-6.44c1.21-.7,3.02-.77,4.08-.18l37.01,21.37Z"/>
      <path class="cls-7" d="m343.07,317.36c1.04.6.91,1.65-.29,2.35l-11.16,6.44c-1.2.69-3.02.76-4.08.16l-11.75-6.78c-1.04-.6-.91-1.65.29-2.35l11.16-6.44c1.21-.69,3.04-.77,4.08-.16l11.75,6.78Z"/>
      <path class="cls-7" d="m317.8,302.77c1.04.6.91,1.65-.29,2.35l-11.16,6.44c-1.21.69-3.02.77-4.08.16l-11.75-6.78c-1.04-.6-.91-1.65.29-2.35l11.16-6.44c1.21-.69,3.02-.76,4.08-.16l11.75,6.78Z"/>
    </g>
    <g>
      <path class="cls-2" d="m617.06,361.54l.85.5c.56.32.83.75.83,1.2,0,.54-.39,1.11-1.18,1.56l-156.84,90.55c-1.42.82-3.56.91-4.79.2l-239.36-138.2c-.56-.32-.83-.75-.83-1.2,0-.54.39-1.12,1.18-1.58l156.84-90.55c1.4-.82,3.54-.91,4.76-.2"/>
      <path class="cls-2" d="m617.06,361.54s-.03,0-.04-.01l-239.36-138.2c-1.23-.72-2.03-2.32-1.78-3.61l30.65-164.21c.13-.76.61-1.23,1.23-1.34.42-.08.92.01,1.43.31l239.36,138.2c1.23.72,2.03,2.32,1.8,3.61l-30.67,164.21c-.13.75-.6,1.21-1.21,1.31-.41.1-.91.01-1.4-.26Z"/>
      <path class="cls-2" d="m351.77,312.32l-37.01-21.37c-1.04-.6-.91-1.65.29-2.34l11.16-6.44c1.21-.7,3.02-.77,4.08-.18l37.01,21.37c1.04.6.91,1.65-.29,2.34l-11.16,6.44c-1.21.7-3.02.77-4.08.18Z"/>
      <path class="cls-2" d="m377.22,327l-11.75-6.78c-1.05-.6-.92-1.65.29-2.35l11.16-6.44c1.2-.69,3.02-.77,4.06-.16l11.75,6.78c1.05.6.92,1.65-.29,2.35l-11.16,6.44c-1.2.69-3.02.76-4.06.16Z"/>
      <path class="cls-2" d="m402.57,341.64l-11.75-6.78c-1.04-.6-.92-1.65.29-2.35l11.16-6.44c1.2-.7,3.02-.77,4.06-.16l11.75,6.78c1.05.6.92,1.65-.29,2.34l-11.16,6.46c-1.2.69-3.02.76-4.06.16Z"/>
      <path class="cls-2" d="m427.91,356.28l-11.75-6.78c-1.04-.6-.91-1.65.29-2.35l11.16-6.44c1.21-.7,3.02-.77,4.08-.18l11.75,6.79c1.04.6.91,1.65-.29,2.34l-11.16,6.44c-1.21.7-3.02.77-4.08.18Z"/>
      <path class="cls-2" d="m453.26,370.92l-11.75-6.78c-1.04-.61-.91-1.67.29-2.35l11.16-6.44c1.21-.7,3.04-.77,4.08-.18l11.75,6.78c1.04.61.91,1.67-.29,2.35l-11.16,6.44c-1.21.7-3.02.77-4.08.18Z"/>
      <path class="cls-2" d="m503.98,400.2l-36.91-21.32c-1.05-.6-.92-1.65.29-2.35l11.16-6.44c1.2-.69,3.02-.77,4.06-.16l36.91,21.3c1.05.6.92,1.65-.29,2.35l-11.16,6.44c-1.2.7-3.02.77-4.06.18Z"/>
      <path class="cls-2" d="m352.95,282.47l-11.75-6.79c-1.04-.6-.91-1.65.29-2.34l11.16-6.44c1.21-.7,3.02-.77,4.08-.18l11.75,6.78c1.04.6.91,1.65-.29,2.35l-11.16,6.44c-1.21.7-3.04.77-4.08.18Z"/>
      <path class="cls-2" d="m378.3,297.1l-11.75-6.78c-1.04-.6-.91-1.65.29-2.35l11.16-6.44c1.21-.69,3.02-.76,4.08-.16l11.75,6.78c1.04.6.91,1.65-.29,2.35l-11.16,6.44c-1.21.69-3.02.77-4.08.16Z"/>
      <path class="cls-2" d="m403.66,311.74l-11.75-6.78c-1.05-.6-.92-1.65.29-2.35l11.16-6.44c1.2-.69,3.02-.77,4.06-.16l11.75,6.78c1.04.6.92,1.65-.29,2.35l-11.16,6.44c-1.2.69-3.02.76-4.06.16Z"/>
      <path class="cls-2" d="m429.01,326.38l-11.75-6.78c-1.05-.6-.92-1.65.29-2.35l11.16-6.44c1.2-.7,3.02-.77,4.06-.16l11.75,6.78c1.05.6.92,1.65-.29,2.35l-11.16,6.44c-1.2.69-3.02.76-4.06.16Z"/>
      <path class="cls-2" d="m454.36,341.02l-11.75-6.78c-1.04-.6-.91-1.65.29-2.35l11.16-6.44c1.21-.7,3.02-.77,4.08-.18l11.75,6.79c1.04.6.91,1.65-.29,2.34l-11.16,6.44c-1.21.7-3.02.77-4.08.18Z"/>
      <path class="cls-2" d="m479.71,355.66l-11.75-6.78c-1.04-.61-.91-1.67.29-2.35l11.16-6.44c1.21-.7,3.02-.77,4.08-.18l11.75,6.78c1.04.61.91,1.67-.29,2.35l-11.16,6.44c-1.21.7-3.02.77-4.08.18Z"/>
      <path class="cls-2" d="m505.07,370.29l-11.75-6.79c-1.05-.6-.92-1.65.29-2.34l11.16-6.44c1.2-.7,3.02-.77,4.06-.18l11.75,6.78c1.05.6.92,1.65-.29,2.35l-11.16,6.44c-1.2.7-3.02.77-4.06.18Z"/>
      <path class="cls-2" d="m530.42,384.93l-11.75-6.79c-1.04-.6-.92-1.65.29-2.34l11.16-6.46c1.2-.69,3.02-.76,4.06-.16l11.75,6.78c1.05.6.92,1.65-.29,2.35l-11.16,6.44c-1.2.7-3.02.77-4.06.18Z"/>
      <path class="cls-2" d="m379.39,267.2l-11.75-6.79c-1.04-.6-.91-1.65.29-2.34l11.16-6.44c1.21-.7,3.02-.77,4.08-.18l11.75,6.78c1.04.6.91,1.65-.29,2.35l-11.16,6.44c-1.21.7-3.04.77-4.08.18Z"/>
      <path class="cls-2" d="m404.74,281.83l-11.75-6.78c-1.04-.6-.91-1.65.29-2.35l11.16-6.44c1.21-.69,3.02-.76,4.08-.16l11.75,6.78c1.04.6.91,1.65-.29,2.35l-11.16,6.44c-1.21.69-3.02.77-4.08.16Z"/>
      <path class="cls-2" d="m430.11,296.47l-11.75-6.78c-1.05-.6-.92-1.65.29-2.35l11.16-6.44c1.2-.69,3.02-.77,4.06-.16l11.75,6.78c1.04.6.92,1.65-.29,2.35l-11.16,6.44c-1.2.69-3.02.76-4.06.16Z"/>
      <path class="cls-2" d="m455.46,311.11l-11.75-6.78c-1.05-.6-.92-1.65.29-2.35l11.16-6.44c1.2-.7,3.02-.77,4.06-.16l11.75,6.78c1.05.6.92,1.65-.29,2.35l-11.16,6.44c-1.2.69-3.02.76-4.06.16Z"/>
      <path class="cls-2" d="m480.8,325.75l-11.75-6.78c-1.04-.6-.91-1.65.29-2.35l11.16-6.44c1.21-.7,3.02-.77,4.08-.18l11.75,6.79c1.04.6.91,1.65-.29,2.34l-11.16,6.44c-1.21.7-3.04.77-4.08.18Z"/>
      <path class="cls-2" d="m506.15,340.39l-11.75-6.78c-1.04-.61-.91-1.67.29-2.35l11.16-6.44c1.21-.7,3.02-.77,4.08-.18l11.75,6.78c1.04.61.91,1.67-.29,2.35l-11.16,6.44c-1.21.7-3.02.77-4.08.18Z"/>
      <path class="cls-2" d="m531.52,355.03l-11.75-6.78c-1.05-.61-.92-1.67.29-2.35l11.16-6.44c1.2-.7,3.02-.77,4.06-.18l11.75,6.78c1.04.6.92,1.65-.29,2.35l-11.16,6.44c-1.2.7-3.02.77-4.06.18Z"/>
      <path class="cls-2" d="m556.87,369.67l-11.75-6.79c-1.05-.6-.92-1.65.29-2.34l11.16-6.46c1.2-.69,3.02-.76,4.06-.16l11.75,6.78c1.05.6.92,1.65-.29,2.35l-11.16,6.44c-1.2.7-3.02.77-4.06.18Z"/>
      <path class="cls-2" d="m302.27,311.72l-11.75-6.78c-1.04-.6-.91-1.65.29-2.35l11.16-6.44c1.21-.69,3.02-.76,4.08-.16l11.75,6.78c1.04.6.91,1.65-.29,2.35l-11.16,6.44c-1.21.69-3.02.77-4.08.16Z"/>
      <path class="cls-2" d="m327.54,326.32l-11.75-6.78c-1.04-.6-.91-1.65.29-2.35l11.16-6.44c1.21-.69,3.04-.77,4.08-.16l11.75,6.78c1.04.6.91,1.65-.29,2.35l-11.16,6.44c-1.2.69-3.02.76-4.08.16Z"/>
      <path class="cls-2" d="m454.61,399.68l-11.75-6.78c-1.04-.6-.91-1.65.29-2.35l11.16-6.44c1.2-.69,3.02-.77,4.08-.16l11.75,6.78c1.04.6.91,1.65-.29,2.35l-11.16,6.44c-1.21.69-3.04.76-4.08.16Z"/>
      <path class="cls-2" d="m479.88,414.27l-11.75-6.78c-1.04-.6-.91-1.65.29-2.35l11.16-6.44c1.21-.69,3.02-.77,4.08-.16l11.75,6.78c1.04.6.91,1.65-.29,2.35l-11.16,6.44c-1.21.69-3.02.76-4.08.16Z"/>
      <path class="cls-2" d="m429.33,385.08l-88.25-50.95c-1.05-.6-.92-1.65.29-2.35l11.16-6.44c1.2-.69,3.02-.77,4.06-.16l88.25,50.95c1.05.6.92,1.65-.29,2.35l-11.16,6.44c-1.2.69-3.02.77-4.06.16Z"/>
      <path class="cls-2" d="m215.73,316.16v17.23c0,.45.28.89.83,1.21l239.36,138.2c1.23.7,3.37.61,4.79-.2l156.84-90.55c.79-.45,1.18-1.02,1.18-1.56v-17.24"/>
      <path class="cls-2" d="m407.75,54.17l14.77-5.01c.42-.09.93.01,1.43.31l239.36,138.18c1.24.72,2.05,2.32,1.8,3.61l-31.69,166.27c-.13.75-.6,1.23-1.21,1.34l-13.75,2.95"/>
      <polyline class="cls-2" points="439.88 108.83 448.22 125.73 435.6 130.55"/>
      <polyline class="cls-2" points="427.14 173.41 435.48 190.33 422.85 195.13"/>
      <path class="cls-2" d="m579.54,206.4l-114.31-66.01c-2.32-1.33-3.81-4.37-3.33-6.75.23-1.2.92-2.02,1.83-2.37.92-.35,2.06-.23,3.21.44l114.33,65.99c2.31,1.34,3.8,4.37,3.33,6.76-.23,1.2-.92,2.02-1.84,2.37-.92.34-2.06.23-3.21-.44Z"/>
      <path class="cls-2" d="m493.11,180.21l-20.63-11.91c-2.31-1.33-3.8-4.35-3.33-6.76.23-1.2.92-2,1.84-2.35s2.06-.23,3.21.42l20.62,11.91c2.31,1.34,3.8,4.37,3.33,6.76-.23,1.2-.92,2.02-1.84,2.37-.91.34-2.05.22-3.2-.44Z"/>
      <path class="cls-2" d="m586.95,234.39l-78.78-45.48c-2.32-1.34-3.81-4.35-3.33-6.76.23-1.2.92-2,1.83-2.35s2.05-.23,3.21.44l78.78,45.48c2.31,1.33,3.81,4.37,3.33,6.76-.23,1.18-.92,2.02-1.83,2.35-.92.35-2.06.23-3.21-.44Z"/>
      <path class="cls-2" d="m556.31,240.42l-100.65-58.11c-2.32-1.34-3.8-4.37-3.33-6.75.23-1.21.92-2.02,1.83-2.38.92-.34,2.06-.22,3.21.45l100.65,58.11c2.31,1.33,3.8,4.35,3.33,6.76-.23,1.2-.92,2-1.84,2.35-.91.34-2.05.23-3.2-.44Z"/>
      <path class="cls-2" d="m513.98,239.72l-48.94-28.26c-2.31-1.34-3.8-4.37-3.33-6.76.23-1.2.92-2.02,1.84-2.37.91-.34,2.05-.22,3.2.44l48.96,28.26c2.31,1.34,3.8,4.37,3.33,6.76-.25,1.2-.92,2.02-1.84,2.37-.92.34-2.06.22-3.21-.44Z"/>
      <path class="cls-2" d="m505.64,258.61l-26.59-15.34c-2.31-1.33-3.8-4.35-3.33-6.76.25-1.2.92-2,1.84-2.35.92-.34,2.06-.23,3.21.44l26.58,15.36c2.31,1.33,3.81,4.35,3.33,6.75-.23,1.2-.92,2.02-1.83,2.37-.92.34-2.06.22-3.21-.45Z"/>
      <path class="cls-2" d="m566.32,293.65l-46.02-26.56c-2.31-1.33-3.8-4.35-3.33-6.76.25-1.2.92-2,1.84-2.35.91-.35,2.06-.23,3.21.44l46.01,26.56c2.31,1.33,3.8,4.35,3.33,6.75-.23,1.21-.92,2.02-1.84,2.37-.91.35-2.05.23-3.2-.44Z"/>
    </g>
  </g>
  <g>
    <g/>
    <g/>
  </g>
  <g>
    <path class="cls-9" d="m409.77,217.98v62.63c0,4.26-2.6,6.22-5.79,4.37l-100.44-57.98c-3.2-1.85-5.79-6.8-5.79-11.06v-62.63c0-4.26,2.59-6.22,5.79-4.37l100.44,57.98c3.19,1.85,5.79,6.8,5.79,11.06Z" style="fill: rgb(22, 50, 88);"/>
    <g>
      <path class="cls-2" d="m403.98,284.98l-100.44-57.98c-3.2-1.85-5.79-6.8-5.79-11.06v-62.63c0-4.26,2.59-6.22,5.79-4.37l100.44,57.98c3.19,1.85,5.79,6.8,5.79,11.06v62.63c0,4.26-2.6,6.22-5.79,4.37Z"/>
      <polyline class="cls-6" points="315.64 169.86 324.34 184.93 315.64 189.95"/>
      <line class="cls-6" x1="335.89" y1="191.91" x2="363.28" y2="207.73"/>
      <line class="cls-5" x1="344.64" y1="212.43" x2="388.17" y2="237.55"/>
      <line class="cls-6" x1="326.64" y1="217.48" x2="384.57" y2="250.92"/>
    </g>
  </g>
  <g>
    <g>
      <polygon class="cls-7" points="635.75 77.53 638.37 87.34 629.1 81.98 635.75 77.53"/>
      <polygon class="cls-7" points="623.41 105.46 617.87 125.07 603.82 116.97 609.36 97.35 623.41 105.46"/>
      <polygon class="cls-11" points="608.59 47.83 612.99 64.27 597.46 55.3 608.59 47.83"/>
      <path class="cls-7" d="m606.07,6.23c2.3,1.33,3.65,4.26,3,6.55-.65,2.29-3.04,3.07-5.35,1.74-2.3-1.33-3.64-4.26-3-6.56.65-2.28,3.04-3.06,5.35-1.73Z"/>
      <polygon class="cls-9" points="583.02 86.08 581.13 92.77 574.38 88.88 576.28 82.18 583.02 86.08"/>
      <polygon class="cls-7" points="578.87 30.31 572.76 51.9 565.14 47.49 571.23 25.9 578.87 30.31"/>
      <polygon class="cls-7" points="571.61 119.99 563.27 149.51 552.83 143.49 561.17 113.97 571.61 119.99"/>
      <polygon class="cls-7" points="549.26 42.49 546.11 53.66 534.86 47.17 538.02 36 549.26 42.49"/>
      <polygon class="cls-11" points="548.89 88.23 546.26 97.52 526.51 86.11 529.13 76.82 548.89 88.23"/>
      <path class="cls-9" d="m540.68,2.29c2.79,1.62,4.43,5.18,3.64,7.96s-3.69,3.72-6.49,2.1c-2.8-1.62-4.43-5.17-3.65-7.96.79-2.78,3.69-3.72,6.5-2.1Z"/>
      <polygon class="cls-8" points="518.74 40.44 513.21 60.05 493.45 48.65 498.99 29.04 518.74 40.44" style="fill: rgb(22, 50, 88);"/>
      <path class="cls-7" d="m491.09,98.59c3.3,1.9,5.22,6.1,4.3,9.38s-4.35,4.39-7.65,2.48c-3.3-1.9-5.22-6.11-4.3-9.38.93-3.28,4.34-4.39,7.65-2.48Z"/>
    </g>
    <g>
      <polygon class="cls-2" points="513.21 60.05 493.45 48.65 498.99 29.04 518.74 40.44 513.21 60.05"/>
      <polygon class="cls-2" points="546.26 97.52 526.51 86.11 529.13 76.82 548.89 88.23 546.26 97.52"/>
      <polygon class="cls-2" points="546.11 53.66 534.86 47.17 538.02 36 549.26 42.49 546.11 53.66"/>
      <polygon class="cls-2" points="572.76 51.9 565.14 47.49 571.23 25.9 578.87 30.31 572.76 51.9"/>
      <polygon class="cls-2" points="563.27 149.51 552.83 143.49 561.17 113.97 571.61 119.99 563.27 149.51"/>
      <polygon class="cls-2" points="581.13 92.77 574.38 88.88 576.28 82.18 583.02 86.08 581.13 92.77"/>
      <polygon class="cls-2" points="617.87 125.07 603.82 116.97 609.36 97.35 623.41 105.46 617.87 125.07"/>
      <path class="cls-2" d="m544.32,10.25c.79-2.78-.85-6.34-3.64-7.96-2.8-1.62-5.71-.67-6.5,2.1-.78,2.79.85,6.34,3.65,7.96,2.79,1.62,5.7.67,6.49-2.1Z"/>
      <path class="cls-2" d="m609.07,12.78c.65-2.28-.7-5.22-3-6.55s-4.7-.55-5.35,1.73c-.64,2.29.7,5.22,3,6.56,2.31,1.33,4.7.55,5.35-1.74Z"/>
      <path class="cls-2" d="m495.39,107.97c.93-3.28-1-7.47-4.3-9.38-3.3-1.91-6.72-.8-7.65,2.48-.93,3.27.99,7.47,4.3,9.38,3.3,1.9,6.72.8,7.65-2.48Z"/>
      <polygon class="cls-2" points="597.46 55.3 608.59 47.83 612.99 64.27 597.46 55.3"/>
      <polygon class="cls-2" points="629.1 81.98 635.75 77.53 638.37 87.34 629.1 81.98"/>
    </g>
  </g>
  <g>
    <g>
      <path class="cls-7" d="m231.07,318.49c3.4,6.07,5.69,11.56,5.66,15.15-.03,4.45-3.57,7.19-7.21,9.13-5.14,2.74-11.91,5.81-16.3,7.56-2.2.87-3.8,1.42-4.28,1.42-2.36,0-5.4-2.74-7.91-4.3-.4-.34-.81-.64-1.2-.92-1.23-.87-2.31-1.59-2.31-3.23,0-1.04.71-1.32,1.68-1.32,1.23,0,2.87.48,3.94.48,3.07,0,4.78-5.17,7.15-5.17.39,0,.84.08,1.39.24.48.15,1.03.36,1.67.66,4.75-3.69,6.69-4.99,7.98-5.69-1.4-2.95-2.72-5.49-3.94-7.7,4.33-3.08,8.71-5.19,13.67-6.29h.03Z"/>
      <path class="cls-12" d="m170.01,322.95c-1-10.36-7.9-20.8-10.15-31.11-2.67,1.1-5.03,2.49-7.15,4.23-3.23-1.56-5.21-4.73-5.21-12.78,0-1.03.06-2.04.21-3.02,8.12-7.6,17.4-12.3,24.42-11.13.42.07.84.16,1.24.27.15.04.3.1.44.15,1.04.38,2.09.77,3.16,1.19.52,5.49,5.81,8.85,11.62,8.85,1.77,0,4.03-.29,6.58-.94,2.16,1.04,4.29,2.1,6.38,3.17,1.88.97,3.57,2.19,5.05,3.63.16.16.32.31.47.47,5.99,6.13,17.22,20.46,23.99,32.55h-.03c-4.95,1.12-9.34,3.23-13.67,6.3-1.68-3.04-3.2-5.47-4.54-7.49-.51,6.2-1.2,12.41-1.2,18.32,0,.64.01,1.27.03,1.91-.55-.17-1-.24-1.39-.24-2.38,0-4.08,5.17-7.15,5.17-1.07,0-2.71-.48-3.94-.48-.96,0-1.68.29-1.68,1.32,0,1.64,1.08,2.36,2.31,3.23-.86.06-1.75.09-2.66.09-10.56,0-19.64-5.1-27.78-12.41.05-.36.09-.72.14-1.08,3.12-.36,5.95-3.1,5.95-4.36,0-.73-.73-.84-1.46-.84-1.14,0-2.75.34-4.03.66.08-1.11.13-2.21.13-3.29,0-.78-.04-1.56-.12-2.34Z" style="fill: rgb(22, 50, 88);"/>
      <path class="cls-9" d="m223.12,468.01c1.84,0,3.91.66,3.91,2.5,0,2.49-3.28,4.27-5.38,5.3-7.1,4.27-16.23,9.55-20.8,9.55-1.05,0-2.07-.34-3.06-.86-.75-.4-1.35-.98-1.77-1.67,10.71,2.52,15.3-7.72,15.64-14.02,1,.5,2.17.75,3.34.75,2.69,0,5.29-1.54,8.1-1.54Z"/>
      <path class="cls-7" d="m221.32,332.5c-1.29.71-3.23,2-7.98,5.69-.64-.3-1.19-.52-1.67-.66-.02-.64-.03-1.27-.03-1.91,0-5.9.69-12.11,1.2-18.32,1.34,2.01,2.86,4.44,4.54,7.49,1.22,2.21,2.54,4.75,3.94,7.7Z"/>
      <path class="cls-10" d="m190.37,391.32c-3.02,9.51-5.25,18.43-6.89,26.14-1.36,6.42-2.01,12.97-1.93,19.53.09,7.81.74,13.4.74,13.4.01.18.02.35.03.52.41,9.25-6.28,16.79-15.98,14.61-.34-.08-.7-.17-1.06-.27-1.01-.29-1.64-1.29-1.47-2.32,1.46-9,1.71-16.69-.34-37.45-.52-17.08,5.95-27.13,5.95-43.17,0-1.29-.01-2.58-.01-3.87,0-3.23.16-6.36.31-9.53.16-3.17.31-6.37.31-9.73,0-1.42-.25-2.86-.73-4.19-.86-2.42-1.17-5.06-1.17-7.82,0-4.16.7-8.58,1.27-12.95,8.14,7.3,17.22,12.41,27.78,12.41.91,0,1.79-.03,2.66-.09.4.28.81.57,1.2.92,2.52,1.56,5.55,4.3,7.91,4.3.49,0,2.08-.55,4.28-1.42,1.51,8.32,3.57,16.55,3.57,25.12,0,20.2-8.83,36.69-8.76,71.03,0,2.87.19,5.74.6,8.58.84,5.93,2.04,9.36,2.63,10.77.3.71.44,1.45.44,2.22,0,.25,0,.49-.02.75-.41,6.3-4.94,16.59-15.64,14.02-.32-.08-.64-.16-.97-.26-1.29-.38-2.19-1.55-2.23-2.9-.13-3.93-.45-12.78-1.03-21.61-.16-2.33-.32-4.66-.52-6.88-.3-3.44-.64-6.66-1.04-9.33-.39-2.61-.99-5.25-.99-8.39,0-7.69,2.24-13.25,2.24-23.03,0-6.39-.42-12.76-1.12-19.11Z" style="fill: rgb(42, 42, 43);"/>
      <path class="cls-7" d="m207.08,285.94c-.16-.16-.31-.32-.47-.47.16.15.31.31.47.47Z"/>
      <path class="cls-7" d="m199.27,245.03c1.83,4.49,1.91,9.1,1.82,14.11-.01.79,0,1.6,0,2.4-.06.1-.12.19-.18.29-.55.95-1.73,3.45-3.06,3.42h-.01c-1.38-.04-2.21-5.36-2.17-6.9.05-2.06,1.8-3.82,1.85-6.07.03-1.26-.42-2.43-1.05-3.51,1.25-.95,2.27-2.31,2.81-3.75Z"/>
      <path class="cls-9" d="m201.08,261.55c0,.49,0,.99,0,1.47-.08,3.25-.25,6.82-3.49,6.75-1.11-.02-2.21-1.19-3.21-2.79-.83-1.34-1.58-2.99-2.19-4.53-.25-.62-.8-1.06-1.45-1.17-.66-.11-1.32.14-1.75.65-1.8,2.14-3.67,6.09-6.27,6.04-.63-.01-1.23-.26-1.81-.68-3.42-2.5-5.81-11.23-5.73-14.93.25-11.8,14.84-14.22,19.35-14.12,2.94.06,5.28,1.73,5.21,4.63-.02.71-.18,1.44-.45,2.16-.55,1.43-1.56,2.8-2.81,3.75.63,1.08,1.08,2.25,1.05,3.51-.05,2.25-1.8,4.01-1.85,6.07-.03,1.55.79,6.86,2.17,6.9h.01c1.34.03,2.52-2.47,3.06-3.42.06-.1.12-.19.18-.29Z"/>
      <path class="cls-7" d="m194.59,278.38c.2.1.4.19.59.29-2.55.65-4.82.94-6.58.94-5.81,0-11.1-3.37-11.62-8.85.62.23,1.23.47,1.86.72.37.15.79.12,1.13-.08.35-.2.58-.55.64-.93.17-1.04.24-2.12.29-3.17.58.42,1.18.67,1.81.68,2.6.06,4.47-3.9,6.27-6.04.43-.51,1.09-.76,1.75-.65.66.11,1.21.55,1.45,1.17.61,1.54,1.36,3.19,2.19,4.53-.64,2.6-.99,5.35-1.04,8.05,0,.47-.01.93,0,1.4.01.83.5,1.58,1.25,1.95Z"/>
      <path class="cls-9" d="m191.28,451.18c.19,2.23.36,4.55.52,6.88-1.83.54-3.62,1.19-5.28,2.18-5.78,3.45-10.51,8.7-15.34,8.7-.7,0-1.4-.11-2.1-.35-1.42-.48-2.43-1.68-2.74-3.07,9.71,2.16,16.45-5.37,15.98-14.61.98.4,2.19.56,3.66.56,1.71,0,3.58-.19,5.3-.29Z"/>
      <path class="cls-7" d="m190.37,391.32c.71,6.34,1.12,12.72,1.12,19.11,0,9.78-2.24,15.34-2.24,23.03,0,3.14.6,5.78.99,8.39.4,2.67.74,5.89,1.04,9.33-1.73.1-3.6.29-5.3.29-1.47,0-2.68-.16-3.66-.56,0-.17-.02-.34-.03-.52,0,0-.65-5.59-.74-13.4-.08-6.56.58-13.11,1.93-19.53,1.64-7.71,3.87-16.63,6.89-26.14Z"/>
      <path class="cls-7" d="m170,328.59c1.28-.31,2.88-.66,4.03-.66.73,0,1.46.11,1.46.84,0,1.27-2.84,4-5.95,4.36-.22.03-.45.04-.68.04-6.21,0-21.81-17.48-31.35-28.84-2.55-3.03-2.85-7.34-.77-10.7,3.07-4.94,6.88-9.52,10.97-13.35-.15.98-.21,1.99-.21,3.02,0,8.04,1.99,11.22,5.21,12.78-.55.43-1.07.9-1.59,1.39-.62.59-.71,1.55-.2,2.24,13.02,17.62,13.94,25.36,15.82,25.36.82,0,1.9-1.17,3.27-2.11.08.78.12,1.56.12,2.34,0,1.08-.05,2.18-.13,3.29Z"/>
      <path class="cls-7" d="m172.14,269.15c.42.06.84.15,1.24.27-.4-.11-.82-.2-1.24-.27Z"/>
      <path class="cls-7" d="m170.01,322.95c-1.38.94-2.46,2.11-3.27,2.11-1.88,0-2.8-7.74-15.82-25.36-.51-.69-.42-1.65.2-2.24.52-.49,1.05-.95,1.59-1.39,2.14-1.73,4.49-3.13,7.15-4.23,2.25,10.32,9.19,20.75,10.15,31.11Z"/>
    </g>
    <g>
      <path class="cls-2" d="m201.08,261.55c-.06.1-.12.19-.18.29-.55.95-1.73,3.45-3.06,3.42h-.01c-1.38-.04-2.21-5.36-2.17-6.9.05-2.06,1.8-3.82,1.85-6.07.03-1.26-.42-2.43-1.05-3.51,1.25-.95,2.26-2.31,2.81-3.75.28-.72.44-1.45.45-2.16.07-2.9-2.27-4.57-5.21-4.63-4.51-.1-19.1,2.32-19.35,14.12-.08,3.69,2.31,12.42,5.73,14.93.58.42,1.18.67,1.81.68,2.6.06,4.47-3.9,6.27-6.04.43-.51,1.09-.76,1.75-.65.66.11,1.21.55,1.45,1.17.61,1.54,1.36,3.19,2.19,4.53.99,1.6,2.1,2.77,3.21,2.79,3.25.07,3.41-3.5,3.49-6.75.01-.49,0-.98,0-1.47,0-.81-.01-1.61,0-2.4.09-5.02.01-9.63-1.82-14.11"/>
      <path class="cls-2" d="m180.89,267.29c-.05,1.06-.12,2.13-.29,3.17-.06.39-.3.74-.64.93-.34.2-.76.23-1.13.08-.62-.25-3.97-1.53-5.01-1.91-.14-.05-.29-.1-.44-.15-.4-.12-.82-.21-1.24-.27"/>
      <path class="cls-2" d="m169.53,333.13c-.05.36-.09.72-.14,1.08-.6,4.37-1.27,8.8-1.27,12.95,0,2.76.31,5.4,1.17,7.82.48,1.34.73,2.77.73,4.19,0,3.36-.16,6.56-.31,9.73-.15,3.17-.31,6.3-.31,9.53,0,1.29.01,2.58.01,3.87,0,16.04-6.47,26.1-5.95,43.17,2.05,20.76,1.8,28.44.34,37.45-.17,1.04.46,2.03,1.47,2.32.36.1.71.2,1.06.27,9.7,2.18,16.39-5.37,15.98-14.61,0-.17-.02-.34-.03-.52,0,0-.65-5.59-.74-13.4-.08-6.56.58-13.11,1.93-19.53,1.64-7.71,3.87-16.63,6.89-26.14,0,0,0-.01,0-.01"/>
      <path class="cls-2" d="m166.34,465.53c.31,1.4,1.32,2.59,2.74,3.07.71.24,1.4.35,2.1.35,4.82,0,9.56-5.25,15.34-8.7,1.66-.99,3.45-1.64,5.28-2.18"/>
      <path class="cls-2" d="m170,328.59c.08-1.11.13-2.21.13-3.29,0-.78-.04-1.56-.12-2.34-1-10.36-7.9-20.79-10.15-31.11-.25-1.16-.45-2.32-.57-3.47"/>
      <path class="cls-2" d="m195.18,278.67c2.16,1.04,4.29,2.1,6.38,3.17,1.88.97,3.57,2.19,5.05,3.63.16.16.32.31.47.47"/>
      <path class="cls-2" d="m194.38,266.99c-.64,2.6-.99,5.35-1.04,8.05,0,.47-.01.93,0,1.4.01.83.5,1.58,1.25,1.95.2.1.4.19.59.29"/>
      <path class="cls-2" d="m212.84,317.31c-.51,6.2-1.2,12.41-1.2,18.32,0,.64.01,1.27.03,1.91"/>
      <path class="cls-2" d="m213.23,350.34c1.51,8.32,3.57,16.55,3.57,25.12,0,20.2-8.83,36.69-8.76,71.03,0,2.87.19,5.74.6,8.58.84,5.93,2.04,9.36,2.63,10.77.3.71.44,1.45.44,2.22,0,.25,0,.49-.02.75-.41,6.3-4.94,16.59-15.64,14.02-.32-.08-.64-.16-.97-.26-1.29-.38-2.19-1.55-2.23-2.9-.13-3.93-.45-12.78-1.03-21.61-.16-2.33-.33-4.65-.52-6.88-.3-3.44-.64-6.66-1.04-9.33-.39-2.61-.99-5.25-.99-8.39,0-7.69,2.24-13.25,2.24-23.03,0-6.39-.42-12.76-1.12-19.11-.58-5.23-1.35-10.43-2.24-15.61-.58-3.38-2.12-6.52-4.45-9.03-2.51-2.71-4.11-6.44-4.11-10.78,0-2.4.35-4.73.69-7.1"/>
      <path class="cls-2" d="m211.68,468.8c1,.5,2.17.75,3.34.75,2.69,0,5.29-1.54,8.1-1.54,1.84,0,3.91.66,3.91,2.5,0,2.49-3.28,4.27-5.38,5.3-7.1,4.27-16.23,9.55-20.8,9.55-1.05,0-2.07-.34-3.06-.86-.75-.4-1.35-.98-1.77-1.67"/>
      <path class="cls-2" d="m182.32,450.91c.98.4,2.19.56,3.66.56,1.71,0,3.58-.19,5.3-.29"/>
      <path class="cls-2" d="m169.39,334.22c8.14,7.3,17.22,12.41,27.78,12.41.91,0,1.79-.03,2.66-.09"/>
      <path class="cls-2" d="m176.97,270.76c.52,5.49,5.81,8.85,11.62,8.85,1.77,0,4.03-.29,6.58-.94"/>
      <path class="cls-2" d="m173.38,269.42c-.4-.11-.82-.2-1.24-.27-7.03-1.17-16.31,3.53-24.42,11.13-4.1,3.84-7.9,8.41-10.97,13.35-2.08,3.36-1.78,7.67.77,10.7,9.54,11.36,25.15,28.84,31.35,28.84.23,0,.45-.01.68-.04,3.12-.36,5.95-3.1,5.95-4.36,0-.73-.73-.84-1.46-.84-1.14,0-2.75.35-4.03.66-1.03.25-1.84.47-2.07.47"/>
      <path class="cls-2" d="m170.01,322.95c-1.38.94-2.46,2.11-3.27,2.11-1.88,0-2.8-7.74-15.82-25.36-.51-.69-.42-1.65.2-2.24.52-.49,1.05-.95,1.59-1.39,2.14-1.73,4.49-3.13,7.15-4.23"/>
      <path class="cls-2" d="m206.03,307.06c1.22,2.86,3.5,5.28,6.81,10.25,1.34,2.01,2.86,4.44,4.54,7.49,1.22,2.21,2.54,4.75,3.94,7.7-1.29.71-3.23,2-7.98,5.69-.64-.3-1.19-.51-1.67-.66-.55-.17-1-.24-1.39-.24-2.38,0-4.08,5.17-7.15,5.17-1.07,0-2.71-.48-3.94-.48-.96,0-1.68.29-1.68,1.32,0,1.64,1.08,2.36,2.31,3.23.4.28.81.57,1.2.92,2.52,1.56,5.55,4.3,7.91,4.3.49,0,2.09-.54,4.28-1.42,4.38-1.74,11.15-4.82,16.3-7.56,3.64-1.94,7.19-4.68,7.21-9.13.03-3.59-2.26-9.08-5.66-15.15-6.77-12.1-17.94-26.48-23.99-32.55-.16-.16-.32-.32-.47-.47"/>
      <path class="cls-2" d="m217.38,324.8c4.33-3.08,8.71-5.19,13.67-6.29"/>
      <path class="cls-2" d="m147.71,280.28c-.15.98-.21,1.99-.21,3.02,0,8.04,1.99,11.22,5.21,12.78"/>
    </g>
  </g>
  <g>
    <g>
      <path class="cls-7" d="m431.56,490.6c.29,3.24-2.19,6.38-7.43,9.4l-26.3,15.18c-3.33,1.93-4.98,3.59-4.93,4.99.04,1.4,1.84,3.12,5.36,5.16l-12.86,7.43c-3.53-2.04-6.51-3.07-8.94-3.1-2.43-.02-5.31.93-8.64,2.85l-26.3,15.18c-5.24,3.02-10.67,4.45-16.3,4.29-5.62-.17-10.77-1.6-15.43-4.29l-8.01-4.62,12.86-7.43,2.29,1.32c2.58,1.49,5.22,2.16,7.94,2.02,2.71-.14,5.98-1.3,9.79-3.51l21.44-12.38c6.67-3.85,13.77-4.6,21.3-2.23l.29-.16c-4.1-4.35-2.81-8.45,3.86-12.3l21.44-12.38c3.81-2.2,5.83-4.09,6.07-5.66.24-1.56-.93-3.09-3.5-4.58l-2.29-1.32,12.86-7.43,8.01,4.62c4.67,2.7,7.15,5.67,7.43,8.92Z"/>
      <polygon class="cls-7" points="367.95 480.44 357.22 486.64 346.5 480.44 357.22 474.25 367.95 480.44"/>
      <path class="cls-7" d="m362.33,446l-12.86,7.43-2.29-1.32c-2.58-1.49-5.22-2.16-7.94-2.02s-5.98,1.31-9.79,3.51l-21.44,12.38c-6.67,3.85-13.77,4.6-21.3,2.23l-.29.16c4.1,4.35,2.81,8.45-3.86,12.3l-21.44,12.38c-3.81,2.2-5.84,4.08-6.07,5.65-.24,1.56.93,3.09,3.5,4.58l2.29,1.32-12.86,7.43-8.01-4.62c-4.67-2.7-7.15-5.67-7.43-8.91-.29-3.25,2.19-6.38,7.43-9.41l26.3-15.18c3.33-1.93,4.97-3.59,4.93-4.99-.05-1.4-1.84-3.12-5.36-5.16l12.86-7.43c3.53,2.04,6.5,3.07,8.94,3.1,2.43.02,5.31-.93,8.64-2.85l26.3-15.18c5.24-3.02,10.67-4.45,16.3-4.29,5.62.17,10.77,1.6,15.44,4.29l8,4.62Z"/>
      <ellipse class="cls-9" cx="352.94" cy="503.25" rx="8.51" ry="4.91"/>
      <polygon class="cls-8" points="346.06 493.08 335.34 499.27 324.61 493.08 335.34 486.89 346.06 493.08" style="fill: rgb(22, 50, 88);"/>
      <polygon class="cls-9" points="345.06 467.23 339.61 476.47 328.89 470.28 345.06 467.23"/>
      <polygon class="cls-8" points="341.78 515.89 331.06 522.08 320.33 515.89 331.06 509.69 341.78 515.89" style="fill: rgb(22, 50, 88);"/>
      <polygon class="cls-7" points="324.17 505.72 313.45 511.91 302.72 505.72 313.45 499.53 324.17 505.72"/>
      <path class="cls-9" d="m304.6,493.73c1.47,0,2.65.68,2.65,1.53s-1.19,1.53-2.65,1.53h-6.6v3.81c0,.84-1.19,1.53-2.65,1.53-.73,0-1.4-.17-1.88-.45-.48-.28-.78-.66-.78-1.08v-3.81h-6.6c-.73,0-1.4-.17-1.88-.45s-.78-.66-.78-1.08c0-.85,1.19-1.53,2.65-1.53h6.6v-3.81c0-.84,1.19-1.53,2.65-1.53s2.65.68,2.65,1.53v3.81h6.6Z"/>
    </g>
    <g>
      <path class="cls-3" d="m232.55,498.49c-.29-3.25,2.19-6.38,7.43-9.41l26.3-15.18c3.33-1.93,4.97-3.59,4.93-4.99-.05-1.4-1.84-3.12-5.36-5.16l12.86-7.43c3.53,2.04,6.5,3.07,8.94,3.1,2.43.02,5.31-.93,8.64-2.85l26.3-15.18c5.24-3.02,10.67-4.45,16.3-4.29,5.62.17,10.77,1.6,15.44,4.29l8,4.62-12.86,7.43-2.29-1.32c-2.58-1.49-5.22-2.16-7.94-2.02s-5.98,1.31-9.79,3.51l-21.44,12.38c-6.67,3.85-13.77,4.6-21.3,2.23l-.29.16c4.1,4.35,2.81,8.45-3.86,12.3l-21.44,12.38c-3.81,2.2-5.84,4.08-6.07,5.65-.24,1.56.93,3.09,3.5,4.58l2.29,1.32-12.86,7.43-8.01-4.62c-4.67-2.7-7.15-5.67-7.43-8.91Z"/>
      <path class="cls-3" d="m314.64,535.65l2.29,1.32c2.58,1.49,5.22,2.16,7.94,2.02,2.71-.14,5.98-1.3,9.79-3.51l21.44-12.38c6.67-3.85,13.77-4.6,21.3-2.23l.29-.16c-4.1-4.35-2.81-8.45,3.86-12.3l21.44-12.38c3.81-2.2,5.83-4.09,6.07-5.66.24-1.56-.93-3.09-3.5-4.58l-2.29-1.32,12.86-7.43,8.01,4.62c4.67,2.7,7.15,5.67,7.43,8.92.29,3.24-2.19,6.38-7.43,9.4l-26.3,15.18c-3.33,1.93-4.98,3.59-4.93,4.99.04,1.4,1.84,3.12,5.36,5.16l-12.86,7.43c-3.53-2.04-6.51-3.07-8.94-3.1-2.43-.02-5.31.93-8.64,2.85l-26.3,15.18c-5.24,3.02-10.67,4.45-16.3,4.29-5.62-.17-10.77-1.6-15.43-4.29l-8.01-4.62,12.86-7.43Z"/>
      <polygon class="cls-3" points="339.61 476.47 328.89 470.28 345.06 467.23 339.61 476.47"/>
      <polygon class="cls-3" points="357.22 486.64 346.5 480.44 357.22 474.25 367.95 480.44 357.22 486.64"/>
      <line class="cls-3" x1="374.84" y1="484.42" x2="385.56" y2="490.61"/>
      <line class="cls-3" x1="369.47" y1="487.52" x2="380.2" y2="493.71"/>
      <line class="cls-3" x1="374.84" y1="496.8" x2="364.11" y2="490.61"/>
      <polyline class="cls-3" points="323.09 479.06 323.09 486.01 311.04 486.01"/>
      <polyline class="cls-3" points="318 476.12 318 483.07 305.96 483.07"/>
      <polygon class="cls-3" points="335.34 499.27 324.61 493.08 335.34 486.89 346.06 493.08 335.34 499.27"/>
      <polygon class="cls-4" points="313.45 511.91 302.72 505.72 313.45 499.53 324.17 505.72 313.45 511.91" style="fill: rgb(22, 50, 88);"/>
      <polygon class="cls-3" points="331.06 522.08 320.33 515.89 331.06 509.69 341.78 515.89 331.06 522.08"/>
      <ellipse class="cls-3" cx="352.94" cy="503.25" rx="8.51" ry="4.91"/>
      <path class="cls-3" d="m298,496.8h6.6c1.47,0,2.65-.68,2.65-1.53s-1.19-1.53-2.65-1.53h-6.6v-3.81c0-.84-1.19-1.53-2.65-1.53s-2.65.68-2.65,1.53v3.81h-6.6c-1.47,0-2.65.68-2.65,1.53,0,.42.3.8.78,1.08s1.14.45,1.88.45h6.6v3.81c0,.42.3.81.78,1.08.48.28,1.14.45,1.88.45,1.47,0,2.65-.68,2.65-1.53v-3.81Z"/>
    </g>
  </g>
  <g>
    <text class="cls-15" transform="translate(57.86 395.54) rotate(-30) scale(1 .87) skewX(26.57)" style="white-space: pre;"><tspan x="0" y="0">1</tspan></text>
    <text class="cls-15" transform="translate(100.66 420.26) rotate(-30) scale(1 .87) skewX(26.57)" style="white-space: pre;"><tspan x="0" y="0">1</tspan></text>
    <text class="cls-15" transform="translate(77.67 388.43) rotate(-30) scale(1 .87) skewX(26.57)" style="white-space: pre;"><tspan x="0" y="0">1</tspan></text>
    <text class="cls-14" transform="translate(87.47 378.44) rotate(-30) scale(1 .87) skewX(26.57)" style="fill: rgb(43, 97, 172); white-space: pre;" x="0" y="0">0</text>
    <text class="cls-15" transform="translate(102.66 365.78) rotate(-30) scale(1 .87) skewX(26.57)" style="white-space: pre;"><tspan x="0" y="0">1</tspan></text>
    <text class="cls-15" transform="translate(123.6 359.32) rotate(-30) scale(1 .87) skewX(26.57)" style="white-space: pre;"><tspan x="0" y="0">1</tspan></text>
    <text class="cls-15" transform="translate(75.1 408.39) rotate(-30) scale(1 .87) skewX(26.57)" style="white-space: pre;"><tspan x="0" y="0">0</tspan></text>
    <text class="cls-14" transform="translate(101.92 402.44) rotate(-30) scale(1 .87) skewX(26.57)" style="fill: rgb(32, 89, 162); white-space: pre;" x="0" y="0">1</text>
    <text class="cls-15" transform="translate(114.23 391) rotate(-30) scale(1 .87) skewX(26.57)" style="white-space: pre;"><tspan x="0" y="0">1</tspan></text>
    <text class="cls-15" transform="translate(72.58 366.95) rotate(-30) scale(1 .87) skewX(26.57)" style="white-space: pre;"><tspan x="0" y="0">1</tspan></text>
    <text class="cls-15" transform="translate(134 405.31) rotate(-30) scale(1 .87) skewX(26.57)" style="white-space: pre;"><tspan x="0" y="0">0</tspan></text>
    <text class="cls-15" transform="translate(117.35 415.05) rotate(-30) scale(1 .87) skewX(26.57)" style="white-space: pre;"><tspan x="0" y="0">0</tspan></text>
    <text class="cls-15" transform="translate(126.92 379.78) rotate(-30) scale(1 .87) skewX(26.57)" style="white-space: pre;"><tspan x="0" y="0">1</tspan></text>
    <text class="cls-15" transform="translate(148.84 392.44) rotate(-30) scale(1 .87) skewX(26.57)" style="white-space: pre;"><tspan x="0" y="0">1</tspan></text>
    <text class="cls-15" transform="translate(145.35 374.77) rotate(-30) scale(1 .87) skewX(26.57)" style="white-space: pre;"><tspan x="0" y="0">0</tspan></text>
  </g>
</svg>